<?xml version="1.0" encoding="UTF-8"?>
<!DOCTYPE svg PUBLIC "-//W3C//DTD SVG 1.1//EN" "http://www.w3.org/Graphics/SVG/1.1/DTD/svg11.dtd">
<!-- Creator: CorelDRAW 2020 (64-Bit) -->
<svg xmlns="http://www.w3.org/2000/svg" xml:space="preserve" width="600px" height="600px" version="1.1" style="shape-rendering:geometricPrecision; text-rendering:geometricPrecision; image-rendering:optimizeQuality; fill-rule:evenodd; clip-rule:evenodd"
viewBox="0 0 600 600"
 xmlns:xlink="http://www.w3.org/1999/xlink"
 xmlns:xodm="http://www.corel.com/coreldraw/odm/2003">
 <defs>
  <style type="text/css">
   <![CDATA[
    .str0 {stroke:#2B2A29;stroke-width:15.94;stroke-miterlimit:22.9256}
    .str1 {stroke:#2B2A29;stroke-width:5.28;stroke-miterlimit:22.9256}
    .str2 {stroke:black;stroke-width:0.25;stroke-miterlimit:22.9256}
    .fil0 {fill:none}
    .fil4 {fill:#2B2A29}
    .fil5 {fill:#B2B3B3}
    .fil3 {fill:#C5C6C6}
    .fil1 {fill:#EEEEEE}
    .fil6 {fill:#1C749A;fill-rule:nonzero}
    .fil2 {fill:#C08223;fill-rule:nonzero}
   ]]>
  </style>
 </defs>
 <g id="Слой_x0020_1">
  <metadata id="CorelCorpID_0Corel-Layer"/>
  <path class="fil0 str0" d="M538.75 364.06c35.36,-131.99 -42.96,-267.66 -174.95,-303.02 -131.98,-35.37 -267.65,42.95 -303.02,174.94 -35.37,131.98 42.96,267.65 174.94,303.02 131.99,35.37 267.66,-42.96 303.03,-174.94z"/>
  <g id="_1976113177504">
   <path class="fil1 str1" d="M178.33 139.41c7.92,-29.56 -9.62,-59.93 -39.17,-67.85 -29.55,-7.92 -59.93,9.62 -67.85,39.17 -7.92,29.55 9.62,59.93 39.17,67.84 29.55,7.92 59.93,-9.61 67.85,-39.16z"/>
   <path class="fil1 str1" d="M289.24 75.37c7.92,-29.55 -9.62,-59.92 -39.17,-67.84 -29.55,-7.92 -59.93,9.61 -67.84,39.17 -7.92,29.55 9.61,59.92 39.16,67.84 29.56,7.92 59.93,-9.62 67.85,-39.17z"/>
   <path class="fil1 str1" d="M417.31 75.37c7.92,-29.55 -9.62,-59.92 -39.17,-67.84 -29.55,-7.92 -59.93,9.62 -67.84,39.17 -7.92,29.55 9.61,59.92 39.16,67.84 29.56,7.92 59.93,-9.62 67.85,-39.17z"/>
   <path class="fil1 str1" d="M528.22 139.41c7.92,-29.55 -9.62,-59.93 -39.17,-67.84 -29.55,-7.92 -59.92,9.61 -67.84,39.16 -7.92,29.56 9.62,59.93 39.17,67.85 29.55,7.92 59.92,-9.62 67.84,-39.17z"/>
   <path class="fil1 str1" d="M592.25 250.32c7.92,-29.55 -9.61,-59.92 -39.17,-67.84 -29.55,-7.92 -59.92,9.62 -67.84,39.17 -7.92,29.55 9.62,59.92 39.17,67.84 29.55,7.92 59.92,-9.61 67.84,-39.17z"/>
   <path class="fil1 str1" d="M592.25 378.4c7.92,-29.55 -9.61,-59.93 -39.17,-67.85 -29.55,-7.92 -59.92,9.62 -67.84,39.17 -7.92,29.55 9.62,59.93 39.17,67.85 29.55,7.91 59.92,-9.62 67.84,-39.17z"/>
   <path class="fil1 str1" d="M528.22 489.31c7.91,-29.56 -9.62,-59.93 -39.17,-67.85 -29.55,-7.92 -59.93,9.62 -67.85,39.17 -7.92,29.55 9.62,59.93 39.17,67.84 29.55,7.92 59.93,-9.61 67.85,-39.16z"/>
   <path class="fil1 str1" d="M417.3 553.34c7.92,-29.55 -9.61,-59.93 -39.17,-67.85 -29.55,-7.91 -59.92,9.62 -67.84,39.17 -7.92,29.55 9.62,59.93 39.17,67.85 29.55,7.92 59.92,-9.62 67.84,-39.17z"/>
   <path class="fil1 str1" d="M289.23 553.34c7.92,-29.55 -9.62,-59.93 -39.17,-67.85 -29.55,-7.92 -59.92,9.62 -67.84,39.17 -7.92,29.55 9.62,59.93 39.17,67.85 29.55,7.91 59.92,-9.62 67.84,-39.17z"/>
   <path class="fil1 str1" d="M178.32 489.3c7.92,-29.55 -9.62,-59.93 -39.17,-67.85 -29.55,-7.92 -59.92,9.62 -67.84,39.17 -7.92,29.55 9.61,59.93 39.17,67.85 29.55,7.92 59.92,-9.62 67.84,-39.17z"/>
   <path class="fil1 str1" d="M114.29 378.39c7.92,-29.55 -9.62,-59.93 -39.17,-67.85 -29.55,-7.92 -59.93,9.62 -67.85,39.17 -7.92,29.55 9.62,59.93 39.17,67.85 29.55,7.91 59.93,-9.62 67.85,-39.17z"/>
   <path class="fil1 str1" d="M114.29 250.32c7.92,-29.55 -9.62,-59.93 -39.17,-67.85 -29.55,-7.92 -59.93,9.62 -67.84,39.17 -7.92,29.55 9.61,59.93 39.16,67.85 29.56,7.91 59.93,-9.62 67.85,-39.17z"/>
  </g>
  <path class="fil2" d="M235.11 219.27l-11.46 106.81c-1.8,16.86 -3.73,28.72 -5.77,35.52 -2.08,6.8 -6.05,11.65 -11.93,14.58 -5.91,2.92 -15.63,4.38 -29.13,4.38l-24.47 0 0 -20.8 2.52 0c5.54,0 8.97,-0.44 10.26,-1.36 1.29,-0.88 1.97,-2.24 1.97,-4.11 0,-0.13 -0.81,-4.69 -2.41,-13.66l-22.12 -121.36 36.46 0 13.19 100.56 6.29 -100.56 36.6 0zm106.3 70.35l-42 0 0 -28.01c0,-8.15 -0.44,-13.22 -1.33,-15.25 -0.88,-2.01 -2.85,-3.03 -5.88,-3.03 -3.4,0 -5.57,1.22 -6.49,3.67 -0.92,2.48 -1.39,7.78 -1.39,15.94l0 74.83c0,7.86 0.47,12.95 1.39,15.37 0.92,2.37 2.99,3.56 6.19,3.56 3.09,0 5.13,-1.19 6.08,-3.6 0.95,-2.38 1.43,-8.02 1.43,-16.89l0 -20.29 42 0 0 6.29c0,16.72 -1.19,28.58 -3.53,35.55 -2.35,7 -7.58,13.12 -15.63,18.38 -8.09,5.27 -18.02,7.89 -29.84,7.89 -12.27,0 -22.4,-2.21 -30.39,-6.66 -7.95,-4.46 -13.25,-10.61 -15.83,-18.49 -2.59,-7.89 -3.88,-19.71 -3.88,-35.52l0 -47.1c0,-11.62 0.41,-20.32 1.19,-26.13 0.82,-5.81 3.16,-11.42 7.14,-16.79 3.94,-5.37 9.41,-9.62 16.41,-12.71 7,-3.09 15.06,-4.62 24.17,-4.62 12.33,0 22.53,2.38 30.58,7.17 8.02,4.76 13.29,10.7 15.84,17.84 2.52,7.14 3.77,18.22 3.77,33.27l0 15.33zm15.02 -70.35l42.01 0 0.2 68.1c7.79,-0.2 11.8,-4.58 12.07,-13.15l0.78 -31.47c0.27,-11.59 2.51,-19.44 6.73,-23.48l38.74 0c-3.74,3.91 -5.57,12.03 -5.5,24.3l0.2 27.66c0.14,16.72 -9.28,26.27 -28.28,28.58 19,2.31 28.42,12 28.28,28.99l-0.2 25.66c-0.07,12.24 1.76,20.94 5.5,26.1l-38.74 0c-4.49,-4.04 -6.73,-11.89 -6.73,-23.52l0 -31.43c0,-4.01 -1.19,-7.21 -3.57,-9.62 -2.41,-2.41 -5.5,-3.67 -9.28,-3.74l-0.2 68.31 -42.01 0 0 -161.29z"/>
  <g id="_1976106290816">
   <g>
    <path class="fil3 str2" d="M351.11 135.25l-0.54 -2c-1.82,-1.89 -0.2,-1.51 -4.6,-2.67 -1.45,-0.38 -4.03,-1.37 -5.58,-0.86 -3.76,1.23 -5.13,7.64 -2.2,9.6 -0.1,0.86 -0.35,0.72 -0.2,2.03 0.23,2.08 -0.72,2.82 -1.22,3.7 -0.7,1.23 0.3,1.99 -0.57,4.11 -0.24,0.57 -0.81,1.13 -1.07,1.68 -0.48,1.05 0.42,2.53 -0.58,4.24 -0.36,0.61 -0.76,0.84 -0.94,1.6 -0.18,0.77 0.13,1.49 -0.01,2.29 -0.81,4.45 -4.95,1.96 -7.24,6.7 -1.14,2.33 -0.6,0.4 -1.21,1.31 -0.25,0.78 -0.86,2.92 -0.87,3.74l3.14 0.82c0.02,0.01 0.08,0.04 0.11,0.06l-12.43 46.66c-2.01,7.73 -4.23,15.48 -6.21,23.32 -1.83,7.28 -1.87,18.26 -0.45,26.75 1.7,-1.78 4.56,-6.11 6.24,-8.55 0.95,-1.4 4.24,-7.51 4.99,-9.42 0.42,-1.06 0.78,-1.86 1.1,-2.95 1.15,-3.92 2.08,-8.09 3.2,-12.03 2.65,-9.34 5.55,-20.64 8.06,-30.26l4.84 -18.09c0.41,-1.49 2.98,-11.61 3.32,-12.11 1.07,0.13 2.25,0.75 3.28,0.74 0.38,-0.97 0.68,-2.88 1.07,-3.49 -0.5,-0.79 -0.36,0 -0.54,-0.8 -0.07,-0.33 0.26,-1.5 -0.29,-3.4 -0.65,-2.28 -1.6,-2.35 -2.26,-3.46 -0.83,-1.4 -0.59,-3.21 0.02,-4.16 1.51,-2.38 0.44,-1.41 0.92,-3.9 0.4,-2.07 1.31,-2.17 1.43,-3.48 0.17,-1.81 -0.28,-2.45 0.75,-3.86 1.46,-1.99 0.29,-1.79 0.79,-3.83 0.18,-0.74 0.36,-1.19 0.71,-1.73 0.59,-0.92 0.46,-0.69 0.79,-1.85 4.2,-1.08 3.71,-4.34 4.25,-6.45z"/>
    <path class="fil4" d="M309.3 265.19l4.35 -6.14c0.34,-0.66 0.38,-0.77 0.73,-1.3 2.84,-4.3 4.58,-8.39 5.95,-13.45l17.22 -64.61c0.3,-1.03 1.49,-5.14 1.48,-5.97 -1.14,-0.04 -3.78,-0.94 -5.01,-1.25 -1.68,-0.42 -3.38,-1 -5,-1.28 -0.46,0.83 -11.15,41.65 -12.23,45.61 -2.08,7.59 -3.95,15.22 -6.08,22.82 -2.15,7.72 -2.62,17.28 -1.41,25.57z"/>
    <path class="fil4" d="M342.98 172.76c-0.1,0.53 -0.12,0.97 -0.45,1.43l-16.77 -4.44 0.28 -1.42c0.91,0.01 16,4.14 16.94,4.43z"/>
    <path class="fil4" d="M342.48 172.21c-1.43,-0.36 -14.51,-3.71 -15.64,-4.23 0.53,-2.53 2.87,-5.55 6.39,-4.59 2.46,0.68 6.93,1.47 8.13,2.77 1.41,1.53 1.79,4.34 1.12,6.05z"/>
    <path class="fil4" d="M339.75 164.23c-0.89,0.49 -2.59,-0.19 -3.58,-0.48 -1.23,-0.36 -2.75,-0.24 -2.89,-1.56 0.96,-0.53 3.62,0.49 5.28,0.9 0.82,0.2 1.08,0.27 1.19,1.14z"/>
    <path class="fil4" d="M340.4 159.55c-0.8,2.15 -0.62,2.38 -0.93,3.28l-5.4 -1.38c0.33,-0.76 0.85,-2.16 0.81,-3.29l5.52 1.39z"/>
    <path class="fil4" d="M334.76 156.76c0.91,-0.64 3.52,0.45 5.09,0.84 0.47,0.12 1.48,0.18 1.26,0.96 -0.26,0.91 -2.53,-0.03 -3.26,-0.22 -2.07,-0.55 -2.92,-0.44 -3.09,-1.58z"/>
    <path class="fil4" d="M341.84 154.07l-0.93 3.31 -5.39 -1.41c0.35,-0.49 0.86,-2.35 0.82,-3.29l5.5 1.39z"/>
    <path class="fil4" d="M342.6 153.14c-0.69,0.55 -1.63,0.08 -3.25,-0.38 -2.02,-0.56 -2.84,-0.38 -3.13,-1.47 0.74,-0.9 3.15,0.24 5.02,0.68 0.8,0.19 1.4,0.16 1.36,1.17z"/>
    <path class="fil4" d="M343.36 148.48c-0.38,0.99 -0.79,1.94 -0.82,3.3l-5.48 -1.4c0.14,-0.48 0.36,-0.97 0.53,-1.56 0.17,-0.56 0.17,-1.25 0.37,-1.74l5.4 1.4z"/>
    <path class="fil4" d="M344.1 147.7c-0.89,0.57 -2.27,-0.11 -3.33,-0.39 -0.64,-0.17 -3.25,-0.53 -3.03,-1.41 0.2,-0.78 1.02,-0.43 1.56,-0.26 0.62,0.19 1.14,0.27 1.75,0.44 1.98,0.55 2.96,0.49 3.05,1.62z"/>
    <path class="fil4" d="M344.79 143.17c-0.33,0.95 -0.87,1.91 -0.78,3.19 -1.82,-0.2 -3.64,-1.07 -5.49,-1.36 0.09,-0.45 0.32,-0.93 0.48,-1.52 0.17,-0.63 0.22,-1.27 0.4,-1.82 0.88,0.14 1.81,0.44 2.67,0.67 0.67,0.18 2.16,0.5 2.72,0.84z"/>
    <path class="fil4" d="M349.42 137.33c-0.01,1.01 -0.5,1.85 -1.2,2.45 -0.29,0.24 -2.8,1.23 -2.96,1.25 -0.06,0 -5.66,-1.3 -5.44,-1.51 0.04,-0.04 -0.06,-0.09 -0.08,-0.12 -1.22,-1.93 -2.44,-1.91 -1.74,-4.91 0.66,0.04 2.13,0.48 2.78,0.65 0.95,0.25 1.89,0.53 2.83,0.78 1.33,0.34 4.76,1.42 5.81,1.41z"/>
    <path class="fil4" d="M339.25 141.1c-0.37,-1.8 1.87,-0.72 2.67,-0.51 0.67,0.18 3.16,0.62 3.46,1.05 1.49,2.17 -6.12,-0.53 -6.13,-0.54z"/>
    <path class="fil4" d="M349.33 136.37l-0.21 0.7c-1.61,-0.42 -9.71,-2.42 -10.59,-2.91l0.32 -0.63 10.48 2.84z"/>
    <path class="fil4" d="M349.8 135.98l-11.23 -2.93c0.22,-0.81 1.3,-2.16 2.8,-2.28 0.55,-0.04 6.17,1.41 6.81,1.69 1.06,0.48 1.59,2.08 1.62,3.52z"/>
    <path class="fil5" d="M324.52 212.96c-1.76,6.31 -3.39,12.63 -5.06,18.97 -1.46,5.58 -3.33,13.13 -6.14,18.28 -0.03,-5.34 2.46,-14.19 3.9,-19.42 4.3,-15.54 8.27,-31.65 12.56,-47.13 0.54,-1.93 2,-7.88 2.54,-9.26l0.68 1.99 1.58 -1.36 -10.06 37.93z"/>
   </g>
   <g>
    <path class="fil3 str2" d="M261.78 468.16l-1.48 1.47c-2.51,0.73 -0.92,1.2 -5.32,0.01 -1.44,-0.39 -4.17,-0.83 -5.26,-2.05 -2.64,-2.94 -0.62,-9.17 2.9,-9.41 0.34,-0.8 0.05,-0.8 0.84,-1.86 1.24,-1.68 0.79,-2.79 0.79,-3.81 0.01,-1.42 1.26,-1.57 1.56,-3.85 0.09,-0.61 -0.13,-1.38 -0.08,-1.98 0.1,-1.15 1.62,-1.98 1.62,-3.96 0,-0.72 -0.25,-1.12 -0.02,-1.87 0.24,-0.75 0.86,-1.22 1.14,-1.98 1.52,-4.26 -3.31,-4.17 -2.93,-9.42 0.19,-2.59 -0.31,-0.65 -0.38,-1.74 0.17,-0.81 0.71,-2.96 1.11,-3.67l3.13 0.85c0.03,0.01 0.09,0.01 0.13,0.01l12.57 -46.63c2.12,-7.69 4.06,-15.52 6.28,-23.29 2.06,-7.22 7.5,-16.75 12.98,-23.39 0.59,2.38 0.9,7.56 1.13,10.52 0.13,1.68 -0.08,8.62 -0.38,10.66 -0.17,1.12 -0.26,1.99 -0.53,3.09 -0.96,3.97 -2.24,8.05 -3.25,12.03 -2.37,9.41 -5.51,20.64 -8.15,30.23l-4.85 18.09c-0.39,1.5 -3.22,11.54 -3.18,12.15 0.99,0.42 2.33,0.47 3.21,1 -0.15,1.02 -0.85,2.83 -0.82,3.55 -0.83,0.44 -0.31,-0.18 -0.86,0.42 -0.23,0.25 -0.53,1.43 -1.95,2.8 -1.71,1.65 -2.57,1.24 -3.69,1.87 -1.42,0.79 -2.12,2.48 -2.07,3.61 0.13,2.82 -0.32,1.44 -1.15,3.84 -0.69,2 0.05,2.53 -0.5,3.73 -0.76,1.65 -1.47,1.98 -1.28,3.71 0.26,2.46 -0.64,1.7 -1.24,3.72 -0.21,0.73 -0.27,1.2 -0.24,1.85 0.05,1.1 0.05,0.82 -0.25,2 3.1,3.03 1.05,5.61 0.47,7.7z"/>
    <path class="fil4" d="M290.54 334.73l0.69 7.5c-0.03,0.73 -0.05,0.85 -0.01,1.48 0.3,5.15 -0.23,9.56 -1.58,14.63l-17.39 64.56c-0.26,1.04 -1.28,5.2 -1.7,5.91 -1.01,-0.53 -3.74,-1.07 -4.97,-1.42 -1.66,-0.47 -3.43,-0.82 -4.97,-1.39 0.01,-0.95 11.18,-41.65 12.22,-45.62 1.99,-7.61 4.19,-15.16 6.15,-22.8 1.99,-7.76 6.37,-16.28 11.56,-22.85z"/>
    <path class="fil4" d="M273.48 431.62c0.19,-0.51 0.39,-0.91 0.34,-1.47l-16.75 -4.54 -0.47 1.38c0.79,0.44 15.93,4.41 16.88,4.63z"/>
    <path class="fil4" d="M272.78 431.85c-1.42,-0.41 -14.42,-4.04 -15.66,-4.16 -0.81,2.45 -0.29,6.24 3.24,7.17 2.47,0.64 6.73,2.18 8.43,1.66 1.98,-0.62 3.72,-2.86 3.99,-4.67z"/>
    <path class="fil4" d="M266.42 437.39c-0.52,-0.87 -2.33,-1.13 -3.34,-1.37 -1.24,-0.3 -2.5,-1.17 -3.28,-0.1 0.56,0.94 3.38,1.38 5.02,1.86 0.82,0.24 1.07,0.31 1.6,-0.39z"/>
    <path class="fil4" d="M264.65 441.77c0.38,-2.26 0.65,-2.37 0.83,-3.3l-5.37 -1.51c-0.09,0.82 -0.33,2.29 -0.94,3.26l5.48 1.55z"/>
    <path class="fil4" d="M258.36 441.36c0.48,1.01 3.28,1.37 4.84,1.82 0.46,0.13 1.37,0.59 1.57,-0.2 0.22,-0.92 -2.21,-1.24 -2.93,-1.43 -2.08,-0.57 -2.75,-1.09 -3.48,-0.19z"/>
    <path class="fil4" d="M263.16 447.24l0.84 -3.34 -5.37 -1.47c0.06,0.6 -0.43,2.46 -0.94,3.25l5.47 1.56z"/>
    <path class="fil4" d="M263.35 448.42c-0.32,-0.82 -1.38,-0.88 -3.01,-1.3 -2.02,-0.52 -2.65,-1.09 -3.44,-0.29 0.19,1.15 2.85,1.37 4.68,1.92 0.8,0.24 1.29,0.56 1.77,-0.33z"/>
    <path class="fil4" d="M261.68 452.83c0.16,-1.04 0.28,-2.07 0.94,-3.27l-5.45 -1.52c-0.12,0.49 -0.18,1.02 -0.32,1.62 -0.13,0.56 -0.48,1.16 -0.56,1.69l5.39 1.48z"/>
    <path class="fil4" d="M261.92 453.88c-0.48,-0.94 -2.02,-1.04 -3.07,-1.33 -0.64,-0.17 -3.08,-1.17 -3.33,-0.29 -0.22,0.78 0.67,0.88 1.22,1 0.63,0.15 1.13,0.34 1.74,0.5 1.98,0.51 2.8,1.05 3.44,0.12z"/>
    <path class="fil4" d="M260.26 458.14c0.18,-0.98 0.2,-2.08 0.92,-3.14 -1.68,-0.74 -3.69,-0.9 -5.44,-1.57 -0.14,0.43 -0.19,0.96 -0.34,1.56 -0.17,0.63 -0.45,1.21 -0.56,1.77 0.83,0.32 1.78,0.52 2.64,0.75 0.67,0.19 2.12,0.65 2.78,0.63z"/>
    <path class="fil4" d="M261.35 465.52c0.5,-0.88 0.49,-1.85 0.18,-2.72 -0.13,-0.36 -1.81,-2.46 -1.94,-2.56 -0.05,-0.04 -5.54,-1.71 -5.46,-1.41 0.01,0.05 -0.1,0.05 -0.13,0.06 -2.02,1.06 -3.06,0.43 -3.96,3.38 0.59,0.3 2.08,0.65 2.73,0.83 0.95,0.26 1.9,0.48 2.84,0.74 1.33,0.37 4.83,1.15 5.74,1.68z"/>
    <path class="fil4" d="M254.43 457.17c-1.23,1.38 1.25,1.56 2.06,1.78 0.67,0.18 3.04,1.04 3.51,0.82 2.38,-1.13 -5.56,-2.6 -5.57,-2.6z"/>
    <path class="fil4" d="M260.79 466.31l0.17 -0.72c-1.6,-0.44 -9.62,-2.75 -10.63,-2.77l-0.04 0.71 10.5 2.78z"/>
    <path class="fil4" d="M261 466.88l-11.19 -3.07c-0.21,0.8 0.05,2.51 1.29,3.36 0.45,0.31 6.05,1.87 6.74,1.94 1.16,0.12 2.42,-1 3.16,-2.23z"/>
    <path class="fil5" d="M277.6 387.58c1.63,-6.35 3.38,-12.64 5.11,-18.96 1.52,-5.57 3.67,-13.04 3.82,-18.9 -2.7,4.61 -4.97,13.51 -6.33,18.77 -4.05,15.6 -8.66,31.54 -12.69,47.09 -0.5,1.94 -2.21,7.82 -2.44,9.29l1.59 -1.38 0.69 1.97 10.25 -37.88z"/>
   </g>
   <g>
    <g>
     <path class="fil3 str2" d="M464.9 351.06l2.01 -0.54c1.88,-1.82 1.5,-0.21 2.66,-4.61 0.39,-1.44 1.37,-4.02 0.86,-5.58 -1.22,-3.75 -7.63,-5.12 -9.6,-2.19 -0.86,-0.11 -0.72,-0.36 -2.03,-0.21 -2.08,0.24 -2.81,-0.71 -3.7,-1.22 -1.23,-0.7 -1.99,0.3 -4.11,-0.57 -0.57,-0.23 -1.13,-0.8 -1.68,-1.06 -1.04,-0.49 -2.52,0.41 -4.24,-0.58 -0.61,-0.36 -0.84,-0.77 -1.6,-0.94 -0.77,-0.18 -1.49,0.13 -2.28,-0.02 -4.46,-0.81 -1.97,-4.94 -6.7,-7.24 -2.34,-1.13 -0.41,-0.6 -1.32,-1.2 -0.78,-0.25 -2.92,-0.86 -3.74,-0.87l-0.81 3.13c-0.02,0.03 -0.05,0.08 -0.07,0.12l-46.66 -12.43c-7.72,-2.01 -15.47,-4.24 -23.31,-6.21 -7.29,-1.83 -18.26,-1.88 -26.75,-0.45 1.77,1.7 6.1,4.55 8.55,6.23 1.39,0.96 7.5,4.25 9.42,5 1.05,0.42 1.86,0.78 2.94,1.1 3.92,1.15 8.09,2.07 12.04,3.2 9.34,2.65 20.64,5.54 30.26,8.06l18.09 4.84c1.49,0.41 11.6,2.98 12.11,3.31 -0.13,1.08 -0.76,2.26 -0.74,3.29 0.96,0.38 2.88,0.67 3.49,1.07 0.79,-0.5 0,-0.36 0.8,-0.54 0.32,-0.08 1.49,0.25 3.39,-0.29 2.28,-0.66 2.36,-1.61 3.46,-2.26 1.4,-0.83 3.21,-0.6 4.17,0.01 2.37,1.52 1.4,0.44 3.9,0.93 2.07,0.4 2.16,1.31 3.48,1.43 1.8,0.16 2.44,-0.28 3.85,0.74 2,1.46 1.8,0.3 3.84,0.79 0.74,0.18 1.18,0.37 1.73,0.72 0.92,0.59 0.68,0.46 1.85,0.78 1.08,4.2 4.33,3.71 6.44,4.26z"/>
     <path class="fil4" d="M334.96 309.24l6.15 4.36c0.65,0.33 0.76,0.37 1.29,0.72 4.31,2.85 8.39,4.58 13.46,5.95l64.6 17.22c1.03,0.3 5.14,1.49 5.97,1.48 0.05,-1.13 0.95,-3.77 1.26,-5.01 0.42,-1.67 1,-3.38 1.27,-5 -0.82,-0.46 -41.65,-11.14 -45.61,-12.23 -7.59,-2.08 -15.22,-3.95 -22.82,-6.07 -7.71,-2.16 -17.28,-2.62 -25.57,-1.42z"/>
     <path class="fil4" d="M427.4 342.92c-0.54,-0.09 -0.98,-0.12 -1.44,-0.44l4.44 -16.77 1.43 0.27c-0.02,0.91 -4.14,16.01 -4.43,16.94z"/>
     <path class="fil4" d="M427.95 342.43c0.36,-1.44 3.71,-14.51 4.22,-15.65 2.53,0.54 5.56,2.88 4.59,6.4 -0.67,2.46 -1.47,6.92 -2.77,8.13 -1.53,1.41 -4.34,1.79 -6.04,1.12z"/>
     <path class="fil4" d="M435.92 339.69c-0.49,-0.88 0.19,-2.58 0.48,-3.57 0.37,-1.23 0.25,-2.75 1.56,-2.9 0.54,0.96 -0.49,3.63 -0.9,5.28 -0.2,0.83 -0.27,1.08 -1.14,1.19z"/>
     <path class="fil4" d="M440.6 340.35c-2.15,-0.8 -2.38,-0.63 -3.27,-0.93l1.38 -5.4c0.75,0.33 2.15,0.85 3.29,0.81l-1.4 5.52z"/>
     <path class="fil4" d="M443.4 334.7c0.63,0.92 -0.46,3.53 -0.85,5.1 -0.12,0.47 -0.17,1.48 -0.96,1.25 -0.91,-0.26 0.04,-2.52 0.23,-3.25 0.55,-2.08 0.43,-2.93 1.58,-3.1z"/>
     <path class="fil4" d="M446.09 341.79l-3.31 -0.93 1.4 -5.39c0.49,0.34 2.35,0.86 3.29,0.81l-1.38 5.51z"/>
     <path class="fil4" d="M447.01 342.55c-0.54,-0.69 -0.07,-1.63 0.38,-3.26 0.57,-2.01 0.38,-2.84 1.48,-3.12 0.89,0.74 -0.25,3.15 -0.69,5.01 -0.19,0.81 -0.15,1.4 -1.17,1.37z"/>
     <path class="fil4" d="M451.67 343.31c-0.98,-0.38 -1.93,-0.8 -3.3,-0.82l1.4 -5.48c0.48,0.14 0.97,0.35 1.57,0.53 0.55,0.16 1.24,0.17 1.73,0.36l-1.4 5.41z"/>
     <path class="fil4" d="M452.45 344.04c-0.57,-0.88 0.11,-2.26 0.39,-3.32 0.17,-0.64 0.53,-3.25 1.41,-3.03 0.79,0.2 0.43,1.01 0.26,1.56 -0.19,0.61 -0.27,1.14 -0.44,1.75 -0.55,1.97 -0.48,2.95 -1.62,3.04z"/>
     <path class="fil4" d="M456.98 344.73c-0.94,-0.33 -1.91,-0.86 -3.19,-0.77 0.2,-1.83 1.07,-3.64 1.36,-5.49 0.45,0.09 0.93,0.31 1.53,0.48 0.62,0.17 1.27,0.22 1.81,0.4 -0.13,0.88 -0.44,1.8 -0.67,2.66 -0.17,0.68 -0.49,2.16 -0.84,2.72z"/>
     <path class="fil4" d="M462.82 349.37c-1.01,-0.01 -1.85,-0.5 -2.44,-1.2 -0.25,-0.3 -1.23,-2.8 -1.25,-2.97 -0.01,-0.06 1.29,-5.65 1.51,-5.43 0.03,0.03 0.09,-0.06 0.12,-0.08 1.92,-1.23 1.9,-2.44 4.9,-1.74 -0.04,0.66 -0.48,2.12 -0.65,2.77 -0.24,0.95 -0.53,1.89 -0.78,2.84 -0.34,1.33 -1.42,4.75 -1.41,5.81z"/>
     <path class="fil4" d="M459.05 339.2c1.81,-0.38 0.73,1.86 0.51,2.67 -0.17,0.67 -0.62,3.16 -1.05,3.45 -2.16,1.5 0.53,-6.11 0.54,-6.12z"/>
     <path class="fil4" d="M463.78 349.28l-0.7 -0.21c0.42,-1.61 2.43,-9.71 2.91,-10.6l0.64 0.32 -2.85 10.49z"/>
     <path class="fil4" d="M464.17 349.75l2.94 -11.23c0.8,0.22 2.15,1.3 2.27,2.79 0.04,0.55 -1.41,6.18 -1.69,6.81 -0.48,1.06 -2.08,1.59 -3.52,1.63z"/>
     <path class="fil5" d="M387.2 324.47c-6.32,-1.77 -12.64,-3.4 -18.97,-5.06 -5.59,-1.47 -13.14,-3.34 -18.29,-6.14 5.34,-0.03 14.2,2.45 19.42,3.9 15.54,4.3 31.65,8.27 47.13,12.56 1.94,0.54 7.88,1.99 9.27,2.54l-2 0.68 1.37 1.58 -37.93 -10.06z"/>
    </g>
    <g>
     <path class="fil3 str2" d="M426.86 182.56l0.53 -2.01c-0.63,-2.54 0.58,-1.4 -2.65,-4.61 -1.06,-1.06 -2.8,-3.2 -4.4,-3.54 -3.86,-0.81 -8.26,4.05 -6.71,7.21 -0.52,0.7 -0.66,0.45 -1.19,1.66 -0.83,1.92 -2.03,2.08 -2.91,2.59 -1.22,0.72 -0.73,1.87 -2.55,3.28 -0.49,0.37 -1.26,0.57 -1.76,0.92 -0.94,0.66 -0.91,2.39 -2.62,3.37 -0.62,0.36 -1.09,0.35 -1.62,0.92 -0.54,0.58 -0.63,1.36 -1.16,1.97 -2.93,3.45 -5.26,-0.77 -9.62,2.18 -2.15,1.45 -0.72,0.05 -1.7,0.53 -0.61,0.56 -2.21,2.1 -2.62,2.8l2.3 2.28c0.02,0.03 0.05,0.08 0.07,0.12l-34.12 34.17c-5.6,5.68 -11.41,11.27 -17.04,17.08 -5.23,5.38 -10.77,14.86 -13.78,22.92 2.36,-0.68 7,-3 9.67,-4.27 1.53,-0.73 7.44,-4.38 9.05,-5.66 0.88,-0.7 1.6,-1.22 2.42,-2 2.96,-2.81 5.85,-5.96 8.79,-8.82 6.98,-6.76 15.14,-15.09 22.13,-22.16l13.25 -13.24c1.1,-1.08 8.38,-8.55 8.93,-8.82 0.86,0.65 1.57,1.78 2.47,2.28 0.81,-0.64 2.03,-2.15 2.67,-2.48 -0.04,-0.94 -0.31,-0.18 -0.07,-0.96 0.1,-0.32 0.98,-1.17 1.45,-3.09 0.58,-2.3 -0.21,-2.84 -0.22,-4.13 -0.02,-1.62 1.09,-3.07 2.1,-3.59 2.5,-1.3 1.08,-1 2.75,-2.92 1.38,-1.59 2.22,-1.22 2.98,-2.29 1.05,-1.49 0.98,-2.26 2.57,-2.97 2.27,-0.99 1.16,-1.4 2.61,-2.92 0.52,-0.55 0.9,-0.84 1.48,-1.14 0.97,-0.5 0.74,-0.36 1.61,-1.21 4.17,1.17 5.38,-1.9 6.91,-3.45z"/>
     <path class="fil4" d="M325.62 274.12l6.84 -3.14c0.62,-0.4 0.71,-0.47 1.28,-0.76 4.62,-2.3 8.16,-4.97 11.88,-8.67l47.25 -47.31c0.78,-0.74 3.86,-3.71 4.27,-4.42 -0.96,-0.61 -2.79,-2.71 -3.71,-3.6 -1.24,-1.2 -2.42,-2.56 -3.69,-3.61 -0.81,0.49 -30.5,30.48 -33.42,33.37 -5.6,5.53 -11.04,11.2 -16.68,16.71 -5.72,5.6 -10.92,13.65 -14.02,21.43z"/>
     <path class="fil4" d="M401.04 210.96c-0.35,0.41 -0.59,0.78 -1.1,1.02l-12.3 -12.24 0.96 -1.1c0.77,0.47 11.78,11.59 12.44,12.32z"/>
     <path class="fil4" d="M400.89 210.23c-1.06,-1.03 -10.71,-10.47 -11.43,-11.49 1.73,-1.92 5.27,-3.37 7.83,-0.77 1.79,1.81 5.26,4.74 5.65,6.47 0.46,2.03 -0.62,4.65 -2.05,5.79z"/>
     <path class="fil4" d="M402.51 201.95c-1.01,-0.01 -2.14,-1.45 -2.85,-2.2 -0.88,-0.93 -2.26,-1.59 -1.73,-2.8 1.1,0.02 2.89,2.24 4.12,3.42 0.61,0.59 0.8,0.78 0.46,1.58z"/>
     <path class="fil4" d="M405.42 198.23c-1.77,1.46 -1.73,1.75 -2.44,2.38l-3.99 -3.91c0.67,-0.48 1.82,-1.43 2.35,-2.43l4.08 3.96z"/>
     <path class="fil4" d="M401.93 192.99c1.11,-0.09 2.83,2.16 3.99,3.28 0.35,0.34 1.2,0.89 0.61,1.46 -0.68,0.65 -2.17,-1.29 -2.7,-1.82 -1.53,-1.52 -2.32,-1.84 -1.9,-2.92z"/>
     <path class="fil4" d="M409.42 194.21l-2.47 2.4 -3.96 -3.92c0.55,-0.25 1.92,-1.6 2.35,-2.44l4.08 3.96z"/>
     <path class="fil4" d="M410.53 193.78c-0.86,0.13 -1.45,-0.74 -2.62,-1.95 -1.46,-1.5 -2.27,-1.76 -1.97,-2.84 1.09,-0.41 2.61,1.79 4,3.1 0.6,0.57 1.13,0.84 0.59,1.69z"/>
     <path class="fil4" d="M413.52 190.13c-0.82,0.66 -1.65,1.28 -2.36,2.45l-4.04 -3.96c0.36,-0.34 0.79,-0.66 1.24,-1.08 0.42,-0.4 0.77,-1 1.19,-1.33l3.97 3.92z"/>
     <path class="fil4" d="M414.55 189.83c-1.05,0.04 -1.9,-1.24 -2.68,-2.01 -0.47,-0.47 -2.55,-2.08 -1.92,-2.73 0.57,-0.58 1.09,0.13 1.48,0.55 0.44,0.47 0.85,0.81 1.3,1.26 1.43,1.46 2.31,1.9 1.82,2.93z"/>
     <path class="fil4" d="M417.42 186.25c-0.76,0.65 -1.71,1.22 -2.27,2.37 -1.48,-1.09 -2.62,-2.74 -4.07,-3.93 0.3,-0.34 0.73,-0.64 1.17,-1.08 0.47,-0.45 0.83,-0.98 1.26,-1.36 0.7,0.55 1.34,1.28 1.97,1.91 0.5,0.49 1.62,1.51 1.94,2.09z"/>
     <path class="fil4" d="M424.35 183.51c-0.51,0.88 -1.36,1.35 -2.26,1.52 -0.38,0.07 -3.04,-0.34 -3.19,-0.4 -0.06,-0.03 -4.25,-3.95 -3.95,-4.03 0.05,-0.01 -0.01,-0.11 -0.01,-0.14 -0.1,-2.29 -1.16,-2.87 0.95,-5.12 0.55,0.36 1.6,1.48 2.07,1.95 0.71,0.69 1.37,1.41 2.07,2.09 0.98,0.97 3.4,3.61 4.32,4.13z"/>
     <path class="fil4" d="M413.66 181.69c0.58,-1.76 1.98,0.3 2.57,0.89 0.49,0.49 2.42,2.12 2.46,2.64 0.22,2.62 -5.02,-3.52 -5.03,-3.53z"/>
     <path class="fil4" d="M424.76 182.63l-0.54 0.51c-1.18,-1.17 -7.19,-6.96 -7.71,-7.82l0.59 -0.39 7.66 7.7z"/>
     <path class="fil4" d="M425.35 182.53l-8.25 -8.16c0.6,-0.59 2.2,-1.21 3.56,-0.57 0.5,0.24 4.64,4.31 5.05,4.88 0.68,0.94 0.34,2.59 -0.36,3.85z"/>
     <path class="fil5" d="M364.94 236.52c-4.69,4.58 -9.26,9.24 -13.87,13.89 -4.07,4.1 -9.46,9.7 -14.47,12.75 2.65,-4.64 9.23,-11.05 13.1,-14.86 11.5,-11.29 23,-23.25 34.46,-34.51 1.44,-1.4 5.67,-5.82 6.84,-6.75l-0.41 2.07 2.05 -0.39 -27.7 27.8z"/>
    </g>
    <g>
     <path class="fil3 str2" d="M468.76 262.15l1.47 -1.47c0.74,-2.51 1.2,-0.92 0.03,-5.32 -0.39,-1.45 -0.81,-4.17 -2.03,-5.27 -2.93,-2.65 -9.17,-0.66 -9.42,2.86 -0.8,0.34 -0.8,0.05 -1.86,0.83 -1.69,1.24 -2.8,0.78 -3.82,0.78 -1.42,0 -1.58,1.25 -3.85,1.55 -0.61,0.08 -1.38,-0.14 -1.99,-0.09 -1.15,0.1 -1.98,1.61 -3.96,1.6 -0.72,-0.01 -1.11,-0.25 -1.87,-0.02 -0.75,0.23 -1.22,0.85 -1.98,1.12 -4.27,1.51 -4.16,-3.32 -9.41,-2.96 -2.6,0.18 -0.65,-0.32 -1.74,-0.39 -0.81,0.17 -2.97,0.7 -3.68,1.1l0.85 3.13c0,0.03 0,0.09 0,0.13l-46.68 12.38c-7.7,2.09 -15.53,4.01 -23.32,6.19 -7.23,2.03 -16.78,7.44 -23.44,12.89 2.39,0.6 7.56,0.92 10.52,1.17 1.68,0.14 8.63,-0.05 10.66,-0.34 1.12,-0.16 2,-0.25 3.1,-0.51 3.97,-0.95 8.05,-2.22 12.03,-3.2 9.43,-2.34 20.67,-5.44 30.27,-8.03l18.11 -4.78c1.5,-0.39 11.55,-3.18 12.16,-3.14 0.41,1 0.46,2.33 0.98,3.22 1.03,-0.15 2.84,-0.84 3.57,-0.8 0.43,-0.83 -0.18,-0.32 0.42,-0.87 0.25,-0.23 1.43,-0.52 2.8,-1.94 1.66,-1.7 1.25,-2.56 1.88,-3.68 0.81,-1.42 2.49,-2.11 3.63,-2.05 2.81,0.13 1.43,-0.32 3.84,-1.14 2,-0.68 2.53,0.06 3.73,-0.48 1.65,-0.76 1.99,-1.46 3.72,-1.27 2.45,0.28 1.7,-0.64 3.72,-1.22 0.73,-0.21 1.21,-0.27 1.86,-0.24 1.09,0.06 0.82,0.06 1.99,-0.24 3.03,3.11 5.61,1.07 7.71,0.5z"/>
     <path class="fil4" d="M335.21 290.38l7.5 0.73c0.73,-0.04 0.84,-0.06 1.48,-0.02 5.15,0.33 9.56,-0.19 14.63,-1.52l64.63 -17.13c1.04,-0.25 5.2,-1.26 5.91,-1.68 -0.52,-1.01 -1.05,-3.74 -1.39,-4.97 -0.47,-1.66 -0.81,-3.43 -1.38,-4.98 -0.94,0.01 -41.69,11.02 -45.66,12.04 -7.62,1.96 -15.17,4.13 -22.82,6.06 -7.77,1.96 -16.31,6.3 -22.9,11.47z"/>
     <path class="fil4" d="M432.17 273.71c-0.52,0.18 -0.91,0.38 -1.47,0.33l-4.48 -16.76 1.38 -0.47c0.44,0.79 4.35,15.94 4.57,16.9z"/>
     <path class="fil4" d="M432.4 273c-0.4,-1.42 -3.99,-14.43 -4.1,-15.67 2.46,-0.8 6.24,-0.26 7.16,3.27 0.63,2.47 2.16,6.74 1.62,8.43 -0.62,1.99 -2.87,3.71 -4.68,3.97z"/>
     <path class="fil4" d="M437.96 266.67c-0.87,-0.52 -1.12,-2.34 -1.36,-3.34 -0.29,-1.25 -1.15,-2.51 -0.08,-3.29 0.94,0.57 1.37,3.39 1.84,5.03 0.23,0.82 0.3,1.08 -0.4,1.6z"/>
     <path class="fil4" d="M442.35 264.91c-2.27,0.38 -2.38,0.65 -3.31,0.83l-1.48 -5.38c0.82,-0.09 2.29,-0.33 3.26,-0.93l1.53 5.48z"/>
     <path class="fil4" d="M441.97 258.63c1.01,0.48 1.36,3.28 1.8,4.84 0.13,0.47 0.58,1.37 -0.21,1.57 -0.92,0.22 -1.23,-2.21 -1.42,-2.94 -0.56,-2.08 -1.08,-2.75 -0.17,-3.47z"/>
     <path class="fil4" d="M447.83 263.44l-3.34 0.84 -1.46 -5.38c0.6,0.06 2.47,-0.42 3.26,-0.92l1.54 5.46z"/>
     <path class="fil4" d="M449.01 263.64c-0.82,-0.32 -0.88,-1.38 -1.29,-3.01 -0.51,-2.03 -1.08,-2.66 -0.28,-3.45 1.15,0.2 1.36,2.86 1.9,4.7 0.24,0.79 0.56,1.29 -0.33,1.76z"/>
     <path class="fil4" d="M453.43 261.99c-1.05,0.16 -2.08,0.27 -3.28,0.93l-1.5 -5.46c0.49,-0.11 1.02,-0.17 1.62,-0.31 0.56,-0.13 1.17,-0.48 1.69,-0.55l1.47 5.39z"/>
     <path class="fil4" d="M454.47 262.24c-0.93,-0.49 -1.03,-2.02 -1.31,-3.08 -0.17,-0.64 -1.16,-3.08 -0.28,-3.33 0.78,-0.21 0.87,0.67 1,1.22 0.14,0.63 0.33,1.13 0.48,1.74 0.51,1.99 1.05,2.81 0.11,3.45z"/>
     <path class="fil4" d="M458.74 260.59c-0.98,0.18 -2.08,0.19 -3.15,0.91 -0.73,-1.69 -0.88,-3.69 -1.54,-5.44 0.43,-0.14 0.95,-0.19 1.56,-0.34 0.62,-0.16 1.21,-0.44 1.77,-0.55 0.32,0.83 0.51,1.78 0.74,2.64 0.19,0.67 0.64,2.12 0.62,2.78z"/>
     <path class="fil4" d="M466.12 261.71c-0.89,0.5 -1.86,0.48 -2.72,0.17 -0.36,-0.13 -2.46,-1.82 -2.56,-1.95 -0.04,-0.05 -1.69,-5.55 -1.39,-5.46 0.05,0.01 0.05,-0.1 0.06,-0.13 1.07,-2.03 0.45,-3.07 3.4,-3.95 0.29,0.59 0.64,2.08 0.81,2.73 0.26,0.95 0.48,1.91 0.74,2.85 0.36,1.32 1.12,4.83 1.66,5.74z"/>
     <path class="fil4" d="M457.79 254.76c1.38,-1.23 1.56,1.25 1.77,2.06 0.18,0.67 1.03,3.05 0.81,3.52 -1.14,2.38 -2.58,-5.57 -2.58,-5.58z"/>
     <path class="fil4" d="M466.9 261.16l-0.71 0.16c-0.43,-1.6 -2.71,-9.63 -2.73,-10.64l0.71 -0.04 2.73 10.52z"/>
     <path class="fil4" d="M467.47 261.37l-3.03 -11.21c0.81,-0.21 2.52,0.06 3.37,1.3 0.31,0.46 1.84,6.06 1.91,6.75 0.11,1.16 -1.02,2.42 -2.25,3.16z"/>
     <path class="fil5" d="M388.11 277.65c-6.36,1.61 -12.65,3.33 -18.98,5.03 -5.58,1.5 -13.06,3.63 -18.92,3.75 4.62,-2.68 13.54,-4.92 18.8,-6.26 15.62,-3.98 31.57,-8.53 47.14,-12.5 1.94,-0.49 7.83,-2.18 9.3,-2.4l-1.39 1.59 1.97 0.69 -37.92 10.1z"/>
    </g>
    <g>
     <path class="fil3 str2" d="M351.02 465.07l-0.54 2.01c-1.81,1.89 -0.2,1.5 -4.6,2.67 -1.45,0.38 -4.02,1.37 -5.58,0.86 -3.75,-1.22 -5.13,-7.63 -2.2,-9.6 -0.1,-0.86 -0.35,-0.72 -0.2,-2.03 0.23,-2.08 -0.72,-2.81 -1.23,-3.7 -0.7,-1.23 0.3,-1.99 -0.57,-4.11 -0.23,-0.57 -0.81,-1.12 -1.06,-1.68 -0.49,-1.04 0.41,-2.52 -0.59,-4.23 -0.36,-0.62 -0.76,-0.84 -0.94,-1.61 -0.18,-0.77 0.13,-1.49 -0.01,-2.28 -0.82,-4.45 -4.95,-1.96 -7.25,-6.7 -1.13,-2.33 -0.6,-0.4 -1.2,-1.31 -0.26,-0.78 -0.87,-2.92 -0.88,-3.74l3.14 -0.82c0.02,-0.01 0.08,-0.04 0.11,-0.06l-12.45 -46.66c-2.02,-7.72 -4.25,-15.47 -6.22,-23.31 -1.84,-7.28 -1.89,-18.26 -0.47,-26.75 1.7,1.78 4.56,6.11 6.24,8.55 0.95,1.39 4.25,7.51 5,9.42 0.42,1.05 0.78,1.86 1.1,2.94 1.15,3.92 2.08,8.09 3.2,12.03 2.66,9.34 5.56,20.64 8.08,30.26l4.86 18.09c0.41,1.49 2.98,11.6 3.32,12.11 1.07,-0.14 2.25,-0.76 3.28,-0.75 0.38,0.97 0.68,2.88 1.07,3.49 -0.5,0.79 -0.35,0 -0.54,0.8 -0.07,0.33 0.26,1.5 -0.29,3.4 -0.65,2.28 -1.6,2.35 -2.25,3.46 -0.83,1.4 -0.6,3.21 0.01,4.16 1.52,2.38 0.44,1.41 0.93,3.91 0.4,2.06 1.31,2.16 1.43,3.47 0.17,1.81 -0.28,2.45 0.75,3.86 1.46,1.99 0.3,1.79 0.79,3.83 0.18,0.74 0.37,1.18 0.72,1.73 0.59,0.92 0.46,0.68 0.78,1.85 4.21,1.08 3.72,4.34 4.26,6.44z"/>
     <path class="fil4" d="M309.13 335.15l4.36 6.15c0.34,0.65 0.38,0.76 0.73,1.29 2.84,4.31 4.58,8.39 5.96,13.46l17.26 64.59c0.29,1.03 1.49,5.14 1.48,5.97 -1.14,0.05 -3.77,0.95 -5.01,1.26 -1.67,0.42 -3.38,1 -5,1.28 -0.46,-0.83 -11.17,-41.65 -12.26,-45.61 -2.08,-7.59 -3.96,-15.22 -6.08,-22.81 -2.16,-7.72 -2.64,-17.28 -1.44,-25.58z"/>
     <path class="fil4" d="M342.87 427.57c-0.1,-0.53 -0.12,-0.97 -0.45,-1.43l-16.77 4.45 0.28 1.42c0.91,-0.01 16,-4.15 16.94,-4.44z"/>
     <path class="fil4" d="M342.37 428.12c-1.43,0.36 -14.51,3.72 -15.64,4.24 0.53,2.53 2.88,5.55 6.4,4.58 2.46,-0.67 6.92,-1.47 8.12,-2.77 1.42,-1.53 1.8,-4.34 1.12,-6.05z"/>
     <path class="fil4" d="M339.64 436.1c-0.88,-0.49 -2.58,0.19 -3.57,0.49 -1.23,0.36 -2.75,0.24 -2.9,1.55 0.96,0.54 3.63,-0.49 5.28,-0.9 0.83,-0.2 1.08,-0.27 1.19,-1.14z"/>
     <path class="fil4" d="M340.3 440.78c-0.8,-2.15 -0.63,-2.38 -0.93,-3.28l-5.4 1.39c0.33,0.75 0.85,2.15 0.81,3.29l5.52 -1.4z"/>
     <path class="fil4" d="M334.66 443.58c0.91,0.63 3.52,-0.46 5.09,-0.85 0.47,-0.12 1.48,-0.18 1.26,-0.96 -0.26,-0.91 -2.53,0.03 -3.26,0.23 -2.07,0.55 -2.92,0.43 -3.09,1.58z"/>
     <path class="fil4" d="M341.75 446.27l-0.94 -3.32 -5.39 1.41c0.35,0.5 0.86,2.35 0.82,3.29l5.51 -1.38z"/>
     <path class="fil4" d="M342.5 447.19c-0.68,-0.55 -1.63,-0.08 -3.25,0.38 -2.01,0.57 -2.84,0.38 -3.13,1.48 0.75,0.89 3.16,-0.25 5.02,-0.69 0.8,-0.19 1.4,-0.16 1.36,-1.17z"/>
     <path class="fil4" d="M343.26 451.85c-0.37,-0.99 -0.79,-1.94 -0.82,-3.3l-5.48 1.4c0.15,0.48 0.36,0.97 0.54,1.57 0.16,0.55 0.17,1.24 0.36,1.74l5.4 -1.41z"/>
     <path class="fil4" d="M344 452.63c-0.88,-0.57 -2.27,0.11 -3.32,0.39 -0.64,0.17 -3.25,0.53 -3.03,1.41 0.2,0.79 1.01,0.43 1.56,0.26 0.61,-0.19 1.14,-0.27 1.75,-0.44 1.97,-0.55 2.95,-0.49 3.04,-1.62z"/>
     <path class="fil4" d="M344.69 457.15c-0.33,-0.94 -0.86,-1.9 -0.77,-3.18 -1.83,0.2 -3.64,1.07 -5.49,1.36 0.09,0.45 0.31,0.93 0.48,1.53 0.17,0.62 0.22,1.27 0.4,1.81 0.88,-0.14 1.8,-0.44 2.66,-0.67 0.68,-0.18 2.17,-0.5 2.72,-0.85z"/>
     <path class="fil4" d="M349.33 463c-0.01,-1.02 -0.5,-1.85 -1.2,-2.45 -0.29,-0.25 -2.8,-1.23 -2.96,-1.25 -0.06,-0.01 -5.66,1.3 -5.44,1.52 0.04,0.03 -0.06,0.09 -0.08,0.11 -1.22,1.93 -2.44,1.91 -1.73,4.91 0.65,-0.04 2.12,-0.48 2.77,-0.65 0.95,-0.25 1.89,-0.53 2.83,-0.78 1.33,-0.34 4.76,-1.42 5.81,-1.41z"/>
     <path class="fil4" d="M339.16 459.23c-0.38,1.81 1.87,0.73 2.67,0.51 0.67,-0.18 3.16,-0.62 3.45,-1.05 1.5,-2.17 -6.11,0.53 -6.12,0.54z"/>
     <path class="fil4" d="M349.24 463.96l-0.21 -0.71c-1.6,0.42 -9.7,2.44 -10.59,2.92l0.32 0.64 10.48 -2.85z"/>
     <path class="fil4" d="M349.71 464.34l-11.23 2.95c0.22,0.8 1.3,2.15 2.8,2.27 0.55,0.04 6.18,-1.41 6.81,-1.7 1.06,-0.48 1.59,-2.08 1.62,-3.52z"/>
     <path class="fil5" d="M324.39 387.38c-1.77,-6.31 -3.4,-12.63 -5.07,-18.96 -1.47,-5.59 -3.35,-13.14 -6.15,-18.28 -0.03,5.34 2.46,14.19 3.91,19.42 4.31,15.53 8.29,31.64 12.59,47.12 0.54,1.93 2,7.88 2.54,9.26l0.68 -1.99 1.58 1.36 -10.08 -37.93z"/>
    </g>
    <g>
     <path class="fil3 str2" d="M427.11 417.1l0.54 2.01c-0.62,2.54 0.58,1.4 -2.64,4.62 -1.05,1.06 -2.79,3.21 -4.38,3.55 -3.87,0.83 -8.28,-4.02 -6.74,-7.19 -0.52,-0.69 -0.66,-0.44 -1.19,-1.65 -0.84,-1.92 -2.04,-2.07 -2.92,-2.59 -1.22,-0.71 -0.74,-1.86 -2.56,-3.26 -0.49,-0.38 -1.27,-0.57 -1.76,-0.91 -0.95,-0.66 -0.92,-2.39 -2.64,-3.37 -0.62,-0.36 -1.09,-0.35 -1.62,-0.92 -0.54,-0.57 -0.64,-1.35 -1.16,-1.96 -2.94,-3.44 -5.26,0.79 -9.63,-2.15 -2.16,-1.45 -0.73,-0.05 -1.7,-0.53 -0.62,-0.55 -2.22,-2.09 -2.64,-2.79l2.3 -2.28c0.01,-0.03 0.04,-0.08 0.07,-0.12l-34.23 -34.06c-5.63,-5.66 -11.45,-11.23 -17.1,-17.02 -5.25,-5.37 -10.82,-14.83 -13.86,-22.88 2.36,0.67 7.01,2.98 9.69,4.24 1.53,0.73 7.45,4.36 9.06,5.63 0.89,0.7 1.61,1.21 2.43,1.99 2.97,2.81 5.87,5.95 8.82,8.79 7,6.74 15.19,15.04 22.2,22.09l13.29 13.19c1.11,1.08 8.42,8.53 8.96,8.8 0.86,-0.65 1.57,-1.79 2.47,-2.29 0.81,0.64 2.03,2.14 2.68,2.47 -0.04,0.94 -0.31,0.18 -0.07,0.96 0.1,0.32 0.98,1.17 1.46,3.09 0.59,2.3 -0.2,2.84 -0.21,4.12 -0.01,1.63 1.1,3.07 2.11,3.59 2.51,1.29 1.09,1 2.76,2.91 1.39,1.58 2.23,1.21 2.99,2.28 1.05,1.48 0.99,2.26 2.59,2.96 2.26,0.99 1.16,1.4 2.61,2.92 0.53,0.55 0.91,0.83 1.49,1.13 0.97,0.5 0.74,0.36 1.61,1.21 4.17,-1.19 5.39,1.88 6.92,3.42z"/>
     <path class="fil4" d="M325.57 325.87l6.86 3.12c0.61,0.4 0.7,0.47 1.27,0.75 4.63,2.3 8.18,4.95 11.92,8.64l47.4 47.15c0.78,0.74 3.87,3.7 4.28,4.41 -0.96,0.61 -2.78,2.72 -3.7,3.61 -1.23,1.21 -2.41,2.57 -3.67,3.62 -0.82,-0.48 -30.6,-30.38 -33.53,-33.25 -5.62,-5.52 -11.08,-11.17 -16.74,-16.66 -5.74,-5.59 -10.96,-13.62 -14.09,-21.39z"/>
     <path class="fil4" d="M401.2 388.79c-0.35,-0.41 -0.6,-0.78 -1.11,-1.02l-12.26 12.28 0.96 1.1c0.78,-0.48 11.75,-11.64 12.41,-12.36z"/>
     <path class="fil4" d="M401.05 389.52c-1.06,1.03 -10.67,10.51 -11.39,11.52 1.73,1.92 5.28,3.35 7.84,0.75 1.78,-1.82 5.24,-4.76 5.62,-6.49 0.45,-2.03 -0.63,-4.65 -2.07,-5.78z"/>
     <path class="fil4" d="M402.7 397.79c-1.01,0.01 -2.14,1.46 -2.85,2.21 -0.88,0.93 -2.25,1.59 -1.71,2.8 1.1,-0.02 2.88,-2.25 4.11,-3.43 0.61,-0.59 0.79,-0.78 0.45,-1.58z"/>
     <path class="fil4" d="M405.62 401.5c-1.77,-1.46 -1.74,-1.74 -2.45,-2.37l-3.97 3.92c0.66,0.48 1.82,1.43 2.36,2.43l4.06 -3.98z"/>
     <path class="fil4" d="M402.15 406.75c1.11,0.09 2.82,-2.16 3.98,-3.29 0.35,-0.34 1.19,-0.9 0.6,-1.47 -0.68,-0.65 -2.16,1.31 -2.7,1.84 -1.52,1.52 -2.31,1.85 -1.88,2.92z"/>
     <path class="fil4" d="M409.63 405.51l-2.47 -2.39 -3.95 3.93c0.54,0.25 1.92,1.6 2.36,2.43l4.06 -3.97z"/>
     <path class="fil4" d="M410.75 405.93c-0.87,-0.13 -1.45,0.75 -2.62,1.96 -1.46,1.51 -2.27,1.77 -1.96,2.85 1.09,0.4 2.6,-1.8 3.99,-3.11 0.6,-0.57 1.13,-0.84 0.59,-1.7z"/>
     <path class="fil4" d="M413.75 409.57c-0.82,-0.66 -1.66,-1.27 -2.37,-2.44l-4.03 3.97c0.36,0.35 0.8,0.66 1.25,1.09 0.42,0.39 0.77,0.99 1.19,1.32l3.96 -3.94z"/>
     <path class="fil4" d="M414.78 409.87c-1.05,-0.04 -1.9,1.24 -2.68,2.02 -0.46,0.47 -2.54,2.09 -1.9,2.74 0.56,0.58 1.09,-0.14 1.47,-0.56 0.44,-0.47 0.85,-0.81 1.29,-1.26 1.43,-1.47 2.31,-1.91 1.82,-2.94z"/>
     <path class="fil4" d="M417.66 413.44c-0.76,-0.65 -1.71,-1.21 -2.28,-2.36 -1.48,1.09 -2.61,2.75 -4.06,3.94 0.31,0.34 0.74,0.64 1.18,1.07 0.47,0.46 0.83,0.99 1.26,1.37 0.7,-0.56 1.34,-1.29 1.97,-1.92 0.49,-0.49 1.62,-1.52 1.93,-2.1z"/>
     <path class="fil4" d="M424.6 416.16c-0.52,-0.87 -1.36,-1.35 -2.27,-1.51 -0.38,-0.07 -3.03,0.34 -3.19,0.41 -0.05,0.02 -4.23,3.96 -3.93,4.04 0.04,0.01 -0.01,0.11 -0.01,0.14 -0.09,2.29 -1.15,2.88 0.97,5.12 0.54,-0.37 1.59,-1.49 2.06,-1.96 0.7,-0.69 1.37,-1.41 2.06,-2.1 0.98,-0.97 3.39,-3.62 4.31,-4.14z"/>
     <path class="fil4" d="M413.91 418.02c0.59,1.75 1.98,-0.31 2.57,-0.91 0.49,-0.49 2.42,-2.12 2.46,-2.64 0.2,-2.63 -5.02,3.54 -5.03,3.55z"/>
     <path class="fil4" d="M425.01 417.03l-0.54 -0.5c-1.18,1.17 -7.17,6.98 -7.69,7.85l0.6 0.39 7.63 -7.74z"/>
     <path class="fil4" d="M425.61 417.13l-8.23 8.19c0.6,0.59 2.21,1.21 3.56,0.56 0.5,-0.24 4.63,-4.33 5.03,-4.89 0.68,-0.95 0.33,-2.6 -0.36,-3.86z"/>
     <path class="fil5" d="M365.02 363.34c-4.71,-4.56 -9.3,-9.2 -13.92,-13.84 -4.08,-4.09 -9.5,-9.67 -14.51,-12.71 2.66,4.63 9.26,11.03 13.15,14.82 11.53,11.26 23.07,23.18 34.57,34.4 1.44,1.4 5.69,5.8 6.86,6.73l-0.42 -2.07 2.05 0.39 -27.78 -27.72z"/>
    </g>
   </g>
   <g>
    <g>
     <path class="fil3 str2" d="M131.36 261.68l-1.47 -1.47c-0.73,-2.52 -1.2,-0.93 -0.01,-5.32 0.39,-1.45 0.83,-4.17 2.05,-5.26 2.94,-2.64 9.17,-0.63 9.41,2.89 0.8,0.34 0.8,0.06 1.86,0.84 1.68,1.25 2.79,0.79 3.81,0.8 1.42,0 1.57,1.25 3.85,1.56 0.61,0.08 1.38,-0.14 1.98,-0.08 1.15,0.1 1.98,1.62 3.96,1.61 0.72,0 1.12,-0.24 1.87,-0.01 0.75,0.23 1.22,0.86 1.98,1.13 4.26,1.52 4.17,-3.3 9.42,-2.92 2.59,0.19 0.65,-0.32 1.74,-0.39 0.81,0.18 2.96,0.72 3.67,1.12l-0.85 3.12c-0.01,0.03 -0.01,0.09 -0.01,0.14l46.63 12.56c7.69,2.12 15.52,4.07 23.29,6.28 7.22,2.06 16.75,7.51 23.39,12.99 -2.38,0.58 -7.56,0.89 -10.52,1.12 -1.68,0.13 -8.62,-0.08 -10.65,-0.38 -1.13,-0.17 -2,-0.26 -3.1,-0.52 -3.97,-0.96 -8.05,-2.25 -12.02,-3.25 -9.42,-2.37 -20.65,-5.52 -30.24,-8.15l-18.09 -4.85c-1.5,-0.39 -11.54,-3.23 -12.14,-3.19 -0.43,0.99 -0.48,2.33 -1.01,3.22 -1.02,-0.16 -2.83,-0.86 -3.55,-0.82 -0.44,-0.83 0.18,-0.31 -0.42,-0.87 -0.25,-0.23 -1.43,-0.53 -2.8,-1.95 -1.65,-1.71 -1.24,-2.57 -1.87,-3.69 -0.79,-1.42 -2.48,-2.12 -3.61,-2.07 -2.82,0.13 -1.44,-0.32 -3.84,-1.15 -1.99,-0.68 -2.53,0.06 -3.73,-0.5 -1.65,-0.76 -1.98,-1.46 -3.71,-1.28 -2.46,0.27 -1.7,-0.64 -3.72,-1.23 -0.73,-0.22 -1.2,-0.28 -1.85,-0.25 -1.1,0.05 -0.82,0.06 -2,-0.25 -3.03,3.1 -5.61,1.05 -7.7,0.47z"/>
     <path class="fil4" d="M264.79 290.44l-7.5 0.7c-0.73,-0.04 -0.85,-0.06 -1.48,-0.02 -5.15,0.31 -9.56,-0.23 -14.63,-1.58l-64.56 -17.39c-1.04,-0.25 -5.2,-1.28 -5.91,-1.7 0.53,-1 1.07,-3.74 1.42,-4.97 0.47,-1.66 0.82,-3.42 1.39,-4.97 0.95,0.02 41.65,11.18 45.62,12.22 7.62,1.99 15.16,4.19 22.8,6.15 7.76,1.99 16.28,6.37 22.85,11.56z"/>
     <path class="fil4" d="M167.9 273.39c0.51,0.18 0.91,0.38 1.47,0.33l4.54 -16.74 -1.38 -0.48c-0.44,0.8 -4.41,15.93 -4.63,16.89z"/>
     <path class="fil4" d="M167.67 272.68c0.41,-1.42 4.04,-14.42 4.16,-15.66 -2.45,-0.8 -6.24,-0.28 -7.17,3.25 -0.64,2.46 -2.18,6.73 -1.66,8.42 0.62,1.99 2.86,3.72 4.67,3.99z"/>
     <path class="fil4" d="M162.13 266.32c0.87,-0.51 1.13,-2.33 1.37,-3.33 0.3,-1.24 1.17,-2.5 0.1,-3.29 -0.94,0.57 -1.38,3.39 -1.86,5.03 -0.24,0.81 -0.31,1.07 0.39,1.59z"/>
     <path class="fil4" d="M157.75 264.55c2.27,0.38 2.37,0.65 3.3,0.84l1.51 -5.37c-0.82,-0.09 -2.29,-0.34 -3.26,-0.94l-1.55 5.47z"/>
     <path class="fil4" d="M158.16 258.27c-1.01,0.47 -1.37,3.28 -1.82,4.83 -0.13,0.47 -0.59,1.37 0.21,1.57 0.91,0.23 1.23,-2.2 1.42,-2.93 0.57,-2.08 1.09,-2.75 0.19,-3.47z"/>
     <path class="fil4" d="M152.28 263.06l3.34 0.85 1.47 -5.37c-0.6,0.05 -2.46,-0.43 -3.25,-0.94l-1.56 5.46z"/>
     <path class="fil4" d="M151.1 263.25c0.82,-0.32 0.88,-1.37 1.3,-3 0.52,-2.03 1.09,-2.66 0.29,-3.45 -1.15,0.2 -1.37,2.85 -1.92,4.69 -0.24,0.79 -0.56,1.29 0.33,1.76z"/>
     <path class="fil4" d="M146.69 261.58c1.04,0.17 2.07,0.28 3.27,0.94l1.52 -5.45c-0.49,-0.11 -1.02,-0.17 -1.62,-0.32 -0.56,-0.13 -1.16,-0.48 -1.69,-0.55l-1.48 5.38z"/>
     <path class="fil4" d="M145.64 261.83c0.94,-0.48 1.04,-2.02 1.32,-3.08 0.18,-0.64 1.18,-3.08 0.3,-3.32 -0.78,-0.22 -0.88,0.66 -1,1.21 -0.15,0.63 -0.34,1.13 -0.5,1.74 -0.51,1.99 -1.05,2.8 -0.12,3.45z"/>
     <path class="fil4" d="M141.38 260.16c0.98,0.19 2.08,0.2 3.14,0.93 0.74,-1.69 0.9,-3.69 1.57,-5.44 -0.43,-0.15 -0.96,-0.19 -1.56,-0.35 -0.63,-0.16 -1.21,-0.44 -1.77,-0.56 -0.32,0.83 -0.52,1.78 -0.75,2.64 -0.19,0.68 -0.65,2.12 -0.63,2.78z"/>
     <path class="fil4" d="M134 261.25c0.88,0.5 1.85,0.49 2.72,0.19 0.36,-0.13 2.46,-1.81 2.56,-1.94 0.04,-0.05 1.71,-5.55 1.41,-5.46 -0.05,0.01 -0.05,-0.11 -0.06,-0.14 -1.06,-2.02 -0.43,-3.06 -3.38,-3.96 -0.3,0.59 -0.65,2.09 -0.82,2.73 -0.27,0.95 -0.49,1.91 -0.75,2.85 -0.37,1.32 -1.15,4.83 -1.68,5.73z"/>
     <path class="fil4" d="M142.35 254.33c-1.38,-1.23 -1.56,1.25 -1.78,2.06 -0.18,0.67 -1.04,3.04 -0.82,3.51 1.13,2.39 2.6,-5.56 2.6,-5.57z"/>
     <path class="fil4" d="M133.21 260.69l0.72 0.18c0.44,-1.61 2.75,-9.63 2.77,-10.64l-0.71 -0.04 -2.78 10.5z"/>
     <path class="fil4" d="M132.64 260.91l3.08 -11.2c-0.81,-0.21 -2.52,0.05 -3.37,1.29 -0.31,0.45 -1.87,6.05 -1.94,6.74 -0.12,1.16 1,2.42 2.23,3.17z"/>
     <path class="fil5" d="M211.94 277.51c6.35,1.63 12.64,3.37 18.96,5.1 5.57,1.52 13.04,3.68 18.9,3.83 -4.61,-2.7 -13.51,-4.98 -18.77,-6.34 -15.6,-4.04 -31.54,-8.66 -47.09,-12.68 -1.94,-0.51 -7.82,-2.22 -9.29,-2.44l1.38 1.59 -1.97 0.68 37.88 10.26z"/>
    </g>
    <g>
     <path class="fil3 str2" d="M248.56 134.78l0.53 -2.01c1.82,-1.89 0.21,-1.5 4.61,-2.67 1.45,-0.38 4.02,-1.36 5.58,-0.86 3.75,1.23 5.13,7.63 2.2,9.6 0.1,0.86 0.35,0.72 0.2,2.03 -0.23,2.08 0.72,2.81 1.22,3.7 0.71,1.23 -0.29,1.99 0.58,4.11 0.23,0.57 0.81,1.13 1.06,1.68 0.49,1.04 -0.41,2.52 0.59,4.24 0.36,0.61 0.76,0.84 0.94,1.6 0.18,0.77 -0.13,1.49 0.01,2.28 0.82,4.46 4.95,1.96 7.25,6.7 1.13,2.34 0.6,0.41 1.2,1.31 0.26,0.79 0.87,2.93 0.87,3.74l-3.13 0.82c-0.02,0.01 -0.08,0.04 -0.11,0.07l12.45 46.65c2.02,7.72 4.25,15.47 6.22,23.31 1.84,7.28 1.89,18.26 0.47,26.75 -1.7,-1.77 -4.56,-6.1 -6.24,-8.55 -0.95,-1.39 -4.25,-7.5 -5,-9.41 -0.42,-1.06 -0.78,-1.86 -1.1,-2.95 -1.15,-3.92 -2.08,-8.09 -3.2,-12.03 -2.66,-9.34 -5.56,-20.64 -8.08,-30.26l-4.86 -18.08c-0.41,-1.5 -2.98,-11.61 -3.32,-12.11 -1.07,0.13 -2.25,0.75 -3.28,0.74 -0.38,-0.97 -0.68,-2.88 -1.07,-3.49 0.5,-0.79 0.35,0 0.54,-0.8 0.07,-0.32 -0.26,-1.5 0.28,-3.4 0.66,-2.28 1.61,-2.35 2.26,-3.46 0.83,-1.4 0.6,-3.2 -0.02,-4.16 -1.51,-2.37 -0.44,-1.41 -0.92,-3.9 -0.4,-2.07 -1.31,-2.17 -1.43,-3.48 -0.17,-1.81 0.27,-2.45 -0.75,-3.85 -1.46,-2 -0.3,-1.8 -0.79,-3.84 -0.18,-0.74 -0.37,-1.18 -0.72,-1.73 -0.59,-0.92 -0.46,-0.68 -0.78,-1.85 -4.21,-1.08 -3.72,-4.33 -4.26,-6.44z"/>
     <path class="fil4" d="M290.44 264.7l-4.35 -6.15c-0.34,-0.65 -0.38,-0.76 -0.73,-1.29 -2.84,-4.31 -4.58,-8.39 -5.96,-13.45l-17.26 -64.6c-0.29,-1.03 -1.49,-5.14 -1.48,-5.97 1.14,-0.04 3.77,-0.94 5.01,-1.26 1.67,-0.42 3.38,-1 5,-1.28 0.46,0.83 11.17,41.65 12.26,45.61 2.08,7.59 3.96,15.22 6.08,22.82 2.16,7.71 2.64,17.28 1.43,25.57z"/>
     <path class="fil4" d="M256.71 172.28c0.1,0.54 0.12,0.98 0.45,1.44l16.77 -4.45 -0.28 -1.43c-0.91,0.02 -16,4.15 -16.94,4.44z"/>
     <path class="fil4" d="M257.21 171.73c1.43,-0.36 14.51,-3.72 15.64,-4.24 -0.53,-2.53 -2.88,-5.55 -6.4,-4.58 -2.46,0.67 -6.92,1.48 -8.12,2.78 -1.42,1.52 -1.8,4.34 -1.12,6.04z"/>
     <path class="fil4" d="M259.94 163.75c0.88,0.49 2.58,-0.19 3.57,-0.48 1.23,-0.36 2.75,-0.25 2.9,-1.56 -0.96,-0.54 -3.63,0.49 -5.28,0.9 -0.83,0.2 -1.08,0.27 -1.19,1.14z"/>
     <path class="fil4" d="M259.28 159.07c0.8,2.15 0.63,2.38 0.93,3.28l5.4 -1.39c-0.33,-0.75 -0.85,-2.15 -0.81,-3.28l-5.52 1.39z"/>
     <path class="fil4" d="M264.92 156.28c-0.91,-0.64 -3.52,0.45 -5.09,0.84 -0.47,0.12 -1.48,0.18 -1.26,0.97 0.26,0.9 2.53,-0.04 3.26,-0.23 2.07,-0.56 2.92,-0.44 3.09,-1.58z"/>
     <path class="fil4" d="M257.83 153.59l0.94 3.31 5.39 -1.41c-0.35,-0.49 -0.86,-2.35 -0.82,-3.29l-5.51 1.39z"/>
     <path class="fil4" d="M257.08 152.66c0.68,0.55 1.63,0.08 3.25,-0.38 2.01,-0.56 2.84,-0.38 3.13,-1.47 -0.75,-0.9 -3.16,0.24 -5.02,0.68 -0.8,0.19 -1.4,0.16 -1.36,1.17z"/>
     <path class="fil4" d="M256.32 148c0.37,0.99 0.79,1.94 0.82,3.31l5.48 -1.41c-0.15,-0.48 -0.36,-0.97 -0.54,-1.56 -0.16,-0.56 -0.17,-1.25 -0.36,-1.74l-5.4 1.4z"/>
     <path class="fil4" d="M255.58 147.23c0.88,0.56 2.27,-0.12 3.32,-0.4 0.64,-0.17 3.25,-0.53 3.03,-1.41 -0.2,-0.78 -1.01,-0.43 -1.56,-0.26 -0.62,0.19 -1.14,0.27 -1.75,0.44 -1.97,0.56 -2.95,0.49 -3.04,1.63z"/>
     <path class="fil4" d="M254.88 142.7c0.33,0.94 0.87,1.9 0.78,3.18 1.83,-0.2 3.64,-1.06 5.49,-1.36 -0.09,-0.45 -0.31,-0.93 -0.48,-1.52 -0.17,-0.63 -0.22,-1.27 -0.4,-1.82 -0.88,0.14 -1.8,0.44 -2.66,0.67 -0.68,0.18 -2.17,0.5 -2.73,0.85z"/>
     <path class="fil4" d="M250.25 136.85c0.01,1.02 0.5,1.86 1.2,2.45 0.29,0.25 2.8,1.23 2.96,1.25 0.06,0.01 5.66,-1.29 5.44,-1.51 -0.04,-0.04 0.06,-0.09 0.08,-0.12 1.22,-1.93 2.44,-1.91 1.73,-4.91 -0.65,0.04 -2.12,0.48 -2.77,0.65 -0.95,0.25 -1.89,0.54 -2.83,0.78 -1.34,0.35 -4.76,1.43 -5.81,1.41z"/>
     <path class="fil4" d="M260.42 140.62c0.37,-1.8 -1.87,-0.72 -2.67,-0.51 -0.67,0.18 -3.16,0.62 -3.45,1.05 -1.5,2.17 6.11,-0.53 6.12,-0.54z"/>
     <path class="fil4" d="M250.34 135.9l0.21 0.7c1.6,-0.42 9.7,-2.43 10.59,-2.92l-0.32 -0.63 -10.48 2.85z"/>
     <path class="fil4" d="M249.87 135.51l11.23 -2.94c-0.22,-0.81 -1.3,-2.15 -2.8,-2.27 -0.55,-0.05 -6.18,1.41 -6.81,1.69 -1.06,0.48 -1.59,2.08 -1.62,3.52z"/>
     <path class="fil5" d="M275.19 212.47c1.77,6.31 3.4,12.63 5.07,18.97 1.47,5.58 3.35,13.13 6.15,18.27 0.03,-5.34 -2.46,-14.19 -3.91,-19.41 -4.31,-15.54 -8.29,-31.64 -12.59,-47.12 -0.54,-1.94 -2,-7.88 -2.54,-9.27l-0.68 2 -1.58 -1.37 10.08 37.93z"/>
    </g>
    <g>
     <path class="fil3 str2" d="M172.47 182.75l-0.54 -2c0.62,-2.55 -0.58,-1.4 2.64,-4.62 1.05,-1.06 2.78,-3.21 4.38,-3.56 3.87,-0.83 8.28,4.02 6.73,7.19 0.53,0.7 0.67,0.45 1.2,1.66 0.84,1.91 2.04,2.07 2.92,2.58 1.22,0.71 0.74,1.87 2.56,3.26 0.49,0.38 1.27,0.57 1.76,0.92 0.95,0.66 0.92,2.39 2.64,3.37 0.62,0.35 1.09,0.34 1.62,0.91 0.54,0.57 0.64,1.35 1.16,1.97 2.94,3.44 5.26,-0.8 9.63,2.14 2.16,1.45 0.72,0.05 1.7,0.53 0.62,0.55 2.22,2.09 2.64,2.79l-2.3 2.29c-0.01,0.02 -0.05,0.07 -0.07,0.11l34.23 34.06c5.63,5.66 11.45,11.24 17.1,17.02 5.25,5.37 10.82,14.83 13.86,22.89 -2.36,-0.68 -7.01,-2.98 -9.69,-4.25 -1.53,-0.72 -7.45,-4.35 -9.06,-5.62 -0.89,-0.71 -1.61,-1.22 -2.43,-2 -2.97,-2.8 -5.87,-5.94 -8.82,-8.79 -7,-6.73 -15.19,-15.04 -22.2,-22.09l-13.29 -13.19c-1.11,-1.08 -8.42,-8.53 -8.96,-8.8 -0.86,0.66 -1.57,1.79 -2.47,2.3 -0.81,-0.65 -2.03,-2.15 -2.68,-2.48 0.04,-0.93 0.31,-0.18 0.07,-0.96 -0.1,-0.32 -0.98,-1.17 -1.46,-3.08 -0.59,-2.31 0.2,-2.84 0.21,-4.13 0.01,-1.63 -1.1,-3.07 -2.11,-3.59 -2.51,-1.29 -1.09,-0.99 -2.76,-2.91 -1.39,-1.58 -2.23,-1.21 -2.99,-2.28 -1.06,-1.48 -0.99,-2.26 -2.59,-2.95 -2.26,-1 -1.16,-1.41 -2.61,-2.92 -0.53,-0.55 -0.91,-0.84 -1.49,-1.14 -0.97,-0.49 -0.74,-0.36 -1.61,-1.2 -4.17,1.18 -5.39,-1.88 -6.92,-3.43z"/>
     <path class="fil4" d="M274.01 273.98l-6.86 -3.12c-0.61,-0.39 -0.7,-0.47 -1.27,-0.75 -4.63,-2.29 -8.18,-4.95 -11.92,-8.63l-47.4 -47.16c-0.78,-0.74 -3.87,-3.69 -4.28,-4.41 0.96,-0.61 2.78,-2.72 3.7,-3.61 1.23,-1.2 2.41,-2.56 3.67,-3.62 0.82,0.48 30.6,30.38 33.53,33.26 5.62,5.51 11.08,11.16 16.74,16.66 5.74,5.58 10.96,13.61 14.09,21.38z"/>
     <path class="fil4" d="M198.38 211.06c0.35,0.42 0.59,0.79 1.11,1.02l12.25 -12.28 -0.95 -1.09c-0.78,0.47 -11.75,11.63 -12.41,12.35z"/>
     <path class="fil4" d="M198.53 210.34c1.06,-1.03 10.67,-10.51 11.39,-11.53 -1.73,-1.92 -5.28,-3.35 -7.84,-0.74 -1.78,1.82 -5.24,4.75 -5.62,6.48 -0.45,2.03 0.63,4.65 2.07,5.79z"/>
     <path class="fil4" d="M196.88 202.07c1.01,-0.02 2.14,-1.47 2.85,-2.22 0.87,-0.93 2.25,-1.59 1.71,-2.8 -1.1,0.02 -2.88,2.25 -4.11,3.44 -0.61,0.58 -0.79,0.77 -0.45,1.58z"/>
     <path class="fil4" d="M193.96 198.35c1.77,1.46 1.73,1.75 2.45,2.37l3.97 -3.91c-0.66,-0.49 -1.82,-1.44 -2.36,-2.44l-4.06 3.98z"/>
     <path class="fil4" d="M197.43 193.1c-1.11,-0.09 -2.82,2.17 -3.98,3.29 -0.35,0.34 -1.19,0.9 -0.6,1.47 0.68,0.65 2.16,-1.3 2.7,-1.84 1.52,-1.52 2.31,-1.84 1.88,-2.92z"/>
     <path class="fil4" d="M189.95 194.34l2.47 2.39 3.95 -3.93c-0.54,-0.24 -1.92,-1.59 -2.36,-2.43l-4.06 3.97z"/>
     <path class="fil4" d="M188.83 193.92c0.87,0.13 1.45,-0.75 2.62,-1.96 1.46,-1.5 2.26,-1.76 1.96,-2.85 -1.09,-0.4 -2.6,1.8 -3.99,3.12 -0.6,0.57 -1.13,0.84 -0.59,1.69z"/>
     <path class="fil4" d="M185.83 190.28c0.82,0.66 1.66,1.27 2.37,2.44l4.03 -3.97c-0.37,-0.35 -0.8,-0.66 -1.25,-1.08 -0.42,-0.4 -0.77,-1 -1.19,-1.32l-3.96 3.93z"/>
     <path class="fil4" d="M184.8 189.98c1.05,0.04 1.9,-1.24 2.67,-2.02 0.47,-0.46 2.55,-2.09 1.91,-2.74 -0.56,-0.57 -1.09,0.15 -1.47,0.56 -0.44,0.48 -0.85,0.81 -1.29,1.27 -1.43,1.46 -2.31,1.9 -1.82,2.93z"/>
     <path class="fil4" d="M181.92 186.41c0.76,0.65 1.71,1.21 2.28,2.37 1.48,-1.1 2.61,-2.76 4.06,-3.94 -0.31,-0.35 -0.74,-0.65 -1.18,-1.08 -0.47,-0.45 -0.83,-0.99 -1.26,-1.36 -0.7,0.56 -1.34,1.28 -1.97,1.91 -0.49,0.5 -1.62,1.52 -1.93,2.1z"/>
     <path class="fil4" d="M174.98 183.69c0.52,0.88 1.36,1.35 2.27,1.51 0.38,0.07 3.03,-0.34 3.19,-0.41 0.05,-0.02 4.23,-3.96 3.93,-4.04 -0.04,-0.01 0.01,-0.11 0.01,-0.14 0.09,-2.28 1.15,-2.87 -0.97,-5.12 -0.54,0.37 -1.59,1.49 -2.06,1.96 -0.7,0.69 -1.37,1.41 -2.06,2.1 -0.98,0.97 -3.4,3.63 -4.31,4.14z"/>
     <path class="fil4" d="M185.66 181.84c-0.58,-1.75 -1.97,0.31 -2.56,0.9 -0.49,0.49 -2.42,2.12 -2.46,2.64 -0.2,2.63 5.02,-3.53 5.02,-3.54z"/>
     <path class="fil4" d="M174.57 182.82l0.54 0.5c1.18,-1.17 7.17,-6.98 7.69,-7.85l-0.6 -0.38 -7.63 7.73z"/>
     <path class="fil4" d="M173.97 182.72l8.23 -8.19c-0.6,-0.59 -2.21,-1.2 -3.56,-0.55 -0.5,0.23 -4.63,4.32 -5.03,4.88 -0.68,0.95 -0.33,2.6 0.36,3.86z"/>
     <path class="fil5" d="M234.56 236.51c4.71,4.57 9.29,9.2 13.92,13.84 4.08,4.09 9.5,9.67 14.51,12.71 -2.66,-4.63 -9.26,-11.03 -13.15,-14.82 -11.53,-11.26 -23.07,-23.18 -34.57,-34.4 -1.44,-1.4 -5.69,-5.8 -6.86,-6.73l0.42 2.07 -2.05 -0.38 27.78 27.71z"/>
    </g>
    <g>
     <path class="fil3 str2" d="M172.96 417.36l-0.53 2.01c0.62,2.54 -0.58,1.4 2.65,4.61 1.06,1.05 2.8,3.2 4.4,3.53 3.86,0.82 8.26,-4.04 6.7,-7.21 0.53,-0.69 0.67,-0.44 1.2,-1.65 0.83,-1.92 2.02,-2.08 2.9,-2.6 1.23,-0.71 0.74,-1.87 2.56,-3.27 0.48,-0.38 1.26,-0.57 1.76,-0.92 0.94,-0.66 0.9,-2.39 2.62,-3.38 0.62,-0.35 1.09,-0.34 1.62,-0.92 0.54,-0.57 0.63,-1.35 1.15,-1.97 2.93,-3.45 5.27,0.78 9.63,-2.17 2.15,-1.46 0.72,-0.05 1.69,-0.54 0.62,-0.55 2.22,-2.1 2.63,-2.8l-2.3 -2.28c-0.02,-0.02 -0.05,-0.07 -0.07,-0.11l34.11 -34.17c5.61,-5.68 11.42,-11.28 17.05,-17.08 5.23,-5.39 10.76,-14.87 13.78,-22.93 -2.36,0.69 -7,3.01 -9.68,4.28 -1.52,0.73 -7.43,4.38 -9.04,5.65 -0.89,0.71 -1.6,1.23 -2.42,2.01 -2.96,2.81 -5.85,5.96 -8.79,8.81 -6.98,6.76 -15.14,15.1 -22.13,22.17l-13.25 13.23c-1.1,1.09 -8.38,8.56 -8.93,8.83 -0.86,-0.65 -1.57,-1.78 -2.47,-2.29 -0.81,0.65 -2.03,2.16 -2.68,2.49 0.04,0.93 0.32,0.18 0.07,0.96 -0.09,0.32 -0.97,1.17 -1.45,3.09 -0.57,2.3 0.22,2.84 0.23,4.12 0.02,1.63 -1.09,3.08 -2.1,3.6 -2.5,1.3 -1.08,1 -2.75,2.92 -1.38,1.59 -2.22,1.21 -2.98,2.29 -1.05,1.48 -0.98,2.26 -2.58,2.96 -2.26,1 -1.15,1.41 -2.6,2.93 -0.53,0.55 -0.91,0.84 -1.49,1.14 -0.97,0.5 -0.73,0.36 -1.6,1.21 -4.18,-1.17 -5.38,1.9 -6.91,3.45z"/>
     <path class="fil4" d="M274.2 325.79l-6.85 3.15c-0.61,0.39 -0.7,0.47 -1.27,0.75 -4.62,2.31 -8.17,4.98 -11.89,8.68l-47.24 47.3c-0.78,0.75 -3.87,3.71 -4.27,4.43 0.96,0.61 2.79,2.71 3.71,3.6 1.23,1.2 2.42,2.56 3.69,3.61 0.81,-0.49 30.5,-30.49 33.41,-33.37 5.61,-5.53 11.04,-11.2 16.69,-16.72 5.72,-5.6 10.91,-13.64 14.02,-21.43z"/>
     <path class="fil4" d="M198.77 388.96c0.36,-0.41 0.6,-0.78 1.11,-1.02l12.3 12.24 -0.96 1.1c-0.77,-0.47 -11.78,-11.6 -12.45,-12.32z"/>
     <path class="fil4" d="M198.93 389.69c1.06,1.02 10.7,10.47 11.43,11.49 -1.73,1.92 -5.27,3.36 -7.84,0.76 -1.79,-1.81 -5.25,-4.73 -5.64,-6.46 -0.46,-2.03 0.61,-4.66 2.05,-5.79z"/>
     <path class="fil4" d="M197.3 397.96c1.02,0.02 2.15,1.46 2.86,2.21 0.88,0.92 2.26,1.58 1.73,2.79 -1.1,-0.01 -2.89,-2.24 -4.13,-3.42 -0.61,-0.59 -0.8,-0.77 -0.46,-1.58z"/>
     <path class="fil4" d="M194.4 401.69c1.77,-1.47 1.73,-1.75 2.44,-2.38l3.98 3.9c-0.66,0.49 -1.81,1.44 -2.35,2.44l-4.07 -3.96z"/>
     <path class="fil4" d="M197.88 406.93c-1.11,0.09 -2.82,-2.16 -3.98,-3.28 -0.35,-0.34 -1.2,-0.9 -0.61,-1.47 0.68,-0.65 2.17,1.3 2.7,1.83 1.53,1.52 2.32,1.84 1.89,2.92z"/>
     <path class="fil4" d="M190.4 405.71l2.47 -2.4 3.96 3.92c-0.55,0.25 -1.92,1.6 -2.35,2.43l-4.08 -3.95z"/>
     <path class="fil4" d="M189.28 406.13c0.87,-0.13 1.45,0.75 2.63,1.96 1.46,1.5 2.27,1.75 1.97,2.84 -1.09,0.41 -2.61,-1.79 -4,-3.1 -0.6,-0.57 -1.14,-0.84 -0.6,-1.7z"/>
     <path class="fil4" d="M186.29 409.79c0.82,-0.67 1.66,-1.28 2.37,-2.45l4.04 3.95c-0.36,0.35 -0.79,0.67 -1.24,1.09 -0.43,0.4 -0.78,1 -1.19,1.33l-3.98 -3.92z"/>
     <path class="fil4" d="M185.27 410.09c1.05,-0.05 1.9,1.23 2.68,2.01 0.47,0.46 2.55,2.08 1.91,2.73 -0.56,0.58 -1.09,-0.14 -1.47,-0.55 -0.44,-0.48 -0.86,-0.81 -1.3,-1.26 -1.43,-1.47 -2.31,-1.9 -1.82,-2.93z"/>
     <path class="fil4" d="M182.4 413.67c0.76,-0.65 1.71,-1.22 2.27,-2.38 1.48,1.09 2.62,2.75 4.07,3.93 -0.31,0.34 -0.74,0.65 -1.18,1.08 -0.46,0.46 -0.82,0.99 -1.25,1.37 -0.7,-0.56 -1.34,-1.28 -1.98,-1.91 -0.49,-0.49 -1.62,-1.51 -1.93,-2.09z"/>
     <path class="fil4" d="M175.47 416.41c0.51,-0.88 1.36,-1.36 2.26,-1.52 0.38,-0.07 3.04,0.33 3.19,0.4 0.06,0.02 4.25,3.95 3.95,4.03 -0.05,0.01 0.01,0.11 0.01,0.14 0.09,2.28 1.16,2.87 -0.95,5.12 -0.55,-0.36 -1.6,-1.48 -2.08,-1.95 -0.7,-0.69 -1.37,-1.41 -2.06,-2.09 -0.98,-0.97 -3.41,-3.62 -4.32,-4.13z"/>
     <path class="fil4" d="M186.16 418.23c-0.58,1.75 -1.98,-0.3 -2.57,-0.89 -0.49,-0.49 -2.42,-2.12 -2.47,-2.64 -0.21,-2.63 5.03,3.52 5.04,3.53z"/>
     <path class="fil4" d="M175.06 417.28l0.54 -0.5c1.18,1.17 7.19,6.96 7.71,7.82l-0.59 0.39 -7.66 -7.71z"/>
     <path class="fil4" d="M174.46 417.38l8.26 8.16c-0.6,0.59 -2.21,1.22 -3.56,0.57 -0.5,-0.23 -4.65,-4.31 -5.05,-4.87 -0.68,-0.94 -0.34,-2.6 0.35,-3.86z"/>
     <path class="fil5" d="M234.88 363.4c4.68,-4.59 9.26,-9.24 13.87,-13.89 4.06,-4.1 9.46,-9.7 14.47,-12.76 -2.65,4.64 -9.23,11.06 -13.1,14.86 -11.5,11.3 -23,23.26 -34.47,34.51 -1.43,1.41 -5.67,5.83 -6.83,6.76l0.41 -2.07 -2.05 0.39 27.7 -27.8z"/>
    </g>
    <g>
     <path class="fil3 str2" d="M131.06 337.77l-1.47 1.47c-0.74,2.51 -1.21,0.92 -0.03,5.32 0.39,1.44 0.81,4.17 2.02,5.27 2.93,2.65 9.18,0.65 9.43,-2.87 0.8,-0.33 0.8,-0.05 1.86,-0.83 1.69,-1.23 2.8,-0.77 3.82,-0.78 1.41,0 1.57,-1.24 3.85,-1.54 0.61,-0.08 1.38,0.14 1.98,0.09 1.15,-0.1 1.99,-1.61 3.97,-1.6 0.71,0 1.11,0.25 1.86,0.02 0.76,-0.23 1.23,-0.86 1.99,-1.12 4.27,-1.51 4.16,3.31 9.41,2.95 2.59,-0.17 0.65,0.32 1.74,0.4 0.81,-0.17 2.97,-0.71 3.68,-1.1l-0.85 -3.13c0,-0.03 0,-0.09 0,-0.13l46.67 -12.39c7.7,-2.09 15.54,-4 23.32,-6.19 7.23,-2.02 16.78,-7.43 23.44,-12.89 -2.38,-0.59 -7.56,-0.92 -10.51,-1.16 -1.68,-0.14 -8.63,0.04 -10.66,0.34 -1.12,0.16 -2,0.25 -3.1,0.51 -3.97,0.94 -8.05,2.21 -12.03,3.2 -9.43,2.33 -20.68,5.43 -30.27,8.03l-18.11 4.78c-1.5,0.38 -11.55,3.18 -12.16,3.14 -0.42,-1 -0.46,-2.34 -0.99,-3.22 -1.02,0.15 -2.83,0.84 -3.56,0.8 -0.43,0.83 0.18,0.31 -0.42,0.87 -0.25,0.22 -1.43,0.52 -2.81,1.94 -1.65,1.7 -1.24,2.56 -1.88,3.68 -0.8,1.41 -2.49,2.11 -3.62,2.05 -2.81,-0.14 -1.44,0.32 -3.85,1.14 -1.99,0.67 -2.53,-0.07 -3.72,0.48 -1.66,0.75 -1.99,1.46 -3.72,1.27 -2.46,-0.28 -1.71,0.63 -3.72,1.22 -0.73,0.21 -1.21,0.27 -1.86,0.23 -1.09,-0.05 -0.82,-0.05 -1.99,0.24 -3.03,-3.11 -5.61,-1.06 -7.71,-0.49z"/>
     <path class="fil4" d="M264.61 309.54l-7.5 -0.73c-0.73,0.03 -0.85,0.05 -1.48,0.01 -5.15,-0.32 -9.56,0.2 -14.63,1.52l-64.63 17.14c-1.05,0.25 -5.21,1.26 -5.92,1.68 0.53,1 1.06,3.74 1.4,4.97 0.46,1.66 0.81,3.43 1.37,4.97 0.95,-0.01 41.69,-11.01 45.67,-12.03 7.62,-1.97 15.17,-4.13 22.82,-6.06 7.77,-1.96 16.3,-6.31 22.9,-11.47z"/>
     <path class="fil4" d="M167.65 326.21c0.52,-0.19 0.91,-0.38 1.47,-0.33l4.48 16.76 -1.38 0.47c-0.44,-0.8 -4.35,-15.94 -4.57,-16.9z"/>
     <path class="fil4" d="M167.42 326.91c0.4,1.42 3.99,14.44 4.1,15.68 -2.46,0.79 -6.25,0.26 -7.16,-3.28 -0.63,-2.46 -2.16,-6.73 -1.63,-8.42 0.63,-1.99 2.88,-3.72 4.69,-3.98z"/>
     <path class="fil4" d="M161.85 333.25c0.87,0.52 1.12,2.33 1.36,3.34 0.3,1.24 1.16,2.5 0.09,3.28 -0.94,-0.56 -1.37,-3.39 -1.84,-5.03 -0.24,-0.81 -0.3,-1.07 0.39,-1.59z"/>
     <path class="fil4" d="M157.47 335c2.26,-0.37 2.37,-0.64 3.3,-0.82l1.49 5.37c-0.82,0.09 -2.3,0.33 -3.26,0.93l-1.53 -5.48z"/>
     <path class="fil4" d="M157.85 341.29c-1.01,-0.48 -1.36,-3.29 -1.8,-4.84 -0.13,-0.47 -0.58,-1.38 0.21,-1.57 0.92,-0.23 1.22,2.21 1.42,2.93 0.55,2.08 1.08,2.76 0.17,3.48z"/>
     <path class="fil4" d="M151.99 336.47l3.34 -0.83 1.45 5.38c-0.59,-0.06 -2.46,0.42 -3.25,0.92l-1.54 -5.47z"/>
     <path class="fil4" d="M150.81 336.28c0.82,0.32 0.88,1.37 1.29,3.01 0.51,2.03 1.08,2.65 0.27,3.44 -1.15,-0.2 -1.35,-2.86 -1.89,-4.69 -0.24,-0.79 -0.57,-1.29 0.33,-1.76z"/>
     <path class="fil4" d="M146.39 337.93c1.04,-0.16 2.07,-0.27 3.27,-0.93l1.51 5.45c-0.49,0.12 -1.02,0.18 -1.62,0.32 -0.57,0.13 -1.17,0.47 -1.69,0.55l-1.47 -5.39z"/>
     <path class="fil4" d="M145.35 337.68c0.93,0.48 1.03,2.02 1.31,3.08 0.17,0.64 1.16,3.08 0.28,3.32 -0.78,0.22 -0.87,-0.66 -1,-1.22 -0.14,-0.63 -0.33,-1.12 -0.48,-1.74 -0.51,-1.98 -1.05,-2.8 -0.11,-3.44z"/>
     <path class="fil4" d="M141.08 339.33c0.98,-0.19 2.08,-0.2 3.15,-0.91 0.73,1.68 0.88,3.69 1.54,5.44 -0.43,0.14 -0.96,0.19 -1.56,0.34 -0.63,0.16 -1.21,0.44 -1.77,0.55 -0.32,-0.83 -0.52,-1.78 -0.75,-2.64 -0.18,-0.68 -0.64,-2.13 -0.61,-2.78z"/>
     <path class="fil4" d="M133.7 338.21c0.89,-0.5 1.86,-0.49 2.72,-0.18 0.36,0.14 2.46,1.82 2.56,1.95 0.03,0.05 1.69,5.55 1.38,5.47 -0.04,-0.01 -0.04,0.1 -0.06,0.13 -1.06,2.02 -0.44,3.06 -3.39,3.95 -0.3,-0.59 -0.64,-2.09 -0.82,-2.73 -0.25,-0.95 -0.47,-1.91 -0.73,-2.85 -0.36,-1.33 -1.12,-4.84 -1.66,-5.74z"/>
     <path class="fil4" d="M142.03 345.16c-1.38,1.22 -1.56,-1.26 -1.78,-2.07 -0.17,-0.66 -1.02,-3.04 -0.8,-3.51 1.14,-2.38 2.58,5.57 2.58,5.58z"/>
     <path class="fil4" d="M132.91 338.76l0.72 -0.17c0.43,1.61 2.71,9.64 2.73,10.65l-0.71 0.03 -2.74 -10.51z"/>
     <path class="fil4" d="M132.34 338.55l3.03 11.2c-0.81,0.21 -2.51,-0.06 -3.36,-1.3 -0.31,-0.45 -1.84,-6.06 -1.91,-6.75 -0.12,-1.16 1.01,-2.41 2.24,-3.15z"/>
     <path class="fil5" d="M211.71 322.26c6.36,-1.6 12.65,-3.32 18.98,-5.03 5.57,-1.5 13.06,-3.62 18.92,-3.75 -4.62,2.69 -13.54,4.92 -18.8,6.26 -15.62,3.98 -31.57,8.54 -47.14,12.5 -1.95,0.5 -7.83,2.19 -9.3,2.4l1.39 -1.58 -1.97 -0.69 37.92 -10.11z"/>
    </g>
   </g>
  </g>
  <path class="fil6" d="M214.82 69.14c0,2.27 -0.3,3.91 -0.89,4.9 -0.59,0.99 -1.49,1.61 -2.69,1.86 -1.2,0.25 -3.11,0.38 -5.73,0.38l-9.19 0 0 -30.53 15.56 0 0 5.29 -7.6 0 0 5.17 1.23 0c2.44,0 4.3,0.14 5.55,0.43 1.26,0.29 2.2,0.93 2.82,1.92 0.63,0.98 0.94,2.53 0.94,4.64l0 5.94zm-7.96 -0.92l0 -4.41c0,-1.29 -0.13,-2.07 -0.38,-2.34 -0.26,-0.28 -0.99,-0.44 -2.2,-0.47l0 10.03c1.01,0 1.69,-0.13 2.04,-0.38 0.36,-0.26 0.54,-1.07 0.54,-2.43zm24.47 -22.47l4.54 30.53 -8.12 0 -0.43 -5.48 -2.86 0 -0.43 5.48 -8.22 0 4.03 -30.53 11.49 0zm-4.22 19.65c-0.38,-3.47 -0.78,-7.75 -1.2,-12.87 -0.79,5.87 -1.28,10.16 -1.49,12.87l2.69 0zm10.12 -19.65l8 0c2.16,0 3.82,0.16 4.99,0.51 1.15,0.34 2.03,0.82 2.61,1.46 0.59,0.65 0.98,1.42 1.2,2.33 0.2,0.91 0.3,2.32 0.3,4.23l0 2.66c0,1.95 -0.2,3.37 -0.6,4.25 -0.4,0.9 -1.14,1.59 -2.21,2.06 -1.07,0.48 -2.48,0.72 -4.21,0.72l-2.13 0 0 12.31 -7.95 0 0 -30.53zm7.95 5.21l0 7.78c0.23,0.01 0.42,0.02 0.58,0.02 0.73,0 1.23,-0.18 1.52,-0.54 0.27,-0.36 0.41,-1.1 0.41,-2.24l0 -2.51c0,-1.04 -0.16,-1.73 -0.49,-2.04 -0.32,-0.32 -0.99,-0.47 -2.02,-0.47zm29.96 8.11l-7.95 0 0 -5.31c0,-1.54 -0.08,-2.5 -0.25,-2.89 -0.17,-0.37 -0.54,-0.57 -1.11,-0.57 -0.65,0 -1.06,0.23 -1.23,0.7 -0.18,0.47 -0.27,1.47 -0.27,3.01l0 14.17c0,1.49 0.09,2.45 0.27,2.91 0.17,0.45 0.56,0.68 1.17,0.68 0.58,0 0.97,-0.23 1.15,-0.69 0.18,-0.45 0.27,-1.51 0.27,-3.19l0 -3.84 7.95 0 0 1.19c0,3.16 -0.22,5.41 -0.67,6.73 -0.44,1.32 -1.43,2.48 -2.96,3.48 -1.53,0.99 -3.41,1.49 -5.65,1.49 -2.32,0 -4.24,-0.42 -5.75,-1.26 -1.5,-0.84 -2.51,-2.01 -3,-3.5 -0.49,-1.49 -0.73,-3.73 -0.73,-6.73l0 -8.91c0,-2.2 0.08,-3.85 0.23,-4.95 0.15,-1.1 0.59,-2.16 1.35,-3.18 0.74,-1.02 1.78,-1.82 3.1,-2.41 1.33,-0.58 2.85,-0.87 4.58,-0.87 2.33,0 4.26,0.45 5.79,1.36 1.52,0.9 2.52,2.02 3,3.37 0.47,1.36 0.71,3.45 0.71,6.3l0 2.91z"/>
  <path class="fil6" d="M346.69 50.09l-5.83 0 0 24.44 -7.95 0 0 -30.54 13.78 0 0 6.1zm9.64 -0.58l-0.14 2.22c0.69,-0.9 1.43,-1.57 2.25,-2.02 0.82,-0.44 1.71,-0.66 2.68,-0.66 1.18,0 2.2,0.31 3.07,0.95 0.85,0.64 1.39,1.37 1.6,2.2 0.22,0.83 0.33,2.24 0.33,4.23l0 10.54c0,2.28 -0.14,3.9 -0.41,4.86 -0.27,0.96 -0.82,1.73 -1.66,2.31 -0.84,0.57 -1.85,0.85 -3.03,0.85 -0.94,0 -1.81,-0.22 -2.62,-0.66 -0.8,-0.45 -1.54,-1.1 -2.21,-1.98l0 5.73 -7.6 0 0 -28.57 7.74 0zm2.18 7.28c0,-1.55 -0.06,-2.48 -0.17,-2.81 -0.11,-0.33 -0.43,-0.49 -0.95,-0.49 -0.51,0 -0.83,0.19 -0.98,0.56 -0.14,0.38 -0.22,1.29 -0.22,2.74l0 10.37c0,1.51 0.08,2.45 0.23,2.83 0.15,0.38 0.48,0.56 0.99,0.56 0.5,0 0.8,-0.17 0.92,-0.52 0.12,-0.34 0.18,-1.18 0.18,-2.51l0 -10.73zm17.15 -12.8l7.96 0 0.03 12.9c1.48,-0.04 2.24,-0.87 2.29,-2.49l0.15 -5.96c0.05,-2.2 0.47,-3.68 1.27,-4.45l7.34 0c-0.71,0.74 -1.06,2.28 -1.05,4.6l0.04 5.24c0.03,3.17 -1.75,4.97 -5.35,5.41 3.6,0.44 5.38,2.27 5.35,5.49l-0.04 4.86c-0.01,2.31 0.34,3.96 1.05,4.94l-7.34 0c-0.85,-0.77 -1.27,-2.25 -1.27,-4.45l0 -5.96c0,-0.75 -0.23,-1.36 -0.68,-1.82 -0.46,-0.45 -1.04,-0.69 -1.76,-0.7l-0.03 12.93 -7.96 0 0 -30.54z"/>
  <path class="fil6" d="M446.21 127.01c0,2.75 -0.06,4.7 -0.19,5.84 -0.13,1.15 -0.53,2.2 -1.22,3.15 -0.68,0.95 -1.6,1.68 -2.76,2.18 -1.17,0.51 -2.52,0.77 -4.06,0.77 -1.47,0 -2.78,-0.25 -3.95,-0.73 -1.17,-0.48 -2.11,-1.19 -2.81,-2.15 -0.71,-0.96 -1.14,-2.01 -1.27,-3.13 -0.14,-1.14 -0.21,-3.11 -0.21,-5.93l0 -4.7c0,-2.75 0.07,-4.7 0.2,-5.85 0.13,-1.15 0.53,-2.19 1.21,-3.14 0.69,-0.95 1.61,-1.68 2.77,-2.18 1.16,-0.51 2.52,-0.77 4.06,-0.77 1.47,0 2.78,0.25 3.95,0.72 1.16,0.48 2.11,1.2 2.81,2.16 0.71,0.96 1.13,2.01 1.27,3.13 0.14,1.14 0.2,3.11 0.2,5.93l0 4.7zm-7.14 -9.01c0,-1.28 -0.07,-2.09 -0.21,-2.45 -0.14,-0.35 -0.42,-0.53 -0.85,-0.53 -0.36,0 -0.64,0.14 -0.83,0.43 -0.2,0.29 -0.29,1.14 -0.29,2.55l0 12.8c0,1.59 0.06,2.57 0.19,2.94 0.12,0.37 0.42,0.56 0.88,0.56 0.48,0 0.78,-0.21 0.91,-0.64 0.14,-0.43 0.2,-1.45 0.2,-3.06l0 -12.6zm9.83 -7.07l7.18 0c1.94,0 3.43,0.15 4.48,0.45 1.04,0.31 1.83,0.75 2.35,1.32 0.53,0.58 0.88,1.28 1.07,2.09 0.19,0.82 0.28,2.09 0.28,3.81l0 2.38c0,1.75 -0.18,3.03 -0.54,3.82 -0.36,0.81 -1.03,1.43 -1.99,1.85 -0.96,0.43 -2.22,0.64 -3.78,0.64l-1.91 0 0 11.07 -7.14 0 0 -27.43zm7.14 4.68l0 6.99c0.2,0.01 0.38,0.01 0.52,0.01 0.65,0 1.1,-0.16 1.36,-0.48 0.25,-0.32 0.37,-0.99 0.37,-2.01l0 -2.26c0,-0.93 -0.14,-1.55 -0.43,-1.83 -0.29,-0.28 -0.9,-0.42 -1.82,-0.42zm30.65 27.46l-4.92 0 0 -4.71 -11.51 0 0 4.71 -4.93 0 0 -10.43 1.46 0c0.77,-2.25 1.4,-5.21 1.9,-8.87 0.49,-3.67 0.74,-7.67 0.74,-12.01l0 -0.83 15.81 0 0 21.67 1.45 0 0 10.47zm-8.6 -10.47l0 -16.26 -2.11 0 0 0.2c0,5.25 -0.57,10.6 -1.7,16.06l3.81 0zm10.82 -21.67l11.89 0 0 5.48 -4.75 0 0 5.23 4.44 0 0 5.2 -4.44 0 0 6.04 5.24 0 0 5.48 -12.38 0 0 -27.43zm30.77 0l0 27.43 -7.14 0 0 -11.52 -2.08 0 0 11.52 -7.14 0 0 -27.43 7.14 0 0 9.81 2.08 0 0 -9.81 7.14 0z"/>
  <path class="fil6" d="M92.13 115.64l0 18.83 -4.28 0 -0.02 -12.71 -1.7 12.71 -3 0 -1.8 -12.43 -0.01 12.43 -4.28 0 0 -18.83 6.33 0c0.17,1.14 0.37,2.48 0.58,4.01l0.69 4.78 1.12 -8.79 6.37 0zm10.42 0l2.8 18.83 -5 0 -0.27 -3.38 -1.76 0 -0.27 3.38 -5.06 0 2.48 -18.83 7.08 0zm-2.6 12.12c-0.23,-2.14 -0.48,-4.78 -0.74,-7.93 -0.48,3.61 -0.79,6.26 -0.92,7.93l1.66 0zm6.25 -12.12l3.46 0c2.31,0 3.87,0.09 4.69,0.26 0.82,0.18 1.48,0.64 2,1.37 0.52,0.73 0.77,1.9 0.77,3.51 0,1.46 -0.18,2.45 -0.54,2.95 -0.36,0.5 -1.08,0.81 -2.15,0.91 0.96,0.24 1.62,0.56 1.95,0.96 0.34,0.4 0.54,0.78 0.62,1.11 0.08,0.34 0.12,1.27 0.12,2.79l0 4.97 -4.54 0 0 -6.26c0,-1.01 -0.08,-1.63 -0.24,-1.88 -0.16,-0.24 -0.57,-0.36 -1.24,-0.36l0 8.5 -4.9 0 0 -18.83zm4.9 3.21l0 4.19c0.55,0 0.93,-0.07 1.15,-0.22 0.22,-0.15 0.33,-0.65 0.33,-1.47l0 -1.04c0,-0.6 -0.11,-0.99 -0.32,-1.18 -0.21,-0.19 -0.6,-0.28 -1.16,-0.28zm17.77 -3.21l0 3.76 -2.88 0 0 15.07 -4.9 0 0 -15.07 -2.91 0 0 -3.76 10.69 0zm6.03 0l0 18.83 -4.91 0 0 -18.83 4.91 0zm10.4 0l2.8 18.83 -5 0 -0.27 -3.38 -1.76 0 -0.27 3.38 -5.06 0 2.48 -18.83 7.08 0zm-2.6 12.12c-0.23,-2.14 -0.48,-4.78 -0.74,-7.93 -0.48,3.61 -0.79,6.26 -0.92,7.93l1.66 0zm17.17 -12.12l0 18.83 -4.28 0 -2.55 -8.56 0 8.56 -4.09 0 0 -18.83 4.09 0 2.74 8.48 0 -8.48 4.09 0zm12.33 5.71l-4.55 0 0 -1.39c0,-0.65 -0.06,-1.07 -0.18,-1.25 -0.11,-0.17 -0.3,-0.26 -0.57,-0.26 -0.3,0 -0.52,0.12 -0.67,0.36 -0.15,0.24 -0.23,0.6 -0.23,1.09 0,0.62 0.09,1.1 0.26,1.41 0.17,0.32 0.63,0.7 1.39,1.15 2.17,1.3 3.54,2.37 4.1,3.2 0.57,0.83 0.85,2.17 0.85,4.01 0,1.34 -0.16,2.33 -0.47,2.97 -0.32,0.63 -0.92,1.16 -1.82,1.59 -0.9,0.43 -1.94,0.65 -3.13,0.65 -1.31,0 -2.43,-0.25 -3.36,-0.75 -0.92,-0.49 -1.53,-1.13 -1.81,-1.89 -0.29,-0.77 -0.43,-1.86 -0.43,-3.27l0 -1.24 4.54 0 0 2.29c0,0.71 0.07,1.16 0.19,1.37 0.13,0.2 0.36,0.3 0.68,0.3 0.33,0 0.57,-0.13 0.73,-0.39 0.16,-0.25 0.24,-0.63 0.24,-1.13 0,-1.11 -0.15,-1.84 -0.45,-2.17 -0.32,-0.34 -1.08,-0.92 -2.29,-1.72 -1.22,-0.8 -2.02,-1.39 -2.42,-1.76 -0.39,-0.36 -0.72,-0.87 -0.98,-1.51 -0.26,-0.64 -0.39,-1.46 -0.39,-2.46 0,-1.44 0.19,-2.5 0.56,-3.16 0.36,-0.67 0.96,-1.19 1.78,-1.57 0.82,-0.38 1.81,-0.56 2.97,-0.56 1.27,0 2.35,0.2 3.25,0.61 0.89,0.42 1.48,0.93 1.77,1.56 0.29,0.62 0.44,1.68 0.44,3.18l0 0.74z"/>
  <path class="fil6" d="M31.17 239.75l-5.97 0 0 -18.34 -1.74 0 0 12.98c0,1.71 -0.22,2.93 -0.66,3.68 -0.44,0.75 -1.11,1.21 -2,1.4 -0.9,0.19 -2.32,0.28 -4.28,0.28l-0.94 0 0 -3.94c0.73,0 1.23,-0.09 1.51,-0.27 0.27,-0.18 0.41,-0.79 0.41,-1.84l0 -16.86 13.67 0 0 22.91zm2.38 -22.91l9.93 0 0 4.57 -3.96 0 0 4.38 3.7 0 0 4.34 -3.7 0 0 5.05 4.37 0 0 4.57 -10.34 0 0 -22.91zm22.38 4.57l-4.38 0 0 18.34 -5.97 0 0 -22.91 10.35 0 0 4.57zm14.87 18.34l-4.99 0 0 -10.42 -3.1 10.42 -5.18 0 0 -22.91 4.98 0 0 10.34 3.33 -10.34 4.96 0 0 22.91zm15.99 -9.48c0,2.3 -0.05,3.93 -0.17,4.89 -0.1,0.96 -0.44,1.83 -1.01,2.62 -0.57,0.8 -1.34,1.4 -2.31,1.83 -0.97,0.42 -2.1,0.64 -3.39,0.64 -1.23,0 -2.33,-0.21 -3.3,-0.61 -0.98,-0.4 -1.76,-1 -2.35,-1.8 -0.6,-0.8 -0.95,-1.67 -1.06,-2.62 -0.12,-0.94 -0.17,-2.59 -0.17,-4.95l0 -3.92c0,-2.3 0.05,-3.93 0.16,-4.89 0.11,-0.96 0.44,-1.83 1.01,-2.62 0.57,-0.8 1.35,-1.4 2.32,-1.83 0.97,-0.42 2.1,-0.64 3.39,-0.64 1.22,0 2.32,0.21 3.3,0.61 0.97,0.4 1.76,1 2.35,1.8 0.59,0.8 0.94,1.67 1.06,2.62 0.11,0.94 0.17,2.59 0.17,4.95l0 3.92zm-5.97 -7.53c0,-1.06 -0.06,-1.74 -0.17,-2.04 -0.12,-0.29 -0.36,-0.44 -0.71,-0.44 -0.31,0 -0.54,0.12 -0.7,0.36 -0.16,0.23 -0.25,0.94 -0.25,2.12l0 10.7c0,1.33 0.06,2.15 0.16,2.46 0.11,0.31 0.36,0.46 0.74,0.46 0.4,0 0.65,-0.17 0.77,-0.53 0.11,-0.36 0.16,-1.21 0.16,-2.56l0 -10.53zm21.88 -5.9l0 22.91 -5.96 0 0 -9.62 -1.74 0 0 9.62 -5.97 0 0 -22.91 5.97 0 0 8.2 1.74 0 0 -8.2 5.96 0z"/>
  <path class="fil6" d="M57.25 245.11l0 4.97 -3.65 17.95 -5.68 0 4.07 -18.81 -5.67 0 0 -4.11 10.93 0zm12.35 9.95c0.86,0.3 1.5,0.77 1.93,1.44 0.42,0.66 0.63,2.22 0.63,4.67 0,1.83 -0.21,3.24 -0.62,4.24 -0.42,1.01 -1.13,1.77 -2.15,2.29 -1.02,0.53 -2.32,0.79 -3.92,0.79 -1.8,0 -3.23,-0.3 -4.25,-0.91 -1.04,-0.61 -1.72,-1.36 -2.04,-2.24 -0.33,-0.88 -0.49,-2.42 -0.49,-4.6l0 -1.81 5.71 0 0 3.73c0,0.99 0.06,1.62 0.18,1.89 0.11,0.27 0.38,0.41 0.78,0.41 0.45,0 0.74,-0.17 0.88,-0.52 0.14,-0.33 0.21,-1.22 0.21,-2.66l0 -1.59c0,-0.87 -0.09,-1.52 -0.29,-1.92 -0.2,-0.41 -0.49,-0.67 -0.88,-0.8 -0.38,-0.13 -1.13,-0.2 -2.24,-0.22l0 -3.33c1.35,0 2.19,-0.06 2.51,-0.16 0.32,-0.1 0.55,-0.33 0.69,-0.68 0.14,-0.35 0.21,-0.89 0.21,-1.63l0 -1.27c0,-0.81 -0.08,-1.33 -0.24,-1.59 -0.17,-0.25 -0.43,-0.38 -0.77,-0.38 -0.4,0 -0.68,0.13 -0.82,0.4 -0.15,0.27 -0.22,0.84 -0.22,1.72l0 1.88 -5.71 0 0 -1.95c0,-2.19 0.5,-3.66 1.5,-4.43 1,-0.77 2.59,-1.15 4.77,-1.15 2.72,0 4.57,0.53 5.54,1.59 0.97,1.07 1.46,2.55 1.46,4.45 0,1.28 -0.17,2.21 -0.52,2.78 -0.35,0.57 -0.97,1.09 -1.84,1.56z"/>
  <path class="fil6" d="M496.58 222.27l7.09 0c2.25,0 3.95,0.17 5.1,0.53 1.16,0.34 2.09,1.05 2.8,2.12 0.71,1.07 1.06,2.78 1.06,5.15 0,1.6 -0.25,2.72 -0.75,3.35 -0.5,0.64 -1.5,1.12 -2.98,1.46 1.66,0.37 2.78,0.99 3.37,1.85 0.59,0.87 0.88,2.19 0.88,3.98l0 2.55c0,1.85 -0.21,3.22 -0.63,4.12 -0.42,0.89 -1.1,1.5 -2.02,1.83 -0.92,0.33 -2.82,0.49 -5.69,0.49l-8.23 0 0 -27.43zm7.14 4.68l0 6.11c0.3,-0.02 0.53,-0.02 0.7,-0.02 0.68,0 1.12,-0.17 1.31,-0.52 0.19,-0.34 0.28,-1.33 0.28,-2.95 0,-0.87 -0.08,-1.47 -0.23,-1.81 -0.16,-0.34 -0.36,-0.56 -0.61,-0.66 -0.25,-0.08 -0.73,-0.14 -1.45,-0.15zm0 10.37l0 7.7c0.98,-0.03 1.61,-0.19 1.88,-0.47 0.28,-0.29 0.41,-0.99 0.41,-2.1l0 -2.56c0,-1.18 -0.12,-1.89 -0.36,-2.15 -0.25,-0.25 -0.89,-0.38 -1.93,-0.42zm24.31 -15.05l4.08 27.43 -7.29 0 -0.39 -4.92 -2.57 0 -0.38 4.92 -7.39 0 3.62 -27.43 10.32 0zm-3.79 17.65c-0.34,-3.11 -0.7,-6.96 -1.08,-11.55 -0.7,5.27 -1.15,9.12 -1.34,11.55l2.42 0zm9.09 -17.65l7.19 0c1.94,0 3.43,0.15 4.48,0.46 1.04,0.3 1.82,0.74 2.35,1.32 0.53,0.57 0.88,1.27 1.07,2.09 0.18,0.82 0.28,2.08 0.28,3.8l0 2.39c0,1.74 -0.18,3.02 -0.55,3.82 -0.35,0.8 -1.02,1.42 -1.98,1.85 -0.96,0.43 -2.22,0.64 -3.78,0.64l-1.91 0 0 11.06 -7.15 0 0 -27.43zm7.15 4.68l0 6.99c0.2,0.01 0.37,0.02 0.52,0.02 0.65,0 1.1,-0.16 1.36,-0.49 0.25,-0.32 0.37,-0.99 0.37,-2l0 -2.26c0,-0.94 -0.14,-1.55 -0.44,-1.84 -0.29,-0.28 -0.89,-0.42 -1.81,-0.42zm22.64 0.8l-5.23 0 0 21.95 -7.15 0 0 -27.43 12.38 0 0 5.48zm17.8 21.95l-5.97 0 0 -12.48 -3.71 12.48 -6.2 0 0 -27.43 5.96 0 0 12.38 3.99 -12.38 5.93 0 0 27.43z"/>
  <path class="fil6" d="M507.16 352.34l0 4.68 -3.59 0 0 18.76 -6.1 0 0 -18.76 -3.62 0 0 -4.68 13.31 0zm11.91 0l3.48 23.44 -6.22 0 -0.33 -4.21 -2.2 0 -0.33 4.21 -6.31 0 3.09 -23.44 8.82 0zm-3.24 15.08c-0.29,-2.66 -0.6,-5.95 -0.92,-9.87 -0.6,4.5 -0.98,7.79 -1.15,9.87l2.07 0zm21.76 -15.08l0 23.44 -6.11 0 0 -9.84 -1.78 0 0 9.84 -6.1 0 0 -23.44 6.1 0 0 8.38 1.78 0 0 -8.38 6.11 0zm14.73 0l0 4.68 -3.59 0 0 18.76 -6.1 0 0 -18.76 -3.62 0 0 -4.68 13.31 0zm11.91 0l3.48 23.44 -6.22 0 -0.34 -4.21 -2.19 0 -0.33 4.21 -6.31 0 3.09 -23.44 8.82 0zm-3.24 15.08c-0.29,-2.66 -0.6,-5.95 -0.92,-9.87 -0.6,4.5 -0.98,7.79 -1.15,9.87l2.07 0zm22.65 8.36l-6.11 0 0 -18.76 -1.78 0 0 13.27c0,1.75 -0.22,3 -0.67,3.76 -0.46,0.77 -1.14,1.24 -2.05,1.43 -0.92,0.2 -2.38,0.3 -4.38,0.3l-0.96 0 0 -4.03c0.75,0 1.26,-0.1 1.54,-0.28 0.28,-0.18 0.42,-0.81 0.42,-1.88l0 -17.25 13.99 0 0 23.44z"/>
  <path class="fil6" d="M25 352.79l3.34 22.49 -5.97 0 -0.32 -4.04 -2.11 0 -0.32 4.04 -6.05 0 2.97 -22.49 8.46 0zm-3.11 14.47c-0.28,-2.55 -0.57,-5.7 -0.88,-9.47 -0.58,4.32 -0.95,7.48 -1.1,9.47l1.98 0zm25.48 -14.47l0 22.49 -5.12 0 -0.01 -15.18 -2.03 15.18 -3.58 0 -2.15 -14.84 -0.02 14.84 -5.11 0 0 -22.49 7.55 0c0.22,1.36 0.45,2.96 0.7,4.79l0.83 5.71 1.33 -10.5 7.61 0zm12.45 0l3.34 22.49 -5.97 0 -0.32 -4.04 -2.11 0 -0.32 4.04 -6.05 0 2.97 -22.49 8.46 0zm-3.11 14.47c-0.28,-2.55 -0.57,-5.7 -0.88,-9.47 -0.58,4.32 -0.95,7.48 -1.1,9.47l1.98 0zm7.46 -14.47l5.89 0c1.59,0 2.81,0.12 3.67,0.37 0.85,0.25 1.5,0.62 1.93,1.08 0.43,0.48 0.72,1.05 0.87,1.72 0.16,0.67 0.23,1.71 0.23,3.12l0 1.95c0,1.44 -0.15,2.48 -0.44,3.14 -0.3,0.66 -0.84,1.16 -1.63,1.51 -0.79,0.35 -1.82,0.53 -3.1,0.53l-1.57 0 0 9.07 -5.85 0 0 -22.49zm5.85 3.84l0 5.73c0.17,0.01 0.31,0.01 0.43,0.01 0.54,0 0.9,-0.13 1.11,-0.4 0.21,-0.26 0.31,-0.81 0.31,-1.64l0 -1.85c0,-0.77 -0.12,-1.27 -0.36,-1.51 -0.24,-0.23 -0.73,-0.34 -1.49,-0.34zm21.75 9.34c0,2.26 -0.05,3.86 -0.16,4.8 -0.1,0.94 -0.43,1.8 -0.99,2.58 -0.56,0.77 -1.32,1.37 -2.27,1.79 -0.95,0.41 -2.06,0.62 -3.33,0.62 -1.2,0 -2.28,-0.2 -3.24,-0.59 -0.95,-0.39 -1.72,-0.98 -2.3,-1.77 -0.59,-0.78 -0.93,-1.64 -1.05,-2.57 -0.1,-0.92 -0.16,-2.55 -0.16,-4.86l0 -3.85c0,-2.26 0.05,-3.85 0.16,-4.79 0.1,-0.94 0.44,-1.8 1,-2.58 0.55,-0.78 1.31,-1.37 2.26,-1.79 0.96,-0.42 2.07,-0.63 3.33,-0.63 1.2,0 2.28,0.2 3.24,0.6 0.95,0.39 1.73,0.98 2.31,1.76 0.58,0.79 0.92,1.65 1.04,2.57 0.11,0.93 0.16,2.55 0.16,4.86l0 3.85zm-5.85 -7.39c0,-1.04 -0.06,-1.71 -0.17,-2 -0.12,-0.29 -0.35,-0.44 -0.7,-0.44 -0.3,0 -0.53,0.12 -0.69,0.36 -0.15,0.23 -0.23,0.93 -0.23,2.08l0 10.5c0,1.3 0.05,2.11 0.15,2.41 0.11,0.31 0.35,0.46 0.73,0.46 0.39,0 0.64,-0.17 0.75,-0.52 0.1,-0.35 0.16,-1.19 0.16,-2.51l0 -10.34zm8.05 -5.79l5.86 0 0.03 9.5c1.08,-0.03 1.64,-0.64 1.68,-1.84l0.11 -4.39c0.04,-1.61 0.35,-2.71 0.94,-3.27l5.4 0c-0.52,0.54 -0.78,1.68 -0.77,3.39l0.03 3.85c0.02,2.34 -1.29,3.67 -3.94,3.99 2.65,0.32 3.96,1.67 3.94,4.04l-0.03 3.58c-0.01,1.71 0.25,2.92 0.77,3.64l-5.4 0c-0.63,-0.56 -0.94,-1.66 -0.94,-3.28l0 -4.38c0,-0.56 -0.17,-1.01 -0.5,-1.34 -0.33,-0.34 -0.77,-0.52 -1.29,-0.53l-0.03 9.53 -5.86 0 0 -22.49z"/>
  <path class="fil6" d="M439.36 473.59l-5.58 0 0 -3.72c0,-1.08 -0.06,-1.76 -0.17,-2.03 -0.12,-0.26 -0.38,-0.4 -0.78,-0.4 -0.46,0 -0.74,0.16 -0.87,0.49 -0.12,0.33 -0.18,1.03 -0.18,2.11l0 9.94c0,1.04 0.06,1.72 0.18,2.04 0.13,0.32 0.4,0.48 0.82,0.48 0.42,0 0.69,-0.16 0.81,-0.48 0.13,-0.32 0.19,-1.07 0.19,-2.25l0 -2.69 5.58 0 0 0.84c0,2.22 -0.16,3.79 -0.47,4.72 -0.31,0.92 -1.01,1.74 -2.08,2.44 -1.07,0.7 -2.39,1.04 -3.96,1.04 -1.63,0 -2.97,-0.29 -4.03,-0.88 -1.06,-0.59 -1.76,-1.41 -2.11,-2.46 -0.34,-1.04 -0.51,-2.61 -0.51,-4.71l0 -6.26c0,-1.54 0.05,-2.69 0.16,-3.47 0.11,-0.77 0.42,-1.51 0.95,-2.23 0.52,-0.71 1.25,-1.27 2.18,-1.68 0.93,-0.41 2,-0.62 3.2,-0.62 1.64,0 3,0.32 4.07,0.95 1.06,0.64 1.76,1.43 2.1,2.37 0.33,0.95 0.5,2.42 0.5,4.42l0 2.04zm1.99 -9.34l5.58 0 0.03 9.04c1.03,-0.03 1.57,-0.61 1.6,-1.75l0.11 -4.18c0.03,-1.53 0.33,-2.58 0.89,-3.11l5.14 0c-0.49,0.51 -0.74,1.59 -0.73,3.22l0.03 3.68c0.02,2.22 -1.23,3.48 -3.76,3.79 2.53,0.31 3.78,1.59 3.76,3.85l-0.03 3.41c-0.01,1.62 0.24,2.78 0.73,3.46l-5.14 0c-0.6,-0.53 -0.89,-1.58 -0.89,-3.12l0 -4.17c0,-0.54 -0.16,-0.96 -0.48,-1.28 -0.32,-0.32 -0.73,-0.49 -1.23,-0.5l-0.03 9.07 -5.58 0 0 -21.41zm14.52 0l5.61 0c1.52,0 2.68,0.11 3.5,0.35 0.81,0.24 1.43,0.58 1.84,1.03 0.41,0.45 0.68,1 0.83,1.64 0.14,0.64 0.22,1.62 0.22,2.96l0 1.87c0,1.36 -0.14,2.36 -0.43,2.98 -0.28,0.63 -0.8,1.11 -1.54,1.44 -0.76,0.34 -1.74,0.51 -2.96,0.51l-1.49 0 0 8.63 -5.58 0 0 -21.41zm5.58 3.65l0 5.46c0.16,0.01 0.29,0.01 0.41,0.01 0.51,0 0.86,-0.13 1.06,-0.38 0.19,-0.25 0.29,-0.77 0.29,-1.56l0 -1.77c0,-0.73 -0.11,-1.21 -0.34,-1.43 -0.23,-0.22 -0.7,-0.33 -1.42,-0.33zm8.01 -3.65l9.29 0 0 4.27 -3.71 0 0 4.09 3.47 0 0 4.06 -3.47 0 0 4.72 4.09 0 0 4.27 -9.67 0 0 -21.41zm17.4 12.21c-1.17,0.02 -1.76,0.53 -1.76,1.5l0 5.64c0,0.75 -0.08,1.28 -0.25,1.59 -0.16,0.32 -0.28,0.47 -0.35,0.47l-4.6 0c0.4,-0.57 0.6,-1.42 0.6,-2.55l0 -4.81c0,-1.03 0.28,-1.81 0.85,-2.34 0.57,-0.54 1.55,-0.92 2.93,-1.15l0 -0.03c-2.5,-0.13 -3.75,-1.3 -3.75,-3.49l0 -4.53c0,-1.12 -0.2,-1.96 -0.6,-2.51l4.6 0c0.13,0.05 0.26,0.24 0.4,0.57 0.13,0.33 0.2,0.82 0.2,1.46l0 5.33c0,0.98 0.58,1.48 1.73,1.52l0 -8.88 5.58 0 0 8.88c1.15,-0.04 1.73,-0.54 1.73,-1.52l0 -5.33c0,-0.74 0.08,-1.26 0.24,-1.57 0.16,-0.31 0.29,-0.46 0.37,-0.46l4.59 0c-0.4,0.55 -0.6,1.39 -0.6,2.51l0 4.53c0,2.19 -1.25,3.36 -3.76,3.49l0 0.03c1.38,0.23 2.36,0.61 2.93,1.15 0.58,0.53 0.86,1.31 0.86,2.34l0 4.81c0,1.13 0.2,1.98 0.6,2.55l-4.6 0c-0.14,-0.06 -0.28,-0.26 -0.41,-0.59 -0.13,-0.34 -0.19,-0.83 -0.19,-1.47l0 -5.64c0,-0.97 -0.59,-1.48 -1.76,-1.5l0 9.2 -5.58 0 0 -9.2zm13.9 -12.21l9.28 0 0 4.27 -3.71 0 0 4.09 3.47 0 0 4.06 -3.47 0 0 4.72 4.09 0 0 4.27 -9.66 0 0 -21.41zm22.46 0l0 4.27 -3.28 0 0 17.14 -5.58 0 0 -17.14 -3.3 0 0 -4.27 12.16 0z"/>
  <path class="fil6" d="M339.59 521.97l-6.96 0 0 -2.43c0,-1.53 -0.06,-2.49 -0.19,-2.87 -0.13,-0.39 -0.44,-0.58 -0.93,-0.58 -0.41,0 -0.7,0.16 -0.85,0.49 -0.16,0.33 -0.23,1.18 -0.23,2.54l0 12.82c0,1.2 0.07,1.99 0.23,2.37 0.15,0.37 0.45,0.57 0.9,0.57 0.49,0 0.83,-0.22 1.01,-0.65 0.17,-0.42 0.26,-1.26 0.26,-2.51l0 -3.16 -1.35 0 0 -4.06 8.11 0 0 14.33 -4.38 0 -0.64 -1.92c-0.47,0.83 -1.07,1.45 -1.78,1.87 -0.72,0.42 -1.58,0.62 -2.55,0.62 -1.17,0 -2.25,-0.28 -3.27,-0.85 -1.02,-0.57 -1.79,-1.26 -2.31,-2.1 -0.53,-0.84 -0.86,-1.72 -0.99,-2.63 -0.13,-0.92 -0.2,-2.3 -0.2,-4.14l0 -7.94c0,-2.55 0.14,-4.4 0.41,-5.56 0.28,-1.16 1.07,-2.22 2.37,-3.18 1.3,-0.96 2.98,-1.44 5.05,-1.44 2.03,0 3.72,0.41 5.06,1.25 1.34,0.84 2.22,1.83 2.62,2.98 0.41,1.16 0.61,2.82 0.61,5.02l0 1.16zm9.14 -5.04l-0.24 2.88c0.97,-2.07 2.38,-3.16 4.22,-3.28l0 7.7c-1.22,0 -2.12,0.16 -2.69,0.5 -0.58,0.33 -0.93,0.78 -1.06,1.38 -0.13,0.58 -0.2,1.94 -0.2,4.07l0 8.65 -6.66 0 0 -21.9 6.63 0zm20.57 11.32l-8.65 0 0 4.75c0,0.99 0.07,1.63 0.21,1.92 0.15,0.29 0.43,0.43 0.84,0.43 0.51,0 0.85,-0.19 1.02,-0.57 0.18,-0.38 0.26,-1.12 0.26,-2.21l0 -2.9 6.32 0 0 1.62c0,1.36 -0.08,2.4 -0.25,3.13 -0.18,0.73 -0.58,1.5 -1.2,2.33 -0.63,0.83 -1.43,1.45 -2.39,1.87 -0.96,0.41 -2.17,0.62 -3.62,0.62 -1.41,0 -2.66,-0.21 -3.74,-0.62 -1.07,-0.4 -1.91,-0.96 -2.51,-1.67 -0.61,-0.71 -1.02,-1.49 -1.25,-2.35 -0.23,-0.85 -0.35,-2.09 -0.35,-3.72l0 -6.4c0,-1.91 0.26,-3.42 0.78,-4.53 0.52,-1.1 1.36,-1.95 2.54,-2.54 1.18,-0.59 2.53,-0.88 4.07,-0.88 1.87,0 3.41,0.35 4.63,1.06 1.21,0.71 2.07,1.65 2.56,2.82 0.49,1.17 0.73,2.82 0.73,4.94l0 2.9zm-6.66 -3.55l0 -1.6c0,-1.13 -0.06,-1.86 -0.18,-2.19 -0.13,-0.34 -0.38,-0.5 -0.76,-0.5 -0.48,0 -0.77,0.14 -0.88,0.42 -0.11,0.29 -0.17,1.04 -0.17,2.27l0 1.6 1.99 0zm23.94 3.55l-8.66 0 0 4.75c0,0.99 0.08,1.63 0.22,1.92 0.14,0.29 0.42,0.43 0.83,0.43 0.51,0 0.86,-0.19 1.03,-0.57 0.17,-0.38 0.26,-1.12 0.26,-2.21l0 -2.9 6.32 0 0 1.62c0,1.36 -0.09,2.4 -0.26,3.13 -0.17,0.73 -0.57,1.5 -1.2,2.33 -0.62,0.83 -1.42,1.45 -2.39,1.87 -0.96,0.41 -2.16,0.62 -3.62,0.62 -1.41,0 -2.65,-0.21 -3.73,-0.62 -1.08,-0.4 -1.92,-0.96 -2.52,-1.67 -0.6,-0.71 -1.01,-1.49 -1.24,-2.35 -0.24,-0.85 -0.35,-2.09 -0.35,-3.72l0 -6.4c0,-1.91 0.26,-3.42 0.77,-4.53 0.52,-1.1 1.37,-1.95 2.54,-2.54 1.19,-0.59 2.54,-0.88 4.07,-0.88 1.87,0 3.41,0.35 4.63,1.06 1.22,0.71 2.07,1.65 2.56,2.82 0.49,1.17 0.74,2.82 0.74,4.94l0 2.9zm-6.66 -3.55l0 -1.6c0,-1.13 -0.06,-1.86 -0.19,-2.19 -0.12,-0.34 -0.38,-0.5 -0.76,-0.5 -0.47,0 -0.76,0.14 -0.88,0.42 -0.11,0.29 -0.17,1.04 -0.17,2.27l0 1.6 2 0zm15.58 -7.77l-0.1 2.03c0.49,-0.81 1.08,-1.42 1.78,-1.83 0.69,-0.4 1.5,-0.6 2.42,-0.6 1.14,0 2.08,0.27 2.8,0.81 0.73,0.53 1.2,1.21 1.4,2.04 0.21,0.81 0.32,2.18 0.32,4.1l0 15.35 -6.66 0 0 -15.17c0,-1.5 -0.05,-2.43 -0.15,-2.75 -0.1,-0.34 -0.37,-0.5 -0.83,-0.5 -0.48,0 -0.77,0.19 -0.9,0.57 -0.12,0.38 -0.18,1.4 -0.18,3.05l0 14.8 -6.66 0 0 -21.9 6.76 0z"/>
  <path class="fil6" d="M349.06 553.19l-6.45 0 0 -1.98c0,-0.92 -0.09,-1.51 -0.25,-1.77 -0.16,-0.25 -0.43,-0.38 -0.82,-0.38 -0.41,0 -0.73,0.17 -0.94,0.52 -0.22,0.34 -0.32,0.85 -0.32,1.54 0,0.89 0.12,1.56 0.36,2.01 0.24,0.45 0.89,0.99 1.97,1.63 3.08,1.85 5.02,3.36 5.82,4.54 0.81,1.18 1.21,3.07 1.21,5.69 0,1.9 -0.23,3.3 -0.67,4.21 -0.45,0.9 -1.3,1.66 -2.58,2.26 -1.27,0.62 -2.76,0.92 -4.45,0.92 -1.86,0 -3.44,-0.35 -4.76,-1.06 -1.31,-0.7 -2.17,-1.6 -2.58,-2.68 -0.41,-1.1 -0.61,-2.64 -0.61,-4.64l0 -1.76 6.46 0 0 3.25c0,1.01 0.09,1.65 0.27,1.94 0.18,0.28 0.5,0.42 0.96,0.42 0.46,0 0.8,-0.18 1.03,-0.54 0.23,-0.36 0.34,-0.9 0.34,-1.61 0,-1.57 -0.22,-2.61 -0.64,-3.08 -0.45,-0.49 -1.53,-1.3 -3.25,-2.44 -1.73,-1.14 -2.86,-1.97 -3.43,-2.49 -0.56,-0.52 -1.02,-1.24 -1.39,-2.15 -0.37,-0.91 -0.55,-2.08 -0.55,-3.5 0,-2.04 0.26,-3.54 0.78,-4.48 0.53,-0.95 1.36,-1.69 2.53,-2.22 1.17,-0.54 2.57,-0.8 4.22,-0.8 1.8,0 3.33,0.29 4.61,0.87 1.26,0.59 2.1,1.32 2.51,2.21 0.42,0.88 0.62,2.39 0.62,4.51l0 1.06zm9.44 -8.11l0 3.48 -6.86 0 0 -3.48 6.86 0zm0 4.83l0 21.9 -6.86 0 0 -21.9 6.86 0zm17.57 -4.83l0 26.73 -6.66 0 0 -1.6c-0.64,0.67 -1.31,1.17 -2.01,1.5 -0.71,0.33 -1.45,0.5 -2.22,0.5 -1.04,0 -1.94,-0.27 -2.7,-0.81 -0.76,-0.55 -1.25,-1.18 -1.46,-1.9 -0.22,-0.71 -0.33,-1.88 -0.33,-3.5l0 -10.26c0,-1.68 0.11,-2.87 0.33,-3.58 0.21,-0.7 0.71,-1.32 1.48,-1.86 0.77,-0.53 1.69,-0.8 2.76,-0.8 0.83,0 1.59,0.16 2.28,0.45 0.68,0.3 1.31,0.75 1.87,1.35l0 -6.22 6.66 0zm-6.66 10.34c0,-0.8 -0.06,-1.34 -0.21,-1.62 -0.14,-0.27 -0.41,-0.41 -0.82,-0.41 -0.41,0 -0.68,0.12 -0.82,0.37 -0.14,0.25 -0.21,0.8 -0.21,1.66l0 10.73c0,0.89 0.07,1.47 0.2,1.75 0.14,0.29 0.39,0.43 0.78,0.43 0.43,0 0.72,-0.16 0.86,-0.48 0.15,-0.31 0.22,-1.07 0.22,-2.29l0 -10.14zm24.15 5.81l-8.65 0 0 4.75c0,0.99 0.07,1.63 0.21,1.92 0.15,0.29 0.42,0.43 0.84,0.43 0.51,0 0.85,-0.19 1.02,-0.57 0.18,-0.38 0.26,-1.12 0.26,-2.21l0 -2.9 6.32 0 0 1.62c0,1.36 -0.09,2.4 -0.25,3.13 -0.18,0.72 -0.58,1.5 -1.2,2.33 -0.63,0.83 -1.43,1.45 -2.39,1.86 -0.97,0.42 -2.17,0.62 -3.62,0.62 -1.41,0 -2.66,-0.2 -3.74,-0.61 -1.07,-0.41 -1.91,-0.96 -2.52,-1.67 -0.6,-0.71 -1.01,-1.5 -1.24,-2.35 -0.23,-0.85 -0.35,-2.09 -0.35,-3.72l0 -6.4c0,-1.91 0.26,-3.42 0.78,-4.53 0.52,-1.11 1.36,-1.96 2.54,-2.54 1.18,-0.59 2.53,-0.89 4.06,-0.89 1.87,0 3.42,0.36 4.63,1.07 1.22,0.71 2.08,1.65 2.57,2.82 0.49,1.17 0.73,2.82 0.73,4.94l0 2.9zm-6.66 -3.55l0 -1.6c0,-1.13 -0.06,-1.86 -0.18,-2.19 -0.13,-0.34 -0.38,-0.5 -0.76,-0.5 -0.48,0 -0.77,0.14 -0.88,0.42 -0.12,0.28 -0.17,1.04 -0.17,2.27l0 1.6 1.99 0z"/>
  <path class="fil6" d="M211.29 559.28l-5.28 0 0 -5.06 -13.87 0 0 -29.41 7.66 0 0 23.54 2.27 0 0 -23.54 7.66 0 0 23.54 1.56 0 0 10.93zm2.04 -34.47l12.75 0 0 5.88 -5.09 0 0 5.61 4.75 0 0 5.58 -4.75 0 0 6.47 5.61 0 0 5.87 -13.27 0 0 -29.41zm32.99 0l0 29.41 -7.66 0 0 -12.34 -2.23 0 0 12.34 -7.66 0 0 -29.41 7.66 0 0 10.52 2.23 0 0 -10.52 7.66 0zm18.48 0l0 5.88 -4.5 0 0 23.53 -7.65 0 0 -23.53 -4.54 0 0 -5.88 16.69 0zm1.75 0l7.7 0c2.08,0 3.68,0.17 4.8,0.49 1.12,0.33 1.96,0.8 2.52,1.42 0.57,0.62 0.95,1.37 1.15,2.24 0.2,0.88 0.3,2.24 0.3,4.08l0 2.56c0,1.87 -0.19,3.24 -0.58,4.09 -0.39,0.86 -1.1,1.52 -2.13,1.98 -1.03,0.46 -2.38,0.69 -4.05,0.69l-2.05 0 0 11.86 -7.66 0 0 -29.41zm7.66 5.02l0 7.49c0.21,0.02 0.4,0.02 0.56,0.02 0.7,0 1.18,-0.17 1.45,-0.52 0.27,-0.34 0.4,-1.06 0.4,-2.15l0 -2.42c0,-1 -0.15,-1.66 -0.47,-1.96 -0.31,-0.31 -0.96,-0.46 -1.94,-0.46z"/>
  <path class="fil6" d="M85.72 473.89l-4.35 0 0 -2.9c0,-0.85 -0.04,-1.37 -0.14,-1.58 -0.09,-0.21 -0.29,-0.32 -0.61,-0.32 -0.35,0 -0.57,0.13 -0.67,0.38 -0.09,0.26 -0.14,0.81 -0.14,1.65l0 7.75c0,0.81 0.05,1.34 0.14,1.59 0.1,0.25 0.31,0.37 0.64,0.37 0.32,0 0.53,-0.12 0.63,-0.37 0.1,-0.25 0.15,-0.83 0.15,-1.75l0 -2.1 4.35 0 0 0.65c0,1.73 -0.12,2.96 -0.37,3.68 -0.24,0.72 -0.78,1.36 -1.61,1.9 -0.84,0.55 -1.87,0.82 -3.09,0.82 -1.27,0 -2.32,-0.23 -3.15,-0.69 -0.82,-0.46 -1.37,-1.1 -1.64,-1.91 -0.27,-0.82 -0.4,-2.05 -0.4,-3.68l0 -4.88c0,-1.2 0.04,-2.1 0.12,-2.7 0.09,-0.6 0.33,-1.18 0.74,-1.74 0.41,-0.56 0.98,-1 1.7,-1.32 0.73,-0.32 1.56,-0.48 2.5,-0.48 1.28,0 2.34,0.25 3.17,0.75 0.83,0.49 1.37,1.11 1.64,1.84 0.26,0.74 0.39,1.89 0.39,3.45l0 1.59zm10.29 -7.29l0 3.34 -2.55 0 0 13.36 -4.35 0 0 -13.36 -2.57 0 0 -3.34 9.47 0zm1 0l4.37 0c1.18,0 2.09,0.09 2.73,0.28 0.63,0.19 1.11,0.45 1.43,0.8 0.32,0.35 0.53,0.78 0.65,1.28 0.11,0.5 0.17,1.27 0.17,2.31l0 1.45c0,1.07 -0.11,1.84 -0.33,2.33 -0.22,0.49 -0.63,0.87 -1.21,1.13 -0.59,0.26 -1.36,0.39 -2.3,0.39l-1.17 0 0 6.73 -4.34 0 0 -16.7zm4.34 2.85l0 4.26c0.13,0 0.23,0.01 0.32,0.01 0.4,0 0.67,-0.1 0.83,-0.3 0.15,-0.19 0.23,-0.6 0.23,-1.22l0 -1.38c0,-0.57 -0.09,-0.94 -0.27,-1.11 -0.18,-0.17 -0.55,-0.26 -1.11,-0.26zm13.74 -2.85l2.49 16.7 -4.44 0 -0.24 -3 -1.56 0 -0.24 3 -4.49 0 2.2 -16.7 6.28 0zm-2.3 10.75c-0.21,-1.9 -0.43,-4.24 -0.66,-7.04 -0.43,3.21 -0.7,5.56 -0.82,7.04l1.48 0zm15.5 -10.75l0 16.7 -4.35 0 0 -7.01 -1.27 0 0 7.01 -4.35 0 0 -16.7 4.35 0 0 5.98 1.27 0 0 -5.98 4.35 0zm11.71 0l0 16.7 -4.34 0 0 -7.01 -1.27 0 0 7.01 -4.35 0 0 -16.7 4.35 0 0 5.98 1.27 0 0 -5.98 4.34 0zm11.43 16.7l-3.63 0 0 -7.6 -2.26 7.6 -3.78 0 0 -16.7 3.63 0 0 7.54 2.43 -7.54 3.61 0 0 16.7zm1.75 -16.7l4.35 0 0.02 7.05c0.81,-0.02 1.22,-0.47 1.25,-1.36l0.08 -3.26c0.03,-1.2 0.26,-2.01 0.7,-2.43l4.01 0c-0.39,0.41 -0.58,1.25 -0.57,2.52l0.02 2.86c0.01,1.73 -0.96,2.72 -2.93,2.96 1.97,0.24 2.94,1.24 2.93,3l-0.02 2.66c-0.01,1.26 0.18,2.17 0.57,2.7l-4.01 0c-0.47,-0.42 -0.7,-1.23 -0.7,-2.43l0 -3.26c0,-0.41 -0.12,-0.74 -0.37,-0.99 -0.25,-0.25 -0.57,-0.38 -0.96,-0.39l-0.02 7.07 -4.35 0 0 -16.7zm20.99 16.7l-3.63 0 0 -7.6 -2.26 7.6 -3.78 0 0 -16.7 3.63 0 0 7.54 2.43 -7.54 3.61 0 0 16.7z"/>
 </g>
</svg>
