<?xml version="1.0" encoding="UTF-8"?>
<!DOCTYPE svg PUBLIC "-//W3C//DTD SVG 1.1//EN" "http://www.w3.org/Graphics/SVG/1.1/DTD/svg11.dtd">
<!-- Creator: CorelDRAW 2020 (64-Bit) -->
<svg xmlns="http://www.w3.org/2000/svg" xml:space="preserve" width="500px" height="500px" version="1.1" style="shape-rendering:geometricPrecision; text-rendering:geometricPrecision; image-rendering:optimizeQuality; fill-rule:evenodd; clip-rule:evenodd"
viewBox="0 0 500 500"
 xmlns:xlink="http://www.w3.org/1999/xlink"
 xmlns:xodm="http://www.corel.com/coreldraw/odm/2003">
 <defs>
  <style type="text/css">
   <![CDATA[
    .fil3 {fill:gray}
    .fil1 {fill:#EEEEEE}
    .fil0 {fill:#2B2A29;fill-rule:nonzero}
    .fil2 {fill:#C08223;fill-rule:nonzero}
   ]]>
  </style>
 </defs>
 <g id="Слой_x0020_1">
  <metadata id="CorelCorpID_0Corel-Layer"/>
  <path class="fil0" d="M305.48 42.64c57.21,15.37 102.79,52.47 130.26,100.04 27.48,47.59 36.8,105.66 21.46,162.9l-0.03 0.14c-15.37,57.19 -52.47,102.77 -100.04,130.23 -47.59,27.48 -105.65,36.8 -162.9,21.46 -0.01,0 -0.11,-0.03 -0.11,-0.02 -57.2,-15.37 -102.79,-52.47 -130.26,-100.04 -27.47,-47.6 -36.8,-105.66 -21.46,-162.9l0.04 -0.14c15.36,-57.19 52.46,-102.77 100.03,-130.23 47.59,-27.48 105.65,-36.8 162.9,-21.46l0.11 0.02zm-3.8 13.36l-0.01 0c-53.55,-14.32 -107.83,-5.6 -152.3,20.08 -44.49,25.69 -79.19,68.36 -93.55,121.95l-0.03 0.11c-14.32,53.55 -5.6,107.83 20.08,152.31 25.68,44.49 68.36,79.19 121.94,93.55l0.12 0.03c53.55,14.31 107.83,5.6 152.31,-20.08 44.49,-25.69 79.19,-68.36 93.54,-121.95l0.03 -0.11c14.32,-53.55 5.61,-107.83 -20.07,-152.31 -25.69,-44.49 -68.37,-79.19 -121.95,-93.55l-0.11 -0.03z"/>
  <ellipse class="fil1" transform="matrix(0.769783 0.206276 -0.209803 0.782942 102.887 103.095)" rx="58.37" ry="57.39"/>
  <path class="fil0" d="M115.64 55.48c13.15,3.52 23.62,12.04 29.94,22.98 6.3,10.92 8.45,24.25 4.92,37.39 -3.52,13.15 -12.04,23.62 -22.97,29.93 -10.93,6.31 -24.26,8.45 -37.4,4.93 -13.14,-3.52 -23.62,-12.04 -29.93,-22.98 -6.31,-10.92 -8.45,-24.25 -4.93,-37.39 3.52,-13.15 12.05,-23.62 22.98,-29.93 10.93,-6.31 24.26,-8.45 37.39,-4.93zm25.13 25.74c-5.59,-9.69 -14.89,-17.25 -26.56,-20.38 -11.67,-3.12 -23.51,-1.23 -33.2,4.37 -9.69,5.59 -17.25,14.89 -20.37,26.56 -3.13,11.68 -1.24,23.51 4.36,33.2 5.59,9.69 14.89,17.25 26.56,20.38 11.68,3.12 23.51,1.23 33.21,-4.37 9.68,-5.59 17.24,-14.89 20.37,-26.56 3.13,-11.68 1.23,-23.51 -4.37,-33.2z"/>
  <ellipse class="fil1" transform="matrix(0.769782 0.206276 -0.209803 0.782942 196.03 49.3215)" rx="58.37" ry="57.39"/>
  <path class="fil0" d="M208.83 1.72c13.12,3.53 23.58,12.04 29.89,22.96 6.31,10.93 8.45,24.26 4.93,37.4l-0.01 0.04c-3.53,13.12 -12.05,23.58 -22.96,29.88l0 0.01c-10.93,6.31 -24.26,8.45 -37.41,4.93 -13.14,-3.52 -23.62,-12.05 -29.93,-22.98 -6.31,-10.93 -8.45,-24.26 -4.93,-37.4l0.01 -0.04c3.53,-13.12 12.05,-23.58 22.97,-29.89 10.93,-6.3 24.26,-8.45 37.4,-4.93l0.04 0.02zm-1.52 5.34l0 0c-11.66,-3.11 -23.48,-1.21 -33.16,4.37 -9.69,5.6 -17.24,14.89 -20.37,26.57l-0.01 0.04c-3.11,11.66 -1.22,23.48 4.37,33.16 5.6,9.69 14.89,17.24 26.57,20.37 11.67,3.13 23.5,1.23 33.19,-4.36l0.01 0c9.69,-5.59 17.24,-14.89 20.37,-26.56l0.01 -0.05c3.11,-11.66 1.22,-23.48 -4.37,-33.16 -5.6,-9.68 -14.89,-17.24 -26.56,-20.37l-0.05 -0.01z"/>
  <ellipse class="fil1" transform="matrix(0.769782 0.206276 -0.209803 0.782942 303.58 49.3233)" rx="58.37" ry="57.39"/>
  <path class="fil0" d="M316.34 1.71c13.14,3.52 23.62,12.04 29.93,22.97 6.31,10.93 8.45,24.26 4.93,37.4l0 0c-3.52,13.15 -12.05,23.62 -22.98,29.93 -10.93,6.31 -24.25,8.45 -37.39,4.93l-0.01 0c-13.14,-3.52 -23.62,-12.05 -29.93,-22.98 -6.31,-10.93 -8.45,-24.25 -4.93,-37.4 3.52,-13.14 12.05,-23.61 22.98,-29.92 10.93,-6.31 24.26,-8.46 37.4,-4.93zm25.13 25.73c-5.6,-9.68 -14.89,-17.24 -26.57,-20.37 -11.67,-3.13 -23.51,-1.23 -33.2,4.37 -9.69,5.59 -17.24,14.89 -20.37,26.56 -3.13,11.68 -1.23,23.51 4.36,33.2 5.6,9.69 14.89,17.25 26.57,20.37l0 0c11.67,3.13 23.51,1.24 33.2,-4.36 9.69,-5.59 17.24,-14.89 20.37,-26.56l0 0c3.13,-11.68 1.23,-23.51 -4.36,-33.21z"/>
  <ellipse class="fil1" transform="matrix(0.769782 0.206276 -0.209803 0.782942 396.721 103.1)" rx="58.37" ry="57.39"/>
  <path class="fil0" d="M409.48 55.48c13.14,3.52 23.62,12.05 29.93,22.98 6.31,10.93 8.45,24.26 4.93,37.4l-0.01 0.04c-3.53,13.12 -12.05,23.58 -22.97,29.89 -10.93,6.31 -24.26,8.45 -37.39,4.93l-0.05 -0.01c-13.12,-3.53 -23.58,-12.05 -29.89,-22.97 -6.25,-10.82 -8.4,-24 -5.02,-37.02 0,-0.07 0.08,-0.31 0.1,-0.42 3.53,-13.12 12.05,-23.58 22.97,-29.89 10.83,-6.25 24.01,-8.41 37.02,-5.03l0.38 0.1zm25.13 25.74c-5.59,-9.68 -14.88,-17.23 -26.54,-20.37l-0.03 0c-11.67,-3.13 -23.51,-1.23 -33.2,4.36 -9.59,5.54 -17.09,14.7 -20.27,26.21l0 0.02 -0.11 0.38c-3.11,11.66 -1.21,23.48 4.37,33.16 5.6,9.69 14.89,17.24 26.57,20.37l0.04 0.01c11.66,3.11 23.48,1.22 33.16,-4.37 9.69,-5.6 17.24,-14.89 20.37,-26.56l0.01 -0.05c3.12,-11.66 1.22,-23.48 -4.37,-33.16z"/>
  <ellipse class="fil1" transform="matrix(0.769782 0.206276 -0.209803 0.782942 450.495 196.243)" rx="58.37" ry="57.39"/>
  <path class="fil0" d="M463.3 148.64c13.12,3.53 23.58,12.04 29.88,22.96 6.31,10.93 8.45,24.26 4.93,37.4l-0.01 0.05c-3.53,13.12 -12.05,23.58 -22.97,29.88 -10.92,6.31 -24.25,8.45 -37.39,4.93l-0.04 -0.01c-13.12,-3.53 -23.58,-12.04 -29.89,-22.96l0 0c-6.31,-10.93 -8.45,-24.26 -4.93,-37.4 3.52,-13.15 12.04,-23.62 22.98,-29.94 10.92,-6.3 24.25,-8.45 37.39,-4.92l0.05 0.01zm-1.52 5.34c-11.67,-3.11 -23.48,-1.21 -33.16,4.38 -9.69,5.59 -17.25,14.89 -20.38,26.56 -3.12,11.67 -1.23,23.5 4.37,33.19l0 0.01c5.59,9.69 14.89,17.25 26.56,20.37l0.04 0.01c11.67,3.12 23.48,1.22 33.16,-4.37 9.69,-5.59 17.25,-14.89 20.38,-26.56l0.01 -0.05c3.11,-11.66 1.21,-23.48 -4.38,-33.16 -5.59,-9.68 -14.89,-17.24 -26.56,-20.37l-0.04 -0.01z"/>
  <ellipse class="fil1" transform="matrix(0.769782 0.206276 -0.209803 0.782942 450.493 303.793)" rx="58.37" ry="57.39"/>
  <path class="fil0" d="M463.25 256.18c13.14,3.52 23.62,12.04 29.93,22.97 6.31,10.93 8.45,24.26 4.93,37.4l-0.01 0.04c-3.53,13.13 -12.05,23.59 -22.97,29.89 -10.93,6.31 -24.25,8.45 -37.39,4.93l-0.06 -0.01c-13.12,-3.53 -23.57,-12.05 -29.88,-22.97 -6.3,-10.92 -8.44,-24.25 -4.92,-37.39 3.52,-13.14 12.04,-23.62 22.97,-29.93l-0.01 0c10.93,-6.31 24.27,-8.46 37.41,-4.93zm25.13 25.73c-5.59,-9.68 -14.89,-17.24 -26.56,-20.37 -11.67,-3.13 -23.5,-1.23 -33.2,4.37l-0.01 0c-9.68,5.59 -17.24,14.89 -20.37,26.56 -3.13,11.68 -1.23,23.51 4.37,33.2 5.59,9.69 14.88,17.25 26.56,20.37l0.04 0.02c11.67,3.11 23.48,1.21 33.16,-4.38 9.69,-5.59 17.25,-14.89 20.37,-26.56l0.01 -0.04c3.12,-11.67 1.22,-23.48 -4.37,-33.17z"/>
  <ellipse class="fil1" transform="matrix(0.769782 0.206276 -0.209803 0.782942 396.716 396.934)" rx="58.37" ry="57.39"/>
  <path class="fil0" d="M409.47 349.32c13.15,3.52 23.62,12.04 29.93,22.98 6.31,10.92 8.45,24.25 4.93,37.39 -3.52,13.14 -12.04,23.62 -22.97,29.93 -10.93,6.31 -24.26,8.45 -37.4,4.93 -13.14,-3.52 -23.62,-12.04 -29.93,-22.98 -6.31,-10.92 -8.45,-24.25 -4.93,-37.39 3.52,-13.15 12.05,-23.62 22.98,-29.93 10.92,-6.31 24.25,-8.45 37.39,-4.93zm25.13 25.74c-5.59,-9.69 -14.89,-17.25 -26.56,-20.38 -11.68,-3.13 -23.51,-1.23 -33.2,4.37 -9.69,5.59 -17.25,14.89 -20.37,26.56 -3.13,11.68 -1.24,23.51 4.36,33.2 5.59,9.69 14.89,17.25 26.56,20.38 11.68,3.12 23.51,1.23 33.21,-4.37 9.68,-5.59 17.24,-14.89 20.37,-26.56 3.13,-11.68 1.23,-23.51 -4.37,-33.2z"/>
  <ellipse class="fil1" transform="matrix(0.769782 0.206276 -0.209803 0.782942 303.574 450.708)" rx="58.37" ry="57.39"/>
  <path class="fil0" d="M316.33 403.09c13.14,3.52 23.62,12.05 29.93,22.98 6.31,10.93 8.45,24.26 4.93,37.4l-0.01 0.04c-3.53,13.12 -12.05,23.58 -22.97,29.89 -10.92,6.3 -24.25,8.45 -37.39,4.93l-0.05 -0.02c-13.12,-3.53 -23.58,-12.04 -29.88,-22.96 -6.31,-10.93 -8.45,-24.26 -4.93,-37.4l0.01 -0.04c3.53,-13.12 12.04,-23.58 22.96,-29.89l-0.01 0c10.93,-6.31 24.27,-8.45 37.41,-4.93zm25.13 25.74c-5.59,-9.69 -14.89,-17.25 -26.56,-20.37 -11.67,-3.13 -23.5,-1.23 -33.19,4.36l-0.02 0c-9.68,5.59 -17.24,14.89 -20.37,26.56l-0.01 0.05c-3.11,11.66 -1.21,23.48 4.38,33.16 5.59,9.68 14.89,17.24 26.56,20.37l0.05 0.01c11.66,3.11 23.47,1.21 33.15,-4.38 9.69,-5.59 17.25,-14.88 20.37,-26.56l0.01 -0.04c3.12,-11.66 1.22,-23.48 -4.37,-33.16z"/>
  <ellipse class="fil1" transform="matrix(0.769782 0.206276 -0.209803 0.782942 196.023 450.706)" rx="58.37" ry="57.39"/>
  <path class="fil0" d="M208.78 403.09c13.14,3.52 23.62,12.04 29.93,22.98 6.31,10.92 8.45,24.25 4.93,37.39 -3.52,13.15 -12.05,23.62 -22.98,29.93 -10.93,6.31 -24.26,8.45 -37.4,4.93 -13.14,-3.52 -23.61,-12.04 -29.93,-22.98 -6.3,-10.92 -8.44,-24.25 -4.92,-37.39l0 0c3.52,-13.15 12.04,-23.62 22.97,-29.93 10.93,-6.31 24.26,-8.45 37.4,-4.93l0 0zm25.13 25.74c-5.59,-9.69 -14.89,-17.25 -26.56,-20.37l-0.01 -0.01c-11.67,-3.12 -23.5,-1.23 -33.2,4.37 -9.68,5.59 -17.24,14.89 -20.37,26.56l0 0c-3.13,11.68 -1.23,23.51 4.37,33.21 5.59,9.68 14.89,17.24 26.56,20.37 11.67,3.13 23.51,1.23 33.2,-4.37 9.69,-5.59 17.25,-14.89 20.37,-26.56 3.13,-11.68 1.24,-23.51 -4.36,-33.2z"/>
  <ellipse class="fil1" transform="matrix(0.769782 0.206276 -0.209803 0.782942 102.882 396.929)" rx="58.37" ry="57.39"/>
  <path class="fil0" d="M115.68 349.32c13.13,3.53 23.59,12.05 29.89,22.97 6.25,10.82 8.41,24 5.03,37.02 0,0.07 -0.09,0.31 -0.11,0.42 -3.53,13.12 -12.05,23.58 -22.97,29.89 -10.82,6.25 -24,8.41 -37.02,5.03l-0.38 -0.1c-13.14,-3.52 -23.61,-12.05 -29.93,-22.98 -6.3,-10.93 -8.45,-24.26 -4.92,-37.4l0.01 -0.04c3.53,-13.12 12.04,-23.58 22.96,-29.89 10.93,-6.31 24.26,-8.45 37.4,-4.93l0.04 0.01zm-1.52 5.35l0 0c-11.66,-3.12 -23.48,-1.22 -33.16,4.37 -9.68,5.59 -17.24,14.89 -20.37,26.56l-0.01 0.05c-3.11,11.66 -1.21,23.48 4.38,33.16 5.58,9.68 14.87,17.23 26.54,20.36l0.02 0.01c11.67,3.13 23.51,1.23 33.2,-4.36 9.59,-5.54 17.09,-14.7 20.28,-26.21l0 -0.02 0.1 -0.38c3.12,-11.66 1.22,-23.48 -4.37,-33.16 -5.59,-9.69 -14.89,-17.24 -26.56,-20.37l-0.05 -0.01z"/>
  <ellipse class="fil1" transform="matrix(0.769782 0.206276 -0.209803 0.782942 49.1085 303.787)" rx="58.37" ry="57.39"/>
  <path class="fil0" d="M61.91 256.18c13.12,3.53 23.58,12.04 29.88,22.96l0.01 0c6.31,10.93 8.45,24.26 4.93,37.4 -3.53,13.15 -12.05,23.62 -22.98,29.93 -10.93,6.31 -24.26,8.45 -37.4,4.93l-0.04 -0.01c-13.13,-3.53 -23.59,-12.04 -29.89,-22.96 -6.31,-10.93 -8.45,-24.26 -4.93,-37.4l0.01 -0.05c3.53,-13.12 12.05,-23.58 22.97,-29.88 10.93,-6.31 24.25,-8.45 37.39,-4.93l0.05 0.01zm25.08 25.73c-5.59,-9.69 -14.88,-17.25 -26.56,-20.37l-0.04 -0.01c-11.66,-3.12 -23.48,-1.22 -33.16,4.37 -9.69,5.59 -17.24,14.89 -20.37,26.56l-0.01 0.05c-3.12,11.66 -1.22,23.48 4.37,33.16 5.59,9.68 14.89,17.24 26.56,20.37l0.05 0.01c11.66,3.11 23.48,1.21 33.16,-4.38 9.69,-5.59 17.24,-14.89 20.37,-26.56 3.13,-11.67 1.23,-23.5 -4.37,-33.19l0 -0.01z"/>
  <ellipse class="fil1" transform="matrix(0.769782 0.206276 -0.209803 0.782942 49.1102 196.236)" rx="58.37" ry="57.39"/>
  <path class="fil0" d="M60.44 153.99l-0.05 -0.02c-11.66,-3.11 -23.48,-1.21 -33.16,4.38 -9.69,5.59 -17.24,14.89 -20.37,26.56l-0.01 0.04c-3.11,11.67 -1.22,23.48 4.37,33.17 5.6,9.68 14.89,17.24 26.57,20.37 11.67,3.12 23.5,1.23 33.19,-4.37l0.01 0c9.69,-5.59 17.24,-14.89 20.37,-26.56 3.13,-11.68 1.23,-23.51 -4.36,-33.2 -5.6,-9.69 -14.89,-17.25 -26.56,-20.37zm1.48 -5.36c13.12,3.53 23.58,12.05 29.88,22.97 6.31,10.92 8.45,24.25 4.93,37.39 -3.52,13.14 -12.04,23.62 -22.97,29.93l0 0c-10.93,6.31 -24.26,8.46 -37.41,4.93 -13.14,-3.52 -23.62,-12.04 -29.93,-22.98 -6.31,-10.92 -8.45,-24.25 -4.93,-37.39l0.01 -0.05c3.53,-13.12 12.05,-23.58 22.97,-29.88 10.93,-6.31 24.26,-8.45 37.4,-4.93l0.05 0.01z"/>
  <path class="fil2" d="M195.5 182.2l-9.61 89.7c-1.52,14.16 -3.14,24.12 -4.86,29.83 -1.74,5.71 -5.08,9.79 -10.01,12.24 -4.97,2.46 -13.13,3.68 -24.46,3.68l-20.55 0 0 -17.46 2.11 0c4.65,0 7.54,-0.37 8.62,-1.14 1.09,-0.75 1.66,-1.89 1.66,-3.46 0,-0.11 -0.69,-3.94 -2.03,-11.47l-18.58 -101.92 30.62 0 11.08 84.45 5.28 -84.45 30.73 0zm89.28 59.08l-35.28 0 0 -23.51c0,-6.85 -0.37,-11.11 -1.11,-12.82 -0.74,-1.68 -2.4,-2.54 -4.94,-2.54 -2.85,0 -4.68,1.03 -5.45,3.08 -0.77,2.09 -1.17,6.54 -1.17,13.39l0 62.84c0,6.6 0.4,10.88 1.17,12.9 0.77,2 2.51,3 5.19,3 2.6,0 4.31,-1 5.11,-3.03 0.8,-1.99 1.2,-6.73 1.2,-14.18l0 -17.04 35.28 0 0 5.28c0,14.04 -1,24 -2.97,29.85 -1.97,5.88 -6.37,11.02 -13.13,15.44 -6.79,4.43 -15.13,6.62 -25.06,6.62 -10.3,0 -18.81,-1.85 -25.51,-5.59 -6.68,-3.74 -11.13,-8.9 -13.3,-15.52 -2.17,-6.63 -3.26,-16.56 -3.26,-29.83l0 -39.55c0,-9.76 0.35,-17.07 1,-21.95 0.69,-4.88 2.66,-9.59 6,-14.1 3.31,-4.51 7.9,-8.08 13.78,-10.67 5.88,-2.6 12.64,-3.88 20.29,-3.88 10.36,0 18.93,1.99 25.69,6.02 6.73,3.99 11.16,8.99 13.3,14.98 2.11,5.99 3.17,15.3 3.17,27.94l0 12.87zm12.61 -59.08l35.28 0 0.17 57.2c6.53,-0.17 9.9,-3.85 10.13,-11.05l0.65 -26.42c0.23,-9.74 2.12,-16.33 5.66,-19.73l32.53 0c-3.14,3.29 -4.68,10.11 -4.62,20.41l0.17 23.23c0.11,14.04 -7.79,22.06 -23.75,24 15.96,1.94 23.86,10.08 23.75,24.35l-0.17 21.55c-0.06,10.27 1.48,17.58 4.62,21.91l-32.53 0c-3.77,-3.39 -5.66,-9.98 -5.66,-19.75l0 -26.39c0,-3.37 -0.99,-6.05 -2.99,-8.08 -2.03,-2.03 -4.63,-3.08 -7.79,-3.14l-0.17 57.36 -35.28 0 0 -135.45z"/>
  <g id="_1976521122176">
   <path class="fil3" d="M167.86 20.16l27.69 -3.43 27.65 3.51 0.03 34.07c-1.96,15.64 -13.15,29.7 -27.68,34.13 -14.88,-4.4 -26.64,-18.37 -27.69,-34.14l0 -34.14z"/>
   <path class="fil3" d="M275.89 20.16l27.69 -3.43 27.66 3.51 0.03 34.07c-1.97,15.64 -13.15,29.7 -27.69,34.13 -14.87,-4.4 -26.63,-18.37 -27.69,-34.14l0 -34.14z"/>
   <path class="fil3" d="M369.07 74.14l27.69 -3.42 27.65 3.5 0.03 34.07c-1.96,15.64 -13.15,29.7 -27.68,34.13 -14.88,-4.4 -26.64,-18.36 -27.69,-34.14l0 -34.14z"/>
   <path class="fil3" d="M75.2 74.14l27.69 -3.42 27.66 3.5 0.02 34.07c-1.96,15.64 -13.14,29.7 -27.68,34.13 -14.87,-4.4 -26.64,-18.36 -27.69,-34.14l0 -34.14z"/>
   <path class="fil3" d="M422.81 167l27.69 -3.42 27.65 3.5 0.03 34.07c-1.96,15.64 -13.15,29.7 -27.68,34.13 -14.88,-4.4 -26.64,-18.36 -27.69,-34.14l0 -34.14z"/>
   <path class="fil3" d="M21.43 167l27.68 -3.42 27.66 3.5 0.03 34.07c-1.96,15.64 -13.15,29.7 -27.69,34.13 -14.87,-4.4 -26.63,-18.36 -27.68,-34.14l0 -34.14z"/>
   <path class="fil3" d="M21.42 275.04l27.69 -3.42 27.66 3.5 0.02 34.07c-1.96,15.64 -13.14,29.7 -27.68,34.13 -14.87,-4.4 -26.64,-18.36 -27.69,-34.14l0 -34.14z"/>
   <path class="fil3" d="M422.81 275.04l27.68 -3.42 27.66 3.5 0.03 34.07c-1.96,15.64 -13.15,29.7 -27.69,34.13 -14.87,-4.4 -26.63,-18.36 -27.68,-34.14l0 -34.14z"/>
   <path class="fil3" d="M75.2 367.69l27.68 -3.42 27.66 3.5 0.03 34.07c-1.96,15.64 -13.15,29.7 -27.69,34.14 -14.87,-4.41 -26.63,-18.37 -27.68,-34.15l0 -34.14z"/>
   <path class="fil3" d="M369.03 367.69l27.69 -3.42 27.66 3.5 0.02 34.07c-1.96,15.64 -13.14,29.7 -27.68,34.14 -14.87,-4.41 -26.64,-18.37 -27.69,-34.15l0 -34.14z"/>
   <path class="fil3" d="M275.89 421.47l27.68 -3.43 27.66 3.51 0.03 34.07c-1.96,15.64 -13.15,29.7 -27.69,34.13 -14.87,-4.4 -26.63,-18.37 -27.68,-34.14l0 -34.14z"/>
   <path class="fil3" d="M168.34 421.47l27.68 -3.43 27.66 3.51 0.03 34.07c-1.96,15.64 -13.15,29.7 -27.69,34.13 -14.87,-4.4 -26.63,-18.37 -27.68,-34.14l0 -34.14z"/>
  </g>
 </g>
</svg>
