<?xml version="1.0" encoding="UTF-8"?>
<!DOCTYPE svg PUBLIC "-//W3C//DTD SVG 1.1//EN" "http://www.w3.org/Graphics/SVG/1.1/DTD/svg11.dtd">
<!-- Creator: CorelDRAW 2017 -->
<svg xmlns="http://www.w3.org/2000/svg" xml:space="preserve" width="6.8578mm" height="6.8578mm" version="1.1" style="shape-rendering:geometricPrecision; text-rendering:geometricPrecision; image-rendering:optimizeQuality; fill-rule:evenodd; clip-rule:evenodd"
viewBox="0 0 685.78 685.78"
 xmlns:xlink="http://www.w3.org/1999/xlink"
 enable-background="new 0 0 32 32">
 <defs>
  <style type="text/css">
   <![CDATA[
    .fil0 {fill:#CFCFCF}
   ]]>
  </style>
 </defs>
 <g id="Слой_x0020_1">
  <metadata id="CorelCorpID_0Corel-Layer"/>
  <path class="fil0" d="M220.35 257.35c5.13,5.16 11.88,7.73 18.63,7.73 6.75,0 13.49,-2.57 18.63,-7.73 10.29,-10.29 10.29,-26.99 0,-37.28l-210.74 -210.95c-10.29,-10.29 -26.96,-10.29 -37.25,0 -10.29,10.29 -10.29,26.99 0,37.28l210.73 210.95z"/>
  <path class="fil0" d="M381.62 344.19l297.52 -297.79c10.29,-10.29 10.29,-26.99 0,-37.28 -10.29,-10.29 -26.96,-14.84 -37.25,-4.52 -214.75,211.85 -424.3,422.69 -636.17,637.38 -10.29,10.29 -8.33,26.99 1.93,37.28 5.13,5.16 12.86,7.73 19.61,7.73 6.75,0 13.97,-2.57 19.1,-7.73l297.77 -297.76 297.63 297.79c5.13,5.16 11.96,7.73 18.68,7.73 6.72,0 13.52,-2.57 18.65,-7.73 10.29,-10.29 10.32,-26.99 0.03,-37.28l-297.5 -297.82z"/>
 </g>
</svg>
