<?xml version="1.0" encoding="UTF-8"?>
<!DOCTYPE svg PUBLIC "-//W3C//DTD SVG 1.1//EN" "http://www.w3.org/Graphics/SVG/1.1/DTD/svg11.dtd">
<!-- Creator: CorelDRAW 2017 -->
<svg xmlns="http://www.w3.org/2000/svg" xml:space="preserve" width="23.2832mm" height="23.2832mm" version="1.1" style="shape-rendering:geometricPrecision; text-rendering:geometricPrecision; image-rendering:optimizeQuality; fill-rule:evenodd; clip-rule:evenodd"
viewBox="0 0 2328.32 2328.32"
 xmlns:xlink="http://www.w3.org/1999/xlink"
 enable-background="new 0 0 500 500">
 <defs>
  <style type="text/css">
   <![CDATA[
    .fil1 {fill:#B99653}
    .fil0 {fill:#5B5B5B;fill-rule:nonzero}
   ]]>
  </style>
 </defs>
 <g id="Слой_x0020_1">
  <metadata id="CorelCorpID_0Corel-Layer"/>
  <g id="_2544461637936">
   <path class="fil0" d="M1884.64 2077.31c-185.81,152.57 -449,251.34 -726.37,251.02 -240.52,-0.28 -492.13,-74.49 -713.98,-251.85l112.43 -140.73c186.97,149.48 398.96,212.02 601.55,212.26 234.76,0.27 456.36,-82.37 611.81,-210.01l114.56 139.31z"/>
   <path class="fil0" d="M20.58 1362.94c-45.76,-236.05 -7.37,-514.53 124.91,-758.27 114.61,-211.22 299.73,-397.14 561.69,-508.01l70.01 166.19c-220.06,93.13 -375.87,249.85 -472.59,428.09 -111.99,206.37 -144.79,440.6 -106.52,638.05l-177.5 33.95z"/>
   <path class="fil0" d="M2130.24 1328.99c38.27,-197.45 5.47,-431.68 -106.53,-638.05 -96.71,-178.24 -252.52,-334.96 -472.58,-428.09l70.01 -166.19c261.96,110.87 447.08,296.79 561.69,508.01 132.27,243.74 170.66,522.22 124.91,758.27l-177.5 -33.95z"/>
  </g>
  <path class="fil1" d="M585.35 1549.9c-42.07,42.01 -42.07,110.39 0,152.42 42.03,42.06 110.41,42.06 152.16,0l30.38 -30.09 126.71 126.67c21.66,21.7 56.39,21.7 78.08,0l188.82 -188.82c21.7,-21.66 21.7,-56.4 0,-78.09l-126.67 -126.67 225.67 -225.96c48.29,24.95 103.33,39.04 161.4,39.04 194.76,0 352.63,-157.85 352.63,-352.63 0,-194.75 -157.87,-352.63 -352.63,-352.63 -194.78,0 -352.63,157.88 -352.63,352.63 0,58.07 14.09,113.11 39.04,161.4l-522.96 522.73zm700.92 -684.13c0,-74.86 60.76,-135.63 135.62,-135.63 74.87,0 135.63,60.77 135.63,135.63 0,74.87 -60.76,135.63 -135.63,135.63 -74.85,0 -135.62,-60.77 -135.62,-135.63z"/>
 </g>
</svg>
