<?xml version="1.0" encoding="UTF-8"?>
<!DOCTYPE svg PUBLIC "-//W3C//DTD SVG 1.1//EN" "http://www.w3.org/Graphics/SVG/1.1/DTD/svg11.dtd">
<!-- Creator: CorelDRAW 2019 (64-Bit) -->
<svg xmlns="http://www.w3.org/2000/svg" xml:space="preserve" width="10.4418mm" height="22.373mm" version="1.1" style="shape-rendering:geometricPrecision; text-rendering:geometricPrecision; image-rendering:optimizeQuality; fill-rule:evenodd; clip-rule:evenodd"
viewBox="0 0 1044.18 2237.3"
 xmlns:xlink="http://www.w3.org/1999/xlink"
 xmlns:xodm="http://www.corel.com/coreldraw/odm/2003">
 <defs>
  <style type="text/css">
   <![CDATA[
    .fil0 {fill:#B99653;fill-rule:nonzero}
   ]]>
  </style>
 </defs>
 <g id="Слой_x0020_1">
  <metadata id="CorelCorpID_0Corel-Layer"/>
  <path class="fil0" d="M147.17 7.4l0 1732.99 577.64 0 0 150 -727.64 0 0 -1882.99 150 0zm574.18 937.31c-55.22,0 -100,44.76 -100,100 0,55.24 44.78,100 100,100 55.22,0 100,-44.76 100,-100 0,-55.24 -44.78,-100 -100,-100zm320 0l0 1300 -150 0 0 -582.49c-293.07,-39.82 -486.28,-207.25 -580.1,-414.91 -44.41,-98.31 -66.14,-205.87 -65.28,-313.19 0.87,-107.34 24.38,-214.29 70.36,-311.37 103.82,-219.15 320.1,-389.01 647.09,-402.96l5.86 149.42c-263.22,11.22 -435.91,144.98 -517.59,317.4 -36.8,77.69 -55.6,163.11 -56.3,248.69 -0.69,85.59 16.75,171.61 52.38,250.49 71.79,158.92 219.32,288.15 443.58,325.06l0 -566.14 150 0z"/>
 </g>
</svg>
