<?xml version="1.0" encoding="UTF-8"?>
<!DOCTYPE svg PUBLIC "-//W3C//DTD SVG 1.1//EN" "http://www.w3.org/Graphics/SVG/1.1/DTD/svg11.dtd">
<!-- Creator: CorelDRAW 2021 (64-Bit) -->
<svg xmlns="http://www.w3.org/2000/svg" xml:space="preserve" width="82.2112mm" height="42.3332mm" version="1.1" style="shape-rendering:geometricPrecision; text-rendering:geometricPrecision; image-rendering:optimizeQuality; fill-rule:evenodd; clip-rule:evenodd"
viewBox="0 0 8221.12 4233.32"
 xmlns:xlink="http://www.w3.org/1999/xlink"
 xmlns:xodm="http://www.corel.com/coreldraw/odm/2003">
 <defs>
  <style type="text/css">
   <![CDATA[
    .fil0 {fill:#666666}
    .fil4 {fill:#8F713D}
    .fil1 {fill:#A68852}
    .fil3 {fill:#BE9E61}
    .fil5 {fill:#D9BB85}
    .fil2 {fill:#FDFDFD}
   ]]>
  </style>
 </defs>
 <g id="Слой_x0020_1">
  <metadata id="CorelCorpID_0Corel-Layer"/>
  <g id="_1412327756256">
   <path class="fil0" d="M3723.72 2328.06l-0.76 -409.38 87.79 11.48c18.72,67.4 15.39,157.09 15.26,234.31 -0.21,119.08 18.19,156.86 -102.29,163.59zm-0.06 -805.95l300.26 -5.26 0.02 -200.41 -616.24 -0.66 0.05 1218.68c162.28,-0.37 337.23,6.49 497.92,-5.23 173.31,-12.64 225.45,-62.12 234.07,-241.09 5.53,-114.44 15.86,-373.94 -32.49,-462.78 -59.99,-110.24 -249.94,-98.86 -384.5,-98.86l0.91 -204.39z"/>
   <path class="fil0" d="M6780.01 1657.93c0,-76.95 -4.6,-98.34 28.48,-146.51 119.3,-7.19 85.5,87.68 84.97,335.21l314.29 3.45c0,-310.93 1.28,-555.7 -387.12,-547.55 -132.92,2.79 -232.41,53.86 -294.2,129.54 -67.18,82.33 -62.85,220.68 -62.89,349.03 -0.12,427.64 -64.44,768.38 357.14,779.63 393.31,10.49 387.14,-286.41 387.14,-519.44l-314.27 4.48c0.05,66.44 1.77,135.46 -1.1,201.62 -3.79,87.75 0.94,109.89 -84.76,104.91 -54.54,-80.24 -27.68,-574.77 -27.68,-694.37z"/>
   <path class="fil0" d="M4845.16 1835.24l-0.91 -313.54c112.17,7.39 101.2,40.87 101.15,149.77 -0.07,111.73 16.1,159.77 -100.24,163.77zm-0.05 206.47c142.67,0.08 278.17,3.06 335.31,-108.48 38.73,-75.59 33.98,-317.25 21.48,-407.29 -37.52,-270.29 -363.84,-210.16 -671.78,-210.05l-0.03 1219.12 313.97 -6.33 1.05 -486.97z"/>
   <polygon class="fil0" points="5871.45,1562.67 6081.35,1562.6 6081.43,1315.91 5555.78,1315.84 5555.75,2534.4 6101.61,2534.4 6101.59,2287.63 5870.42,2287.61 5871.51,2028 6067.66,2027.95 6067.74,1794.89 5870.4,1794.94 "/>
   <polygon class="fil0" points="7528.15,1562.65 7714.7,1562.55 7714.65,2530.89 8028.89,2534.35 8029.39,1564.17 8215.18,1561.34 8215.18,1316.86 7528.2,1315.91 "/>
  </g>
  <g id="_1412327746560">
   <path class="fil1" d="M7998.45 3190.61c7.54,-40.28 -7.19,-25.85 26.47,-41.19 36.24,18.53 19.09,-20.99 25.96,53.78l-1.34 219.93 171.6 0.04 -0.03 -656.4 -171.62 0.05 1.32 165.38c-0.16,67.38 12.58,61.39 -25.89,80.94 -29.5,-13.39 -28.52,-4.84 -26.69,-109.12l0.5 -137.23 -170.77 -0.17 -0.08 656.59 170.85 0.05 -0.28 -232.65z"/>
   <path class="fil1" d="M4945.51 3423.27c193.98,-0.69 164.09,-86.16 161.65,-369.41 -1.71,-197.34 -8.86,-136.19 29.97,-150.59 36,20.61 22.14,-0.93 24.28,66.98l-1.46 452.97 170.27 0.05 -0.1 -657.02 -391.8 6.69 0.98 460.49c-4.43,100.09 -2.37,53.88 -55.72,94.23l-0.26 91.02 62.19 4.59z"/>
   <path class="fil1" d="M3562.96 2903.14c67.91,3.34 54.57,-3.75 53.64,80.71l-1.49 439.44 171.51 -0.16 -0.05 -656.31 -393.02 -0.16 -0.03 656.64 169.54 0 -0.13 -205.14 0.03 -315.02z"/>
   <path class="fil1" d="M5821.44 3423.22c49.96,-28.67 85.69,-220.15 107.44,-283.25l2.33 283.24 141.93 -0.02 0.08 -656.42 -141.73 0.27 -95.62 275.82 -1.02 -276.07 -142.04 -0.04 0 656.57 128.63 -0.1z"/>
   <path class="fil1" d="M7258.49 3325.49c-34.72,-49.35 -35.51,-409.62 0,-460.57 40.24,12.13 15.12,-26.94 34.3,29.13l2.8 338.83c0.19,121.84 -16.41,85.32 -37.1,92.61zm-187.07 -79.95c12.7,232.68 236.65,210.55 318.44,158.95 105.72,-66.73 81.78,-309.67 74.22,-460.7 -11.76,-234.2 -243.2,-209.17 -320.12,-155.42 -103.92,72.62 -80.74,307.03 -72.54,457.17z"/>
   <path class="fil1" d="M4343.32 3325.6c-34.67,-49.46 -35.27,-409.84 0,-460.74 39.33,12.09 15.03,-26.9 34.24,29.22 3.15,9.23 2.92,50.92 2.84,63.01l-3.29 338.48c-18.74,55.88 2.55,17.15 -33.79,30.03zm-189.05 -257.99c-0.53,194.16 -23.4,369.61 202.74,369.42 166.92,-0.13 192.82,-99.69 192.87,-273.61 0.04,-185.05 36.95,-441.93 -231.4,-408.76 -159.76,19.76 -164.47,152.4 -164.21,312.95z"/>
   <polygon class="fil1" points="6601.39,2903.09 6727.56,2903.35 6727.57,2766.75 6656.29,2766.79 6587.76,2766.82 6431.98,2766.82 6432,3423.13 6601.28,3423.29 6601.33,2917.07 "/>
  </g>
  <g id="_1412327746512">
   <path class="fil2" d="M1504.74 1137.3l238.37 55.27 1.77 236.49 235.91 60.2 1.83 -233.68 230.51 51.47 0.18 236.2 233.24 60.28 1.91 -233.37 125.76 28.21c18.53,276.06 56.21,546.47 95.5,810.84 139.6,939.23 -313.25,832.49 -910.66,1285.2 -83.93,63.61 -214.89,188.16 -262.4,204.55 -79.16,-106.33 -351.83,-293.16 -509.62,-382 -562.61,-316.77 -739.93,-405.13 -636.41,-1107.64 39.49,-268.02 73.62,-528.68 96.94,-807.54l129.34 -34.64 0.84 235.66 233.69 -54.89 2.45 -240.08 227.73 -55.21 3.21 236.72 234.2 -58.61 2.38 -234.99 223.33 -58.44zm753.06 383.77c13.22,-18.25 4.23,-8.52 21.4,-24.49l54.55 -41.8c34.87,-27.14 43.36,-41.57 84.53,-56.95l2.55 169.44c-57.27,-9.16 -121.7,-21.29 -163.03,-46.2zm-1651.16 -125.65c40.57,19.79 135.86,91.47 164.33,131.88l-164.67 40.07 0.34 -171.95zm1177.65 14.8c40.19,-43.96 111.49,-98.38 170.22,-128.73l-3.57 172.16 -166.65 -43.43zm-707.43 -131.59l162.89 133.99 -168.6 38.15 5.71 -172.14zm419.38 -263.95c0.45,-173.14 -8.12,-134.99 8,-296.34 0.6,-6.01 3.99,-6.77 6.03,-10.13 34.19,47.52 19.57,179.99 19.38,265.41 -0.21,96.58 10.88,102.68 -19.38,133.54 -22.79,-32.33 -14.18,-42.31 -14.03,-92.48zm-344.06 -279.73c191.06,61.92 124.15,-47.55 329.54,-28.2l2.23 187.34c-168.53,-71.77 -262.79,33.77 -331.77,-159.14zm-819.75 156.55c-5.45,180.48 7.34,348.63 -6.51,534.19 -36.58,490.05 -211.21,1131.36 -52.05,1468.59 152.87,323.88 599.15,453.11 942.26,713.79 178.25,135.43 177.99,162.67 294.14,265.67 115.61,-97.85 99.73,-116.92 286.79,-259.33 342.91,-261.05 800.1,-403.33 944.94,-711.08 134.52,-285.79 54.04,-655.31 9.45,-965.54 -54.41,-378.62 -64.12,-660.08 -62.36,-1046.29 -63.84,-40.18 -248.32,-71.51 -337.23,-102.47 -270.08,-94.03 -493.37,-204.69 -714.47,-380.32 -47.51,-37.75 -80.42,-75.8 -127.12,-104.7l-244.93 192.08c-502.44,331.95 -838.52,333.52 -932.91,395.41z"/>
   <path class="fil1" d="M332.43 891.5c94.39,-61.89 430.47,-63.46 932.91,-395.41l244.93 -192.08c46.7,28.9 79.61,66.95 127.12,104.7 221.1,175.63 444.39,286.29 714.47,380.32 88.91,30.96 273.39,62.29 337.23,102.47 -1.76,386.21 7.95,667.67 62.36,1046.29 44.59,310.23 125.07,679.75 -9.45,965.54 -144.84,307.75 -602.03,450.03 -944.94,711.08 -187.06,142.41 -171.18,161.48 -286.79,259.33 -116.15,-103 -115.89,-130.24 -294.14,-265.67 -343.11,-260.68 -789.39,-389.91 -942.26,-713.79 -159.16,-337.23 15.47,-978.54 52.05,-1468.59 13.85,-185.56 1.06,-353.71 6.51,-534.19zm1177.84 3341.82c122.41,-117.59 144.11,-312.59 676.06,-626.3 278.68,-164.35 585.31,-306.78 726.8,-573.85 175.02,-330.33 101.31,-730.4 47.51,-1114.2 -27.86,-198.84 -49.77,-391.56 -61.47,-597.08 -13.11,-230.17 8.89,-390.15 21.35,-607.93 -286.39,-40.18 -586.85,-142.38 -815.56,-252.73 -372.54,-179.81 -517.6,-406.5 -594.69,-461.24l-135.56 140.06c-42.29,39.94 -88.16,78.95 -140.93,118.89 -104.65,79.22 -193.31,139.15 -327.74,206.38 -209.43,104.74 -546.1,215.78 -806.33,248.45 12.91,225.69 33.8,386.57 20.61,626.26 -33.38,606.94 -245.32,1250.83 -12.82,1693.46 214.73,408.82 942.21,583.65 1269.44,1015.8 44.68,59.02 85.24,130.29 133.33,184.03z"/>
   <path class="fil1" d="M901.27 1876.65l468.67 0.54c2.64,280.96 -53.51,486.44 -108.03,750.63 -56.72,274.83 16.75,235.36 -292.08,234.5l179.09 -807.01 -247.52 -0.34 -0.13 -178.32zm595.39 1822.31c33.54,-83.71 12.43,-516.53 13.38,-617.66 2.36,-254.25 13.77,-1821.24 -5.3,-1944l-223.33 58.44 -2.38 234.99 -234.2 58.61 -3.21 -236.72 -227.73 55.21 -2.45 240.08 -233.69 54.89 -0.84 -235.66 -129.34 34.64c-23.32,278.86 -57.45,539.52 -96.94,807.54 -103.52,702.51 73.8,790.87 636.41,1107.64 157.79,88.84 430.46,275.67 509.62,382z"/>
   <path class="fil3" d="M1600.48 2191.61c0.08,-113.87 -4.2,-237.03 74.88,-286.38 75.21,-46.93 212.18,-49.75 303.87,-33.49 199.78,35.4 216.77,233.18 182.19,340.98 -18.86,58.82 -45.23,58.18 -83.81,95.16 110.79,57.86 111.37,162.12 102.14,307.99 -23.79,376.45 -434.49,260.82 -506.33,192.72 -84.87,-80.47 -72,-204.2 -72.92,-343.94l246.27 6.29c0.03,50.22 -6.71,174.03 0.5,215.59 13.84,79.67 78.48,83.86 87.37,-14.36 24.72,-273.07 -26.25,-264.55 -146.64,-279.13l0.11 -128.97c96.47,-11.83 139.87,17.4 146.78,-98.83 5.1,-85.95 17.87,-162.97 -67.57,-161.44 -29.81,53.93 -20.86,110.65 -20.69,186.66l-246.15 1.15zm-103.82 1507.35c47.51,-16.39 178.47,-140.94 262.4,-204.55 597.41,-452.71 1050.26,-345.97 910.66,-1285.2 -39.29,-264.37 -76.97,-534.78 -95.5,-810.84l-125.76 -28.21 -1.91 233.37 -233.24 -60.28 -0.18 -236.2 -230.51 -51.47 -1.83 233.68 -235.91 -60.2 -1.77 -236.49 -238.37 -55.27c19.07,122.76 7.66,1689.75 5.3,1944 -0.95,101.13 20.16,533.95 -13.38,617.66z"/>
   <path class="fil4" d="M1600.48 2191.61l246.15 -1.15c-0.17,-76.01 -9.12,-132.73 20.69,-186.66 85.44,-1.53 72.67,75.49 67.57,161.44 -6.91,116.23 -50.31,87 -146.78,98.83l-0.11 128.97c120.39,14.58 171.36,6.06 146.64,279.13 -8.89,98.22 -73.53,94.03 -87.37,14.36 -7.21,-41.56 -0.47,-165.37 -0.5,-215.59l-246.27 -6.29c0.92,139.74 -11.95,263.47 72.92,343.94 71.84,68.1 482.54,183.73 506.33,-192.72 9.23,-145.87 8.65,-250.13 -102.14,-307.99 38.58,-36.98 64.95,-36.34 83.81,-95.16 34.58,-107.8 17.59,-305.58 -182.19,-340.98 -91.69,-16.26 -228.66,-13.44 -303.87,33.49 -79.08,49.35 -74.8,172.51 -74.88,286.38z"/>
   <path class="fil5" d="M901.4 2054.97l247.52 0.34 -179.09 807.01c308.83,0.86 235.36,40.33 292.08,-234.5 54.52,-264.19 110.67,-469.67 108.03,-750.63l-468.67 -0.54 0.13 178.32z"/>
   <path class="fil1" d="M1152.18 734.95c68.98,192.91 163.24,87.37 331.77,159.14l-2.23 -187.34c-205.39,-19.35 -138.48,90.12 -329.54,28.2z"/>
   <path class="fil1" d="M2257.8 1521.07c41.33,24.91 105.76,37.04 163.03,46.2l-2.55 -169.44c-41.17,15.38 -49.66,29.81 -84.53,56.95l-54.55 41.8c-17.17,15.97 -8.18,6.24 -21.4,24.49z"/>
   <path class="fil1" d="M1784.29 1410.22l166.65 43.43 3.57 -172.16c-58.73,30.35 -130.03,84.77 -170.22,128.73z"/>
   <path class="fil3" d="M606.3 1567.37l164.67 -40.07c-28.47,-40.41 -123.76,-112.09 -164.33,-131.88l-0.34 171.95z"/>
   <polygon class="fil3" points="1071.15,1450.77 1239.75,1412.62 1076.86,1278.63 "/>
   <path class="fil3" d="M1496.24 1014.68c-0.15,50.17 -8.76,60.15 14.03,92.48 30.26,-30.86 19.17,-36.96 19.38,-133.54 0.19,-85.42 14.81,-217.89 -19.38,-265.41 -2.04,3.36 -5.43,4.12 -6.03,10.13 -16.12,161.35 -7.55,123.2 -8,296.34z"/>
  </g>
 </g>
</svg>
