<?xml version="1.0" encoding="UTF-8"?>
<!DOCTYPE svg PUBLIC "-//W3C//DTD SVG 1.1//EN" "http://www.w3.org/Graphics/SVG/1.1/DTD/svg11.dtd">
<!-- Creator: CorelDRAW 2020 (64-Bit) -->
<svg xmlns="http://www.w3.org/2000/svg" xml:space="preserve" width="13.6702mm" height="4.2332mm" version="1.1" style="shape-rendering:geometricPrecision; text-rendering:geometricPrecision; image-rendering:optimizeQuality; fill-rule:evenodd; clip-rule:evenodd"
viewBox="0 0 1367.02 423.32"
 xmlns:xlink="http://www.w3.org/1999/xlink"
 xmlns:xodm="http://www.corel.com/coreldraw/odm/2003">
 <defs>
  <style type="text/css">
   <![CDATA[
    .fil0 {fill:#B99653;fill-rule:nonzero}
   ]]>
  </style>
 </defs>
 <g id="Слой_x0020_1">
  <metadata id="CorelCorpID_0Corel-Layer"/>
  <path class="fil0" d="M246.89 368.61l-1.92 46.24 -247.29 0c2.46,-51.71 3.75,-123.37 3.75,-214.98 0,-78.75 -1.29,-143.55 -3.75,-194.29l58.47 0c-2.57,42.38 -3.76,107.18 -3.76,194.29 0,71.65 -1.18,129.05 -3.54,172.29 62.87,0 128.95,-1.19 198.04,-3.55zm125.63 46.24l-59.65 0c3.11,-67.91 4.73,-139.57 4.73,-214.98 0,-74.13 -1.62,-138.93 -4.73,-194.29l59.65 0c-2.9,57.28 -4.4,121.97 -4.4,194.29 0,75.84 1.5,147.51 4.4,214.98zm416.77 -8.48c-34.33,11.27 -69.08,16.96 -104.05,16.96 -73.49,0 -128.95,-19.63 -166.39,-58.9 -37.44,-39.26 -56.11,-87.86 -56.11,-145.68 0,-58.47 20.39,-109.54 60.94,-153.2 40.66,-43.77 97.09,-65.55 169.17,-65.55 25.96,0 50.53,3 73.81,9.12l-7.83 52.14c-34.54,-8.38 -62.44,-12.55 -83.57,-12.55 -50.74,0 -89.58,15.34 -116.5,46.02 -26.93,30.68 -40.34,68.76 -40.34,114.25 0,45.71 15.45,85.72 46.35,120.05 30.89,34.44 74.55,51.6 130.87,51.6 10.3,0 25.64,-1.61 46.23,-4.72 -3.64,-21.78 -5.35,-47.2 -5.35,-76.07 0,-24.34 -1.51,-48.16 -4.4,-71.34l57.17 0c-1.71,27.69 -2.46,56.86 -2.46,87.65 0,13.2 0.75,43.24 2.46,90.22zm160.6 8.48l-59.64 0c3.11,-67.91 4.72,-139.57 4.72,-214.98 0,-74.13 -1.61,-138.93 -4.72,-194.29l59.64 0c-2.9,57.28 -4.4,121.97 -4.4,194.29 0,75.84 1.5,147.51 4.4,214.98zm414.86 0l-68.13 0c0,-8.15 -15.77,-38.3 -47.19,-90.55 -30.36,-50.42 -52.9,-84.64 -67.59,-102.45l-3.44 0c-12.55,16.96 -32.08,50.32 -58.46,99.99 -27.69,52.13 -41.52,83.15 -41.52,93.01l-65.98 0c0,-6.33 22.1,-42.48 66.29,-108.45 43.88,-65.34 71.13,-103.11 81.76,-113.08l0 -3.22c-11.27,-12.77 -34.55,-44.95 -69.74,-96.45 -36.26,-53.21 -54.38,-82.6 -54.38,-88.07l67.58 0c0,6.33 12.55,30.68 37.66,72.95 24.77,41.52 42.48,68.55 53.1,81.11l3.22 0c10.62,-12.98 27.68,-40.34 50.85,-82.07 23.28,-41.63 34.97,-65.66 34.97,-71.99l66.31 0c0,5.9 -19.21,34.22 -57.51,84.97 -37.12,48.59 -62.33,79.7 -75.74,93.32l0 3.12c15.87,17.8 44.2,57.61 84.86,119.41 42.05,63.93 63.08,100.09 63.08,108.45z"/>
 </g>
</svg>
