<?xml version="1.0" encoding="UTF-8"?>
<!DOCTYPE svg PUBLIC "-//W3C//DTD SVG 1.1//EN" "http://www.w3.org/Graphics/SVG/1.1/DTD/svg11.dtd">
<!-- Creator: CorelDRAW 2020 (64-Bit) -->
<svg xmlns="http://www.w3.org/2000/svg" xml:space="preserve" width="70.8658mm" height="21.1666mm" version="1.1" style="shape-rendering:geometricPrecision; text-rendering:geometricPrecision; image-rendering:optimizeQuality; fill-rule:evenodd; clip-rule:evenodd"
viewBox="0 0 7086.58 2116.66"
 xmlns:xlink="http://www.w3.org/1999/xlink"
 xmlns:xodm="http://www.corel.com/coreldraw/odm/2003">
 <defs>
  <style type="text/css">
   <![CDATA[
    .fil0 {fill:#B99653}
    .fil1 {fill:#B99653;fill-rule:nonzero}
   ]]>
  </style>
 </defs>
 <g id="Слой_x0020_1">
  <metadata id="CorelCorpID_0Corel-Layer"/>
  <g id="_2212439193904">
   <path class="fil0" d="M336.22 1143.61c-5.97,-4 -2.93,-6.57 -9.57,-8 -8.74,-1.9 -4.92,5.38 -4.92,8 0,8.05 -1.92,-2.77 -11.88,14.19 -3.63,6.19 -6.46,11.55 -9.92,17.61 -22.01,38.45 -49.25,83.25 -69.97,121.27l-50.28 87.35c-22.02,38.48 -49.19,83.14 -69.97,121.27 -20.59,37.81 -49.04,82.88 -69.99,121.25 -4.74,8.68 -39.62,66.91 -39.62,70.49 0,3.91 0.7,4 1.45,7.25 19.53,0 578.57,1.93 592.93,-0.94l5.6 0.54c3.28,0.57 6.55,0.45 9.93,0.42 6.77,-0.05 13.54,-0.02 20.31,-0.02 -1.79,-3.4 -2.48,-3.78 -2.9,-8.7 9.49,0.21 9.96,4.9 18.62,4.94 24.74,0.11 -2.09,-5.83 15.35,-18.78 0.24,-0.19 0.57,-0.46 0.81,-0.64 11.92,-8.93 15.96,1.01 15.93,-36.22 -0.01,-23.19 0,-46.37 0,-69.55 -5.83,1.24 -1.97,2.28 -5.61,-0.26 -2.5,-1.74 -2.75,-3.06 -3.08,-6.98 3.41,-0.8 4.28,-1.35 8.69,-1.45 0,-20.84 -3.04,-8.89 -14.08,-25.04 -3.82,-5.59 -2.91,-6.49 -10.66,-9.62 -12.82,-5.18 -131.59,-3.01 -150.56,-3.01 -68.58,0 -137.15,0 -205.73,0l157.16 -271.97c3.95,-7.53 2.17,-1.76 -2.14,-7.64 8.14,-5.45 5.43,-2.26 7.25,-2.9 0.54,-1.15 0.22,-0.8 0.46,-2.11 0.13,-0.77 0.18,-1.53 0.45,-2.86 0.94,-4.78 0.35,-3.2 2.05,-6.52 2.31,-4.5 4.98,-5.06 3.54,-12.22 -0.17,-0.87 -2.94,-14.62 -2.98,-14.7 -3.36,-6.22 -8.56,-0.71 -12.22,-0.71 -4.71,0 -1.09,-1.25 -7.24,-2.9l0 -4.34c4.41,-0.1 5.28,-0.66 8.69,-1.45l0 -2.9c-3.9,-1.04 -10.51,-5.3 -14.21,-7.52 -4.66,-2.81 -8.93,-5.25 -13.81,-7.92l-56.08 -32.29c-4.86,-2.8 -8.69,-4.96 -13.92,-7.82 -6.09,-3.34 -8.06,-6.56 -16.43,-6.75 -1.06,4.55 -0.28,7.32 -1.45,10.15zm331.77 541.84l0.43 -0.43c-0.02,0.03 -0.57,0.29 -0.43,0.43zm-173.85 117.35l0 -1.45 -1.69 1.21 1.69 0.24c4.41,1.18 9.55,6.07 13.03,8.69 30.55,23.01 69.47,47.49 103.37,64.69 36.67,18.61 57.87,29.69 100.36,44.53 110.31,38.54 179.05,45.8 288.86,45.8 87.03,0 199.51,-23.15 279.41,-55.26 19.75,-7.94 39.56,-15.79 58.64,-25.39 43.62,-21.92 78.81,-41.4 117.7,-70.64 19.49,-14.65 10.71,-6.79 18.43,-9.26 4.53,-1.45 1.37,-1.66 6.99,-3.33 8.96,-2.67 3.29,2.01 2.72,8.86 9.57,0 7.13,1.07 13.04,-2.89 2.69,4.01 15.33,19.37 18.84,21.73 -0.02,0.03 -13.72,20.2 7.24,10.14 2.08,3.11 6.93,8.96 9.78,11.95 3.42,3.58 17.04,19.36 17.4,23.13 0.67,7.12 -6.71,8.62 3.03,11.21l3.11 -7.17c1.28,4.8 12.27,15.53 17.39,23.18 -1.41,1.62 -1.02,1.16 -2.53,3.26 -9.02,12.5 -10.61,2.39 -19.2,14.12 6.36,0.15 4.51,0.98 10.14,1.45 -2.5,9.36 -78.5,56.22 -87.56,61.67 -25.18,15.16 -38.26,21.52 -64.08,34.43 -11.42,5.71 -21.46,10.72 -33.39,15.87l-70.48 28.04c-99.07,33.71 -198.74,52.32 -297.45,55.58l-62.59 0c-152.36,-5.08 -301.63,-47.26 -441.99,-127.57 -20.12,-11.51 -100.86,-63.67 -115.97,-81.06 2.7,-5.1 4.91,-7.28 8.5,-11.78l55.81 -70.23c3.32,-2.78 -0.04,-1.87 6.68,-2.02 -2.49,-5.19 -2.3,-3.34 0.85,-7.7 3.26,-4.5 4.23,-4.39 6.49,-4.81 6.87,-1.27 -0.84,1.15 3.99,-0.13 3.76,-0.99 1.27,-2.13 8.95,-6.19 -4.71,-8.9 -5.49,-1.06 -3.48,-6.77 0.76,-2.19 2.73,-1.51 5.74,-0.17 10.7,4.71 -1.47,8.39 13.68,8.39 -0.75,-2.81 -0.27,-2.24 -1.45,-4.35zm1427.05 -595.45c3.68,0.99 12.93,9.19 1.44,10.15 -2.05,-4.29 -1.44,-4.05 -1.44,-10.15zm-52.16 8.69l-7.24 0c0.1,-4.41 0.65,-5.28 1.44,-8.69 0.29,0.03 7.26,-2.7 5.8,8.69zm-502.72 -905.48c-0.79,-4.23 3.09,0.37 1.47,0.27 -2.95,-0.18 -0.92,2.77 -1.47,-0.27zm31.87 -56.5c-8.58,-4.12 -2.94,0.72 -9.12,-6.82 -3.85,-4.7 -4.8,-4.74 -11.17,-6.23l-25.66 61.27c-2.78,7.03 -5.91,15.28 -9.11,21.31 2.82,4.21 2.94,1.95 4.35,7.25 -0.74,0.36 -17.8,-1.03 -7.97,19.54 4.09,8.57 11.42,8.2 24.4,14.74 72.6,36.59 102.34,54.62 165.93,104.99l30.97 26.98c4.4,4.46 6.09,5.55 10.8,9.48 12.74,10.65 53.67,55.86 65.44,70.75 41.4,52.41 69.55,93.93 99.19,152.9 2.57,5.12 3.6,7.29 5.92,12.91 2.21,5.35 4.52,8.98 6.61,13.67 24.68,55.48 45.49,115.82 57.37,175.89 15.95,80.61 22.68,169.87 11.76,252.49 -0.66,4.94 -2.46,14.82 -2.46,20.72l5.79 1.45c0.81,9.73 3.48,5.85 4.65,16.43 1.96,17.64 33.29,-6.98 21.43,15.45l31.84 5.75c4.65,1.51 11.86,2.35 17.43,2.92 7.47,0.77 10.49,2.76 17.37,2.92l1.67 -8.65c15.96,0.23 14.31,0.4 15.72,4.3 2.99,-0.07 7.34,0.27 9.99,-5.9 2.21,-5.14 -1.1,-2.56 -1.3,-11.48 17.5,-1.46 3.21,1.44 15.94,1.44 6.28,0 7.92,-1.25 8.41,-6.73l5.47 -40.23c4.36,-30.76 3.5,-83.83 3.5,-113.85 0,-115.07 -34.91,-255.12 -80.71,-361.16 -9.07,-20.99 -18.38,-39.89 -28.41,-59.97 -14.05,-28.12 -48.24,-84.47 -66.79,-109.96l-52.55 -67.71c-2.46,-2.93 -2.4,-3.51 -5.14,-6.44l-21.17 -23.75c-5.59,-7.01 -14.85,-15.14 -21.58,-21.88 -7.84,-7.83 -14.66,-14.58 -22.45,-22.45 -4.59,-4.63 -6.96,-6.08 -11.59,-10.15 -61.13,-53.88 -119.84,-99.58 -194.77,-137.01l-59.86 -28.51c-3.91,14.62 -28.06,1.53 -24.88,10.35 0.68,1.9 12.32,12.6 14.74,22.98zm-1366.2 983.72c12.02,8.05 -3.18,19.45 -8.4,14.24 -3.09,-3.1 -0.75,-1.92 -0.5,-2.92 0.06,-0.27 1.75,-3.6 2.3,-4.73 2.59,-5.29 0.68,-5.01 6.6,-6.59zm-39.12 -161.4l0 -3.17c0.09,-54.43 8.08,-112.81 17.26,-158.63 9.33,-46.51 22.79,-94.54 37.61,-139.15 30.44,-91.67 80.28,-183.02 138.23,-260.18 25.07,-33.39 52.32,-65.46 81.81,-94.95 7.59,-7.59 14.15,-14.11 21.72,-21.73l23.33 -21.58c8.34,-6.66 15.31,-13.17 23.6,-19.87 4.34,-3.5 8.19,-6.99 12.64,-10.54 33.05,-26.39 68.15,-50.61 104.43,-72.32 16.94,-10.13 53.51,-31.6 71.28,-38.84 22.65,-9.22 6.47,-2.43 17.59,-4.2 6.06,-0.96 5.12,-3.06 9.73,-6.14 2.71,5.66 0.62,5.38 6.3,9.74 0.44,0.33 4.18,2.38 4.39,2.43 3.3,0.72 6.55,-1.23 13.94,2.32 -2.06,7.71 -6.8,10.04 -13.04,13.03 1.25,5.39 2.75,6.51 2.89,13.05l4.35 0c1.7,-6.35 1.11,-2.5 4.16,-5.98 3.88,-4.44 2.59,-7.94 9.03,-10.02 6.37,-2.07 8.22,0.58 10.7,6.6 3.45,8.38 9.08,17.66 10.38,26.11 1.74,11.35 -7.46,20.92 0.5,26.75 3.31,-6.26 2.9,-5.18 2.9,-14.49l2.9 0c2.14,9.21 11.59,24.47 11.59,31.87 0,3.31 -13.36,9.81 -17.39,10.15l0 2.89c11.49,0 15.61,5.82 23.18,-2.89 1.13,4.8 0.45,4.93 -0.82,9.19 -0.11,0.37 -0.22,0.76 -0.33,1.14 -1.81,6.26 -0.24,5.9 -5.52,9.07 -6.37,3.83 -11.99,7.77 -17.95,3.78 -2.66,6.43 2.56,3.31 -7.67,8.23 -28.65,13.78 -55.96,29.5 -82.99,45.98 -15.78,9.62 -28.85,19.93 -43.8,30.1l-80.35 67.42c-17.46,16.8 -31.65,34.54 -44.88,47.84 -15.36,15.45 -28.19,34.09 -41.25,51.48 -38.23,50.9 -67.7,106.1 -93.63,164.25 -57.96,130.01 -79.28,287.24 -58.38,430.4 0.88,6.07 -0.3,13 -3.92,18.72 -3.46,5.46 -3.52,3.34 -8.05,4.98 -3.93,1.42 -3.01,1.81 -6.41,5.19 -5,4.99 -31.11,8.53 -38.65,9.16 -0.17,-7.58 0.83,-3.77 -2.42,-6.48 -4.55,-3.78 -3.51,-1.38 -4.82,-0.76 -7.59,5.48 0.81,-0.91 -1.92,6.92 -1.8,5.15 0.54,2.39 -6.4,3.64 -7.94,1.42 -10.22,-0.42 -19.21,-0.42 -8.74,0 -7.58,4.26 -13.7,6.58 -0.35,0.13 -0.75,0.22 -1.12,0.33 -1.29,0.37 -3.49,0.54 -5.01,0.78 -5.99,0.94 -15.41,3.75 -22.18,3.9 2.17,-4.53 4.35,-9.6 -1.56,-9.93 -8.04,-0.45 -1.22,-0.68 -5.62,2.62l-3.46 2.46c-0.14,-0.27 -0.64,0.33 -0.95,0.5 0,-9.27 -3.32,-22.67 -4.79,-32.87 -6.8,-47.05 -8.21,-95.91 -8.25,-144.46zm115.9 142.56l4.35 0c1.11,4.76 5.35,8.69 -1.45,8.69l-1.45 0c-6.8,0 -2.56,-3.93 -1.45,-8.69zm28.8 -0.05l-2.72 0.05 0 -5.79 4.35 0 -1.63 5.74zm463.79 -909.78c2.14,4.47 1.45,5.31 1.45,11.59 -4.29,1 -2.36,1.53 -5.78,0.98 -4.96,-0.8 -1.79,-1.5 -1.23,-3.34 2.61,-8.47 3.19,-7.5 5.56,-9.23zm-55.06 -63.75c0.94,2.27 1.26,9.41 -3.46,7.74 -3.87,-1.36 -2.49,0.55 -1.27,-3.56 1.22,-4.12 0.98,-3.17 4.73,-4.18zm935.92 1582.07l10.14 0 0 1.45 -10.14 0 0 -1.45zm-709.91 -1195.24c-6.51,-0.71 -3.63,2.17 -4.34,-4.35l4.34 4.35zm386.83 -1.45l0 -4.35 2.89 0c-1.38,5.8 -2.82,4.19 -2.89,4.35zm2.89 -8.69l5.75 -1.63c-1.64,6.52 -2.36,6.25 -5.75,1.63zm65.2 -2.9c-4.19,-3.07 -2.9,-1.18 -2.9,-8.69l4.35 0c-0.07,3.28 -0.45,6.45 -1.45,8.69zm-534.6 -26.08c-3.66,5 -2.42,2.91 -8.69,1.45 3.9,-3.39 3.65,-3.87 8.69,-1.45zm79.68 39.12c7.5,0.62 7.97,4.86 12.89,7.4 4.22,2.17 3.49,0.51 7.95,2.19 4.42,1.65 0.65,1.83 6.69,3.45 6.74,-4.94 4.54,-7.47 4.35,-15.94 9.62,-0.21 9.53,-6.31 13.87,-13.66 3.79,-6.41 6.42,-11.05 10.15,-17.38l123.83 -215.18c5.06,-8.78 18.14,-27.45 20.2,-36.29 5.77,1.53 8.69,10.56 11.6,15.94 29.78,55 63.18,108.08 93.72,162.7 3.49,6.24 6.65,11.13 10.09,17.44l52.65 90.78c9.63,-2.25 1.83,-3.44 10.14,-4.35 3.84,8 -0.53,7.35 -4.34,13.04 2.66,3.06 2.43,6.97 7.16,7.03l11.62 -4.18c5.29,-1.08 1.4,0.72 5.31,-1.94 0.25,-0.17 0.55,-0.48 0.79,-0.66l3.83 -3.41c3.1,-2.8 5.26,-5.11 10.4,-5.53l0 4.34c-5.93,0.65 -3.75,1.05 -8.02,5.01 -4.72,4.37 -3.57,0.36 -3.57,9.48 5.31,-1.24 21.45,-9.99 25.42,-13.81 6.53,-6.25 1.59,-3.12 8.32,-4.75 0.95,-0.23 11.25,-6.23 12.92,-7.23l37.45 -21.94c5.79,-3.23 9.42,-2.5 10.07,-10.22 2.14,2.26 1.33,2.68 4.83,1.97 4.14,-0.85 13.86,-7.56 16.39,-11.17 3.02,-4.34 1.95,-7.53 5.05,-12.34 2.63,-4.08 4.01,-8.33 4.15,-14.68 -22.2,5.17 -13.15,-2.76 -7.24,-11.59 -17.99,-33.99 -39.2,-68.92 -58.79,-102.03l-79.35 -137.97c-3.54,-6.5 -6.52,-10.76 -10.14,-17.39l-49.25 -85.47c-6.48,-11.87 -13.33,-22.73 -19.72,-33.89l-39.63 -69.03c-3.67,-6.55 -6.6,-11 -10.15,-17.38l-29.53 -51.61c-3.49,-6.24 -6.44,-11.25 -10.13,-17.39 -4.03,-6.71 -4.29,-13.83 -13.49,-14.03l-300.53 522.38c-16.76,27.67 -6.89,13.74 -2.27,31.05 -6.36,3.05 -9.81,2.33 -11.59,-4.34 -6.59,4.82 -2.91,5.07 -0.39,11.9 2.95,8.01 11.39,28.43 17.96,32.82l33.15 19.01c30.1,15.52 11.05,10.2 27.51,5.81 -0.09,4.39 -1.21,5.96 -4.34,8.69 16.27,3.79 6.04,8.3 21.73,0 -0.71,8.6 -1.48,2.81 -5.8,8.69 4.94,1.32 34.71,21.19 33.35,7.52 -0.88,-8.85 -6.32,-0.51 -7.27,-11.86zm534.6 1001.1c5.07,1.35 3.26,0.56 5.8,4.35l-5.8 0 0 -4.35zm291.21 -470.85l0 7.24c-6.6,-1.76 -6.6,-5.48 0,-7.24zm13.04 0c6.25,0.52 5.65,0.82 5.79,7.24 -6.7,-1.79 -3.41,-1.91 -5.79,-7.24zm21.73 0l7.24 0c-3.34,4.56 -3.9,4.56 -7.24,0zm-60.85 5.8c4.49,0.38 2.74,-0.02 5.79,1.44 -6.5,9.72 -0.59,3.86 2.9,18.84 -6.67,-2.41 0.74,0.91 -5.45,-4.69 -0.23,-0.2 -0.55,-0.47 -0.78,-0.67l-12.6 -10.58c-7.01,3.71 -34.23,18.05 -37.67,23.18 16.3,1.36 10.01,3.93 11.33,14.75 0.84,6.83 1.26,6.59 0.26,11.33 -3.42,-2.38 -2.9,1.11 -2.9,-11.59 -9.18,0.2 -2.98,0.99 -10.14,2.9 -9.88,-6.62 -8.6,-5.37 -10.6,8.32 -0.13,0.9 -1.57,6.23 -1.47,7.77 0.18,2.71 0.28,1.24 2.19,5.25 8.18,17.2 3.75,3.42 11.33,19.22 -2.23,3.21 -0.24,1.8 -4.34,2.9 0.54,6.61 12.91,25.18 17.88,34.27l137.13 238.1 -282.51 0c-6.48,0 -14.02,-0.37 -20.36,-0.08 -9.41,0.44 -11.5,5.88 -14.41,5.88 -10.25,0 -4,-4.13 -14.49,2.89 1.88,7.02 2.47,1.68 4.35,8.7 -2.39,1.99 -18.93,1.45 -23.18,1.45 -2.05,3.86 -2.25,3.75 -4.54,7.05 -3.42,4.92 -6.27,10.72 -11.2,14.88 -5.24,4.43 -2.49,0.42 -5.99,7.04 4.46,2.36 11.59,3.01 11.59,8.69 0,5.26 -1.37,2.82 -7.81,5.24 -5.13,1.93 -0.25,2.01 -3.78,2.01 -9.99,0 -8.69,-9.56 -8.69,27.52 0,3.15 3.07,5.24 4.46,8.68 2.02,4.99 0.37,4.31 -0.12,10.16l-4.34 0c0,3.59 -0.57,7.75 0.42,11.17 1.22,4.24 -0.35,-0.72 2.01,3.78 4.21,8.05 -0.06,5.53 5.05,13.78 7.51,12.13 2.94,17.46 15.17,22.5 3.76,1.55 7.6,2.46 10.66,13.97l649.06 0c-1.56,-6.68 -73.6,-130.19 -80.84,-142.27 -7.1,-11.84 -13.3,-22.66 -20.13,-34.93l-194.5 -337.2c-2.03,-3.52 -2.82,-5.49 -5.28,-9.21 -11.69,-17.65 -9.11,-22.21 -19.74,-27.05 -8.42,-3.84 -8.26,-8.19 -9.83,-11.47 -6.93,2.5 0.13,-0.12 -4.11,3.13 -3.42,2.62 1.58,2.66 -10.38,2.66 0.14,-6.37 0.98,-4.51 1.45,-10.14 -7.16,0.16 -3.24,-0.24 -8.09,2.05 -7.43,3.52 -2.48,1.19 -9.04,2.55 -5.84,1.21 -40.75,21.38 -43.72,25.83z"/>
   <path class="fil1" d="M3385.59 1577.46l-6.36 152.81 -817.14 0c8.14,-170.87 12.39,-407.68 12.39,-710.41 0,-260.2 -4.25,-474.33 -12.39,-642.01l193.21 0c-8.51,140.04 -12.43,354.16 -12.43,642.01 0,236.78 -3.88,426.45 -11.69,569.33 207.76,0 426.11,-3.92 654.41,-11.73zm415.12 152.81l-197.1 0c10.29,-224.42 15.61,-461.2 15.61,-710.41 0,-244.95 -5.32,-459.08 -15.61,-642.01l197.1 0c-9.58,189.3 -14.54,403.05 -14.54,642.01 0,250.62 4.96,487.43 14.54,710.41zm1377.19 -28.02c-113.43,37.23 -228.27,56.03 -343.84,56.03 -242.81,0 -426.08,-64.87 -549.8,-194.62 -123.72,-129.75 -185.41,-290.33 -185.41,-481.4 0,-193.22 67.36,-361.97 201.36,-506.23 134.34,-144.63 320.83,-216.61 559.02,-216.61 85.78,0 166.98,9.92 243.88,30.12l-25.87 172.31c-114.13,-27.68 -206.32,-41.48 -276.15,-41.48 -167.65,0 -296,50.7 -384.97,152.06 -88.97,101.4 -133.3,227.23 -133.3,377.56 0,151.02 51.07,283.25 153.17,396.68 102.08,113.8 246.34,170.5 432.45,170.5 34.05,0 84.71,-5.29 152.77,-15.58 -12.03,-71.98 -17.69,-155.99 -17.69,-251.36 0,-80.45 -4.99,-159.17 -14.54,-235.74l188.92 0c-5.66,91.48 -8.14,187.89 -8.14,289.63 0,43.63 2.48,142.88 8.14,298.13zm530.7 28.02l-197.1 0c10.28,-224.42 15.61,-461.2 15.61,-710.41 0,-244.95 -5.33,-459.08 -15.61,-642.01l197.1 0c-9.58,189.3 -14.54,403.05 -14.54,642.01 0,250.62 4.96,487.43 14.54,710.41zm1370.86 0l-225.12 0c0,-26.95 -52.11,-126.57 -155.96,-299.21 -100.32,-166.61 -174.78,-279.71 -223.34,-338.55l-11.36 0c-41.48,56.03 -105.99,166.28 -193.18,330.41 -91.49,172.27 -137.19,274.74 -137.19,307.35l-218.02 0c0,-20.91 73.02,-140.38 219.05,-358.39 145,-215.9 235.04,-340.69 270.16,-373.67l0 -10.62c-37.23,-42.19 -114.17,-148.55 -230.45,-318.71 -119.83,-175.82 -179.71,-272.93 -179.71,-291.03l223.31 0c0,20.91 41.49,101.4 124.46,241.07 81.86,137.19 140.37,226.52 175.45,268.01l10.66 0c35.09,-42.89 91.45,-133.3 168.02,-271.2 76.94,-137.55 115.58,-216.97 115.58,-237.88l219.08 0c0,19.5 -63.46,113.1 -190.03,280.78 -122.65,160.58 -205.95,263.38 -250.25,308.39l0 10.28c52.44,58.85 146.03,190.37 280.41,394.58 138.93,211.28 208.43,330.74 208.43,358.39z"/>
  </g>
 </g>
</svg>
