<?xml version="1.0" encoding="UTF-8"?>
<!DOCTYPE svg PUBLIC "-//W3C//DTD SVG 1.1//EN" "http://www.w3.org/Graphics/SVG/1.1/DTD/svg11.dtd">
<!-- Creator: CorelDRAW 2017 -->
<svg xmlns="http://www.w3.org/2000/svg" xml:space="preserve" width="7.4506mm" height="5.3338mm" version="1.1" style="shape-rendering:geometricPrecision; text-rendering:geometricPrecision; image-rendering:optimizeQuality; fill-rule:evenodd; clip-rule:evenodd"
viewBox="0 0 745.06 533.38"
 xmlns:xlink="http://www.w3.org/1999/xlink">
 <defs>
  <style type="text/css">
   <![CDATA[
    .fil0 {fill:#343434}
   ]]>
  </style>
 </defs>
 <g id="Слой_x0020_1">
  <metadata id="CorelCorpID_0Corel-Layer"/>
  <path class="fil0" d="M55.03 107.94l635 0c29.21,0 52.92,-23.71 52.92,-52.92 0,-29.21 -23.71,-52.92 -52.92,-52.92l-635 0.01c-29.21,0 -52.92,23.7 -52.92,52.91 0,29.21 23.71,52.92 52.92,52.92zm635 105.83l-635 0c-29.21,0 -52.92,23.71 -52.92,52.92 0,29.21 23.71,52.92 52.92,52.92l635 0c29.21,0 52.92,-23.71 52.92,-52.92 0,-29.21 -23.71,-52.92 -52.92,-52.92zm0 211.67l-635 0c-29.21,0 -52.92,23.71 -52.92,52.92 0,29.21 23.71,52.92 52.92,52.92l635 -0.01c29.21,0 52.92,-23.71 52.92,-52.92 0,-29.21 -23.71,-52.91 -52.92,-52.91z"/>
 </g>
</svg>
