<?xml version="1.0" encoding="UTF-8"?>
<!DOCTYPE svg PUBLIC "-//W3C//DTD SVG 1.1//EN" "http://www.w3.org/Graphics/SVG/1.1/DTD/svg11.dtd">
<!-- Creator: CorelDRAW 2020 (64-Bit) -->
<svg xmlns="http://www.w3.org/2000/svg" xml:space="preserve" width="11.8838mm" height="18.6266mm" version="1.1" style="shape-rendering:geometricPrecision; text-rendering:geometricPrecision; image-rendering:optimizeQuality; fill-rule:evenodd; clip-rule:evenodd"
viewBox="0 0 1188.38 1862.66"
 xmlns:xlink="http://www.w3.org/1999/xlink"
 xmlns:xodm="http://www.corel.com/coreldraw/odm/2003">
 <defs>
  <style type="text/css">
   <![CDATA[
    .fil0 {fill:#B99653;fill-rule:nonzero}
   ]]>
  </style>
 </defs>
 <g id="Слой_x0020_1">
  <metadata id="CorelCorpID_0Corel-Layer"/>
  <path class="fil0" d="M98.63 0.53l0 1753.81 305.15 0 0 105.76 -410.91 0 0 -1859.57 105.76 0zm560.18 1756.91l522.45 0 0 105.76 -522.45 0 0 -105.76zm-176.65 -1074.13c72.94,0 132.1,59.14 132.1,132.09 0,72.97 -59.16,132.11 -132.1,132.11 -72.94,0 -132.1,-59.14 -132.1,-132.11 0,-72.95 59.16,-132.09 132.1,-132.09zm691.68 -677.1l6.6 1617.97 -105.34 0.42 -6.61 -1617.97 105.35 -0.42zm-208.41 487.79l0 1130.39 -105.77 0 0 -1130.39 105.77 0zm-200.15 624.85l0 505.54 -105.76 0 0 -505.54 105.76 0z"/>
 </g>
</svg>
