<?xml version="1.0" encoding="UTF-8"?>
<!DOCTYPE svg PUBLIC "-//W3C//DTD SVG 1.1//EN" "http://www.w3.org/Graphics/SVG/1.1/DTD/svg11.dtd">
<!-- Creator: CorelDRAW 2017 -->
<svg xmlns="http://www.w3.org/2000/svg" xml:space="preserve" width="5.3338mm" height="5.8418mm" version="1.1" style="shape-rendering:geometricPrecision; text-rendering:geometricPrecision; image-rendering:optimizeQuality; fill-rule:evenodd; clip-rule:evenodd"
viewBox="0 0 533.38 584.18"
 xmlns:xlink="http://www.w3.org/1999/xlink">
 <defs>
  <style type="text/css">
   <![CDATA[
    .fil0 {fill:#B99653;fill-rule:nonzero}
   ]]>
  </style>
 </defs>
 <g id="Слой_x0020_1">
  <metadata id="CorelCorpID_0Corel-Layer"/>
  <g id="_2251095989120">
   <path class="fil0" d="M319.61 583.09c-14.61,0 -26.46,-11.85 -26.46,-26.46 0,-14.61 11.85,-26.46 26.46,-26.46l132.29 0c7.3,0 13.93,-2.97 18.71,-7.75 4.78,-4.78 7.75,-11.41 7.75,-18.71l0 -423.32c0,-7.3 -2.97,-13.93 -7.75,-18.71l-0.96 -1.02c-4.69,-4.19 -10.93,-6.73 -17.75,-6.73l-132.29 -0.09c-14.55,0 -26.36,-11.81 -26.36,-26.36 0,-14.55 11.81,-26.36 26.36,-26.36l132.29 -0.01c20.96,-0.1 40.06,8.1 54.26,21.45l1.87 1.7c14.36,14.36 23.25,34.22 23.25,56.13l0 423.32c0,21.91 -8.89,41.77 -23.25,56.13 -14.36,14.36 -34.22,23.25 -56.13,23.25l-132.29 0z"/>
   <path class="fil0" d="M258.95 416.59c-10.33,10.33 -27.09,10.33 -37.42,0 -10.33,-10.33 -10.33,-27.09 0,-37.42l60.66 -60.65 -253.62 0c-14.61,0 -26.46,-11.85 -26.46,-26.46 0,-14.61 11.85,-26.46 26.46,-26.46l253.62 0 -60.66 -60.66c-10.33,-10.33 -10.33,-27.09 0,-37.42 10.33,-10.33 27.09,-10.33 37.42,0l105.83 105.83c3.19,3.51 4.92,6.08 6.47,10.55 0.53,1.66 0.91,3.37 1.11,5.13 0.18,2.1 0.18,3.97 0,6.07 -0.2,1.76 -0.57,3.46 -1.1,5.09 -1.56,4.49 -3.28,7.06 -6.48,10.58l-105.83 105.82z"/>
  </g>
 </g>
</svg>
